<?xml version="1.0" encoding="UTF-8" standalone="no"?><svg xmlns="http://www.w3.org/2000/svg" xmlns:xlink="http://www.w3.org/1999/xlink" contentStyleType="text/css" height="489px" preserveAspectRatio="none" style="width:513px;height:489px;background:#FFFFFF;" version="1.1" viewBox="0 0 513 489" width="513px" zoomAndPan="magnify"><defs/><g><rect fill="#F1F1F1" height="345.0469" rx="5" ry="5" style="stroke:#F1F1F1;stroke-width:1.5;" width="242" x="10" y="132"/><text fill="#000000" font-family="sans-serif" font-size="14" font-weight="bold" lengthAdjust="spacing" textLength="65" x="15" y="146.9951">Referral</text><text fill="#000000" font-family="sans-serif" font-size="14" lengthAdjust="spacing" textLength="4" x="194" y="146.9951"> </text><line style="stroke:#000000;stroke-width:1.0;" x1="189" x2="189" y1="132" y2="152.2969"/><line style="stroke:#000000;stroke-width:1.0;" x1="10" x2="252" y1="152.2969" y2="152.2969"/><text fill="#000000" font-family="sans-serif" font-size="14" font-weight="bold" lengthAdjust="spacing" textLength="15" x="15" y="167.292">id</text><text fill="#000000" font-family="sans-serif" font-size="14" lengthAdjust="spacing" textLength="20" x="194" y="167.292">int</text><line style="stroke:#000000;stroke-width:1.0;" x1="189" x2="189" y1="152.2969" y2="172.5938"/><rect fill="#CCFF02" height="20.2969" rx="2" ry="2" style="stroke:#CCFF02;stroke-width:1.0;" width="240" x="11.5" y="172.5938"/><line style="stroke:#000000;stroke-width:1.0;" x1="10" x2="252" y1="172.5938" y2="172.5938"/><text fill="#000000" font-family="sans-serif" font-size="14" font-weight="bold" lengthAdjust="spacing" textLength="96" x="15" y="187.5889">employer_id</text><text fill="#000000" font-family="sans-serif" font-size="14" lengthAdjust="spacing" textLength="12" x="194" y="187.5889">   </text><line style="stroke:#000000;stroke-width:1.0;" x1="189" x2="189" y1="172.5938" y2="192.8906"/><line style="stroke:#000000;stroke-width:1.0;" x1="10" x2="252" y1="192.8906" y2="192.8906"/><text fill="#000000" font-family="sans-serif" font-size="14" font-weight="bold" lengthAdjust="spacing" textLength="71" x="15" y="207.8857">message</text><text fill="#000000" font-family="sans-serif" font-size="14" lengthAdjust="spacing" textLength="53" x="194" y="207.8857">varchar</text><line style="stroke:#000000;stroke-width:1.0;" x1="189" x2="189" y1="192.8906" y2="213.1875"/><line style="stroke:#000000;stroke-width:1.0;" x1="10" x2="252" y1="213.1875" y2="213.1875"/><text fill="#000000" font-family="sans-serif" font-size="14" font-weight="bold" lengthAdjust="spacing" textLength="78" x="15" y="228.1826">signature</text><text fill="#000000" font-family="sans-serif" font-size="14" lengthAdjust="spacing" textLength="53" x="194" y="228.1826">varchar</text><line style="stroke:#000000;stroke-width:1.0;" x1="189" x2="189" y1="213.1875" y2="233.4844"/><rect fill="#CCFF02" height="20.2969" rx="2" ry="2" style="stroke:#CCFF02;stroke-width:1.0;" width="240" x="11.5" y="233.4844"/><line style="stroke:#000000;stroke-width:1.0;" x1="10" x2="252" y1="233.4844" y2="233.4844"/><text fill="#000000" font-family="sans-serif" font-size="14" font-weight="bold" lengthAdjust="spacing" textLength="98" x="15" y="248.4795">employee_id</text><text fill="#000000" font-family="sans-serif" font-size="14" lengthAdjust="spacing" textLength="12" x="194" y="248.4795">   </text><line style="stroke:#000000;stroke-width:1.0;" x1="189" x2="189" y1="233.4844" y2="253.7813"/><line style="stroke:#000000;stroke-width:1.0;" x1="10" x2="252" y1="253.7813" y2="253.7813"/><text fill="#000000" font-family="sans-serif" font-size="14" font-weight="bold" lengthAdjust="spacing" textLength="99" x="15" y="268.7764">s_work_time</text><text fill="#000000" font-family="sans-serif" font-size="14" lengthAdjust="spacing" textLength="20" x="194" y="268.7764">int</text><line style="stroke:#000000;stroke-width:1.0;" x1="189" x2="189" y1="253.7813" y2="274.0781"/><line style="stroke:#000000;stroke-width:1.0;" x1="10" x2="252" y1="274.0781" y2="274.0781"/><text fill="#000000" font-family="sans-serif" font-size="14" font-weight="bold" lengthAdjust="spacing" textLength="86" x="15" y="289.0732">s_pressure</text><text fill="#000000" font-family="sans-serif" font-size="14" lengthAdjust="spacing" textLength="20" x="194" y="289.0732">int</text><line style="stroke:#000000;stroke-width:1.0;" x1="189" x2="189" y1="274.0781" y2="294.375"/><line style="stroke:#000000;stroke-width:1.0;" x1="10" x2="252" y1="294.375" y2="294.375"/><text fill="#000000" font-family="sans-serif" font-size="14" font-weight="bold" lengthAdjust="spacing" textLength="57" x="15" y="309.3701">s_ethic</text><text fill="#000000" font-family="sans-serif" font-size="14" lengthAdjust="spacing" textLength="20" x="194" y="309.3701">int</text><line style="stroke:#000000;stroke-width:1.0;" x1="189" x2="189" y1="294.375" y2="314.6719"/><line style="stroke:#000000;stroke-width:1.0;" x1="10" x2="252" y1="314.6719" y2="314.6719"/><text fill="#000000" font-family="sans-serif" font-size="14" font-weight="bold" lengthAdjust="spacing" textLength="107" x="15" y="329.667">s_complaints</text><text fill="#000000" font-family="sans-serif" font-size="14" lengthAdjust="spacing" textLength="20" x="194" y="329.667">int</text><line style="stroke:#000000;stroke-width:1.0;" x1="189" x2="189" y1="314.6719" y2="334.9688"/><line style="stroke:#000000;stroke-width:1.0;" x1="10" x2="252" y1="334.9688" y2="334.9688"/><text fill="#000000" font-family="sans-serif" font-size="14" font-weight="bold" lengthAdjust="spacing" textLength="77" x="15" y="349.9639">s_respect</text><text fill="#000000" font-family="sans-serif" font-size="14" lengthAdjust="spacing" textLength="20" x="194" y="349.9639">int</text><line style="stroke:#000000;stroke-width:1.0;" x1="189" x2="189" y1="334.9688" y2="355.2656"/><line style="stroke:#000000;stroke-width:1.0;" x1="10" x2="252" y1="355.2656" y2="355.2656"/><text fill="#000000" font-family="sans-serif" font-size="14" font-weight="bold" lengthAdjust="spacing" textLength="76" x="15" y="370.2607">s_reliable</text><text fill="#000000" font-family="sans-serif" font-size="14" lengthAdjust="spacing" textLength="20" x="194" y="370.2607">int</text><line style="stroke:#000000;stroke-width:1.0;" x1="189" x2="189" y1="355.2656" y2="375.5625"/><line style="stroke:#000000;stroke-width:1.0;" x1="10" x2="252" y1="375.5625" y2="375.5625"/><text fill="#000000" font-family="sans-serif" font-size="14" font-weight="bold" lengthAdjust="spacing" textLength="96" x="15" y="390.5576">s_task_time</text><text fill="#000000" font-family="sans-serif" font-size="14" lengthAdjust="spacing" textLength="20" x="194" y="390.5576">int</text><line style="stroke:#000000;stroke-width:1.0;" x1="189" x2="189" y1="375.5625" y2="395.8594"/><line style="stroke:#000000;stroke-width:1.0;" x1="10" x2="252" y1="395.8594" y2="395.8594"/><text fill="#000000" font-family="sans-serif" font-size="14" font-weight="bold" lengthAdjust="spacing" textLength="134" x="15" y="410.8545">s_task_complete</text><text fill="#000000" font-family="sans-serif" font-size="14" lengthAdjust="spacing" textLength="20" x="194" y="410.8545">int</text><line style="stroke:#000000;stroke-width:1.0;" x1="189" x2="189" y1="395.8594" y2="416.1563"/><line style="stroke:#000000;stroke-width:1.0;" x1="10" x2="252" y1="416.1563" y2="416.1563"/><text fill="#000000" font-family="sans-serif" font-size="14" font-weight="bold" lengthAdjust="spacing" textLength="169" x="15" y="431.1514">s_task_communicate</text><text fill="#000000" font-family="sans-serif" font-size="14" lengthAdjust="spacing" textLength="20" x="194" y="431.1514">int</text><line style="stroke:#000000;stroke-width:1.0;" x1="189" x2="189" y1="416.1563" y2="436.4531"/><line style="stroke:#000000;stroke-width:1.0;" x1="10" x2="252" y1="436.4531" y2="436.4531"/><text fill="#000000" font-family="sans-serif" font-size="14" font-weight="bold" lengthAdjust="spacing" textLength="145" x="15" y="451.4482">s_task_experience</text><text fill="#000000" font-family="sans-serif" font-size="14" lengthAdjust="spacing" textLength="20" x="194" y="451.4482">int</text><line style="stroke:#000000;stroke-width:1.0;" x1="189" x2="189" y1="436.4531" y2="456.75"/><line style="stroke:#000000;stroke-width:1.0;" x1="10" x2="252" y1="456.75" y2="456.75"/><text fill="#000000" font-family="sans-serif" font-size="14" font-weight="bold" lengthAdjust="spacing" textLength="80" x="15" y="471.7451">s_fulltime</text><text fill="#000000" font-family="sans-serif" font-size="14" lengthAdjust="spacing" textLength="20" x="194" y="471.7451">int</text><line style="stroke:#000000;stroke-width:1.0;" x1="189" x2="189" y1="456.75" y2="477.0469"/><rect fill="none" height="345.0469" rx="5" ry="5" style="stroke:#000000;stroke-width:1.5;" width="242" x="10" y="132"/><rect fill="#F1F1F1" height="182.6719" rx="5" ry="5" style="stroke:#F1F1F1;stroke-width:1.5;" width="197" x="296.5" y="10"/><text fill="#000000" font-family="sans-serif" font-size="14" font-weight="bold" lengthAdjust="spacing" textLength="74" x="301.5" y="24.9951">Employer</text><text fill="#000000" font-family="sans-serif" font-size="14" lengthAdjust="spacing" textLength="4" x="435.5" y="24.9951"> </text><line style="stroke:#000000;stroke-width:1.0;" x1="430.5" x2="430.5" y1="10" y2="30.2969"/><rect fill="#CCFF02" height="20.2969" rx="2" ry="2" style="stroke:#CCFF02;stroke-width:1.0;" width="195" x="298" y="30.2969"/><line style="stroke:#000000;stroke-width:1.0;" x1="296.5" x2="493.5" y1="30.2969" y2="30.2969"/><text fill="#000000" font-family="sans-serif" font-size="14" font-weight="bold" lengthAdjust="spacing" textLength="15" x="301.5" y="45.292">id</text><text fill="#000000" font-family="sans-serif" font-size="14" lengthAdjust="spacing" textLength="20" x="435.5" y="45.292">int</text><line style="stroke:#000000;stroke-width:1.0;" x1="430.5" x2="430.5" y1="30.2969" y2="50.5938"/><line style="stroke:#000000;stroke-width:1.0;" x1="296.5" x2="493.5" y1="50.5938" y2="50.5938"/><text fill="#000000" font-family="sans-serif" font-size="14" font-weight="bold" lengthAdjust="spacing" textLength="19" x="301.5" y="65.5889">pk</text><text fill="#000000" font-family="sans-serif" font-size="14" lengthAdjust="spacing" textLength="53" x="435.5" y="65.5889">varchar</text><line style="stroke:#000000;stroke-width:1.0;" x1="430.5" x2="430.5" y1="50.5938" y2="70.8906"/><line style="stroke:#000000;stroke-width:1.0;" x1="296.5" x2="493.5" y1="70.8906" y2="70.8906"/><text fill="#000000" font-family="sans-serif" font-size="14" font-weight="bold" lengthAdjust="spacing" textLength="124" x="301.5" y="85.8857">company_name</text><text fill="#000000" font-family="sans-serif" font-size="14" lengthAdjust="spacing" textLength="53" x="435.5" y="85.8857">varchar</text><line style="stroke:#000000;stroke-width:1.0;" x1="430.5" x2="430.5" y1="70.8906" y2="91.1875"/><line style="stroke:#000000;stroke-width:1.0;" x1="296.5" x2="493.5" y1="91.1875" y2="91.1875"/><text fill="#000000" font-family="sans-serif" font-size="14" font-weight="bold" lengthAdjust="spacing" textLength="87" x="301.5" y="106.1826">first_name</text><text fill="#000000" font-family="sans-serif" font-size="14" lengthAdjust="spacing" textLength="53" x="435.5" y="106.1826">varchar</text><line style="stroke:#000000;stroke-width:1.0;" x1="430.5" x2="430.5" y1="91.1875" y2="111.4844"/><line style="stroke:#000000;stroke-width:1.0;" x1="296.5" x2="493.5" y1="111.4844" y2="111.4844"/><text fill="#000000" font-family="sans-serif" font-size="14" font-weight="bold" lengthAdjust="spacing" textLength="105" x="301.5" y="126.4795">middle_name</text><text fill="#000000" font-family="sans-serif" font-size="14" lengthAdjust="spacing" textLength="53" x="435.5" y="126.4795">varchar</text><line style="stroke:#000000;stroke-width:1.0;" x1="430.5" x2="430.5" y1="111.4844" y2="131.7813"/><line style="stroke:#000000;stroke-width:1.0;" x1="296.5" x2="493.5" y1="131.7813" y2="131.7813"/><text fill="#000000" font-family="sans-serif" font-size="14" font-weight="bold" lengthAdjust="spacing" textLength="83" x="301.5" y="146.7764">last_name</text><text fill="#000000" font-family="sans-serif" font-size="14" lengthAdjust="spacing" textLength="53" x="435.5" y="146.7764">varchar</text><line style="stroke:#000000;stroke-width:1.0;" x1="430.5" x2="430.5" y1="131.7813" y2="152.0781"/><line style="stroke:#000000;stroke-width:1.0;" x1="296.5" x2="493.5" y1="152.0781" y2="152.0781"/><text fill="#000000" font-family="sans-serif" font-size="14" font-weight="bold" lengthAdjust="spacing" textLength="91" x="301.5" y="167.0732">phone_num</text><text fill="#000000" font-family="sans-serif" font-size="14" lengthAdjust="spacing" textLength="53" x="435.5" y="167.0732">varchar</text><line style="stroke:#000000;stroke-width:1.0;" x1="430.5" x2="430.5" y1="152.0781" y2="172.375"/><line style="stroke:#000000;stroke-width:1.0;" x1="296.5" x2="493.5" y1="172.375" y2="172.375"/><text fill="#000000" font-family="sans-serif" font-size="14" font-weight="bold" lengthAdjust="spacing" textLength="44" x="301.5" y="187.3701">email</text><text fill="#000000" font-family="sans-serif" font-size="14" lengthAdjust="spacing" textLength="53" x="435.5" y="187.3701">varchar</text><line style="stroke:#000000;stroke-width:1.0;" x1="430.5" x2="430.5" y1="172.375" y2="192.6719"/><rect fill="none" height="182.6719" rx="5" ry="5" style="stroke:#000000;stroke-width:1.5;" width="197" x="296.5" y="10"/><rect fill="#F1F1F1" height="223.2656" rx="5" ry="5" style="stroke:#F1F1F1;stroke-width:1.5;" width="212" x="289" y="211"/><text fill="#000000" font-family="sans-serif" font-size="14" font-weight="bold" lengthAdjust="spacing" textLength="76" x="294" y="225.9951">Employee</text><text fill="#000000" font-family="sans-serif" font-size="14" lengthAdjust="spacing" textLength="4" x="416" y="225.9951"> </text><line style="stroke:#000000;stroke-width:1.0;" x1="411" x2="411" y1="211" y2="231.2969"/><rect fill="#CCFF02" height="20.2969" rx="2" ry="2" style="stroke:#CCFF02;stroke-width:1.0;" width="210" x="290.5" y="231.2969"/><line style="stroke:#000000;stroke-width:1.0;" x1="289" x2="501" y1="231.2969" y2="231.2969"/><text fill="#000000" font-family="sans-serif" font-size="14" font-weight="bold" lengthAdjust="spacing" textLength="15" x="294" y="246.292">id</text><text fill="#000000" font-family="sans-serif" font-size="14" lengthAdjust="spacing" textLength="20" x="416" y="246.292">int</text><line style="stroke:#000000;stroke-width:1.0;" x1="411" x2="411" y1="231.2969" y2="251.5938"/><line style="stroke:#000000;stroke-width:1.0;" x1="289" x2="501" y1="251.5938" y2="251.5938"/><text fill="#000000" font-family="sans-serif" font-size="14" font-weight="bold" lengthAdjust="spacing" textLength="19" x="294" y="266.5889">pk</text><text fill="#000000" font-family="sans-serif" font-size="14" lengthAdjust="spacing" textLength="53" x="416" y="266.5889">varchar</text><line style="stroke:#000000;stroke-width:1.0;" x1="411" x2="411" y1="251.5938" y2="271.8906"/><line style="stroke:#000000;stroke-width:1.0;" x1="289" x2="501" y1="271.8906" y2="271.8906"/><text fill="#000000" font-family="sans-serif" font-size="14" font-weight="bold" lengthAdjust="spacing" textLength="87" x="294" y="286.8857">first_name</text><text fill="#000000" font-family="sans-serif" font-size="14" lengthAdjust="spacing" textLength="53" x="416" y="286.8857">varchar</text><line style="stroke:#000000;stroke-width:1.0;" x1="411" x2="411" y1="271.8906" y2="292.1875"/><line style="stroke:#000000;stroke-width:1.0;" x1="289" x2="501" y1="292.1875" y2="292.1875"/><text fill="#000000" font-family="sans-serif" font-size="14" font-weight="bold" lengthAdjust="spacing" textLength="105" x="294" y="307.1826">middle_name</text><text fill="#000000" font-family="sans-serif" font-size="14" lengthAdjust="spacing" textLength="53" x="416" y="307.1826">varchar</text><line style="stroke:#000000;stroke-width:1.0;" x1="411" x2="411" y1="292.1875" y2="312.4844"/><line style="stroke:#000000;stroke-width:1.0;" x1="289" x2="501" y1="312.4844" y2="312.4844"/><text fill="#000000" font-family="sans-serif" font-size="14" font-weight="bold" lengthAdjust="spacing" textLength="83" x="294" y="327.4795">last_name</text><text fill="#000000" font-family="sans-serif" font-size="14" lengthAdjust="spacing" textLength="53" x="416" y="327.4795">varchar</text><line style="stroke:#000000;stroke-width:1.0;" x1="411" x2="411" y1="312.4844" y2="332.7813"/><line style="stroke:#000000;stroke-width:1.0;" x1="289" x2="501" y1="332.7813" y2="332.7813"/><text fill="#000000" font-family="sans-serif" font-size="14" font-weight="bold" lengthAdjust="spacing" textLength="91" x="294" y="347.7764">phone_num</text><text fill="#000000" font-family="sans-serif" font-size="14" lengthAdjust="spacing" textLength="53" x="416" y="347.7764">varchar</text><line style="stroke:#000000;stroke-width:1.0;" x1="411" x2="411" y1="332.7813" y2="353.0781"/><line style="stroke:#000000;stroke-width:1.0;" x1="289" x2="501" y1="353.0781" y2="353.0781"/><text fill="#000000" font-family="sans-serif" font-size="14" font-weight="bold" lengthAdjust="spacing" textLength="44" x="294" y="368.0732">email</text><text fill="#000000" font-family="sans-serif" font-size="14" lengthAdjust="spacing" textLength="53" x="416" y="368.0732">varchar</text><line style="stroke:#000000;stroke-width:1.0;" x1="411" x2="411" y1="353.0781" y2="373.375"/><line style="stroke:#000000;stroke-width:1.0;" x1="289" x2="501" y1="373.375" y2="373.375"/><text fill="#000000" font-family="sans-serif" font-size="14" font-weight="bold" lengthAdjust="spacing" textLength="22" x="294" y="388.3701">rui</text><text fill="#000000" font-family="sans-serif" font-size="14" lengthAdjust="spacing" textLength="34" x="416" y="388.3701">float</text><line style="stroke:#000000;stroke-width:1.0;" x1="411" x2="411" y1="373.375" y2="393.6719"/><line style="stroke:#000000;stroke-width:1.0;" x1="289" x2="501" y1="393.6719" y2="393.6719"/><text fill="#000000" font-family="sans-serif" font-size="14" font-weight="bold" lengthAdjust="spacing" textLength="112" x="294" y="408.667">referrals_num</text><text fill="#000000" font-family="sans-serif" font-size="14" lengthAdjust="spacing" textLength="20" x="416" y="408.667">int</text><line style="stroke:#000000;stroke-width:1.0;" x1="411" x2="411" y1="393.6719" y2="413.9688"/><line style="stroke:#000000;stroke-width:1.0;" x1="289" x2="501" y1="413.9688" y2="413.9688"/><text fill="#000000" font-family="sans-serif" font-size="14" font-weight="bold" lengthAdjust="spacing" textLength="106" x="294" y="428.9639">last_updated</text><text fill="#000000" font-family="sans-serif" font-size="14" lengthAdjust="spacing" textLength="80" x="416" y="428.9639">timestamp</text><line style="stroke:#000000;stroke-width:1.0;" x1="411" x2="411" y1="413.9688" y2="434.2656"/><rect fill="none" height="223.2656" rx="5" ry="5" style="stroke:#000000;stroke-width:1.5;" width="212" x="289" y="211"/><path d="M240,181.5 L253,181.5 C265.3861,181.5 277.6843,179.1485 289.5608,175.2517 " fill="none" style="stroke:#000000;stroke-width:1.0;stroke-dasharray:3.0,3.0;"/><path d="M290.6083,178.1866 L291.762,174.4661 L288.5133,172.3168 L296.8981,172.6329 L290.6083,178.1866 " fill="#000000" style="stroke:#000000;stroke-width:1.0;"/><ellipse cx="240" cy="181.5" fill="#000000" rx="3" ry="3" style="stroke:#000000;stroke-width:1.0;"/><path d="M240,242.5 L253,242.5 C262.7823,242.5 272.5099,243.9668 282.0181,246.5032 " fill="none" style="stroke:#000000;stroke-width:1.0;stroke-dasharray:3.0,3.0;"/><path d="M281.1615,249.3934 L284.1857,247.1456 L282.8747,243.6129 L289.2436,248.6446 L281.1615,249.3934 " fill="#000000" style="stroke:#000000;stroke-width:1.0;"/><ellipse cx="240" cy="242.5" fill="#000000" rx="3" ry="3" style="stroke:#000000;stroke-width:1.0;"/><!--MD5=[c2e6c0fce08d5f1aa6afc99299ce69dd]
@startjson
#highlight "employer_id"
#highlight "employee_id"
#highlight "employee_id" / "id"
#highlight "employer_id" / "id"
{
    "Referral" : "",
    "id" : "int",
    "employer_id" : {
        "Employer" : "",
        "id" : "int",
        "pk" : "varchar",
        "company_name" : "varchar",        
        "first_name" : "varchar",
        "middle_name" : "varchar",
        "last_name"  : "varchar",
        "phone_num" : "varchar",
        "email" : "varchar"
    },
    "message" : "varchar",
    "signature" : "varchar",
    "employee_id" : {
        "Employee" : "",
        "id" : "int",  
        "pk" : "varchar",
        "first_name" : "varchar",
        "middle_name" : "varchar",
        "last_name"  : "varchar",
        "phone_num" : "varchar",
        "email" : "varchar",
        "rui" : "float",        
        "referrals_num" : "int",
        "last_updated" : "timestamp"
    },
    "s_work_time" : "int",
    "s_pressure" : "int",
    "s_ethic" : "int",
    "s_complaints" : "int",
    "s_respect" : "int",
    "s_reliable" : "int",
    "s_task_time" : "int",
    "s_task_complete" : "int",
    "s_task_communicate" : "int",
    "s_task_experience" : "int",
    "s_fulltime" : "int"
}
@endjson

PlantUML version 1.2022.2beta11(Unknown compile time)
(GPL source distribution)
Java Runtime: Java(TM) SE Runtime Environment
JVM: Java HotSpot(TM) 64-Bit Server VM
Default Encoding: UTF-8
Language: en
Country: US
--></g></svg>
