<?xml version="1.0" encoding="UTF-8" standalone="no"?><svg xmlns="http://www.w3.org/2000/svg" xmlns:xlink="http://www.w3.org/1999/xlink" contentStyleType="text/css" height="427px" preserveAspectRatio="none" style="width:480px;height:427px;background:#FFFFFF;" version="1.1" viewBox="0 0 480 427" width="480px" zoomAndPan="magnify"><defs/><g><rect fill="#F1F1F1" height="284.1563" rx="5" ry="5" style="stroke:#F1F1F1;stroke-width:1.5;" width="209" x="10" y="131"/><text fill="#000000" font-family="sans-serif" font-size="14" font-weight="bold" lengthAdjust="spacing" textLength="65" x="15" y="145.9951">Referral</text><text fill="#000000" font-family="sans-serif" font-size="14" lengthAdjust="spacing" textLength="4" x="194" y="145.9951"> </text><line style="stroke:#000000;stroke-width:1.0;" x1="189" x2="189" y1="131" y2="151.2969"/><line style="stroke:#000000;stroke-width:1.0;" x1="10" x2="219" y1="151.2969" y2="151.2969"/><text fill="#000000" font-family="sans-serif" font-size="14" font-weight="bold" lengthAdjust="spacing" textLength="15" x="15" y="166.292">id</text><text fill="#000000" font-family="sans-serif" font-size="14" lengthAdjust="spacing" textLength="20" x="194" y="166.292">int</text><line style="stroke:#000000;stroke-width:1.0;" x1="189" x2="189" y1="151.2969" y2="171.5938"/><rect fill="#CCFF02" height="20.2969" rx="2" ry="2" style="stroke:#CCFF02;stroke-width:1.0;" width="207" x="11.5" y="171.5938"/><line style="stroke:#000000;stroke-width:1.0;" x1="10" x2="219" y1="171.5938" y2="171.5938"/><text fill="#000000" font-family="sans-serif" font-size="14" font-weight="bold" lengthAdjust="spacing" textLength="96" x="15" y="186.5889">employer_id</text><text fill="#000000" font-family="sans-serif" font-size="14" lengthAdjust="spacing" textLength="12" x="194" y="186.5889">   </text><line style="stroke:#000000;stroke-width:1.0;" x1="189" x2="189" y1="171.5938" y2="191.8906"/><rect fill="#CCFF02" height="20.2969" rx="2" ry="2" style="stroke:#CCFF02;stroke-width:1.0;" width="207" x="11.5" y="191.8906"/><line style="stroke:#000000;stroke-width:1.0;" x1="10" x2="219" y1="191.8906" y2="191.8906"/><text fill="#000000" font-family="sans-serif" font-size="14" font-weight="bold" lengthAdjust="spacing" textLength="98" x="15" y="206.8857">employee_id</text><text fill="#000000" font-family="sans-serif" font-size="14" lengthAdjust="spacing" textLength="12" x="194" y="206.8857">   </text><line style="stroke:#000000;stroke-width:1.0;" x1="189" x2="189" y1="191.8906" y2="212.1875"/><line style="stroke:#000000;stroke-width:1.0;" x1="10" x2="219" y1="212.1875" y2="212.1875"/><text fill="#000000" font-family="sans-serif" font-size="14" font-weight="bold" lengthAdjust="spacing" textLength="99" x="15" y="227.1826">s_work_time</text><text fill="#000000" font-family="sans-serif" font-size="14" lengthAdjust="spacing" textLength="20" x="194" y="227.1826">int</text><line style="stroke:#000000;stroke-width:1.0;" x1="189" x2="189" y1="212.1875" y2="232.4844"/><line style="stroke:#000000;stroke-width:1.0;" x1="10" x2="219" y1="232.4844" y2="232.4844"/><text fill="#000000" font-family="sans-serif" font-size="14" font-weight="bold" lengthAdjust="spacing" textLength="86" x="15" y="247.4795">s_pressure</text><text fill="#000000" font-family="sans-serif" font-size="14" lengthAdjust="spacing" textLength="20" x="194" y="247.4795">int</text><line style="stroke:#000000;stroke-width:1.0;" x1="189" x2="189" y1="232.4844" y2="252.7813"/><line style="stroke:#000000;stroke-width:1.0;" x1="10" x2="219" y1="252.7813" y2="252.7813"/><text fill="#000000" font-family="sans-serif" font-size="14" font-weight="bold" lengthAdjust="spacing" textLength="57" x="15" y="267.7764">s_ethic</text><text fill="#000000" font-family="sans-serif" font-size="14" lengthAdjust="spacing" textLength="20" x="194" y="267.7764">int</text><line style="stroke:#000000;stroke-width:1.0;" x1="189" x2="189" y1="252.7813" y2="273.0781"/><line style="stroke:#000000;stroke-width:1.0;" x1="10" x2="219" y1="273.0781" y2="273.0781"/><text fill="#000000" font-family="sans-serif" font-size="14" font-weight="bold" lengthAdjust="spacing" textLength="107" x="15" y="288.0732">s_complaints</text><text fill="#000000" font-family="sans-serif" font-size="14" lengthAdjust="spacing" textLength="20" x="194" y="288.0732">int</text><line style="stroke:#000000;stroke-width:1.0;" x1="189" x2="189" y1="273.0781" y2="293.375"/><line style="stroke:#000000;stroke-width:1.0;" x1="10" x2="219" y1="293.375" y2="293.375"/><text fill="#000000" font-family="sans-serif" font-size="14" font-weight="bold" lengthAdjust="spacing" textLength="77" x="15" y="308.3701">s_respect</text><text fill="#000000" font-family="sans-serif" font-size="14" lengthAdjust="spacing" textLength="20" x="194" y="308.3701">int</text><line style="stroke:#000000;stroke-width:1.0;" x1="189" x2="189" y1="293.375" y2="313.6719"/><line style="stroke:#000000;stroke-width:1.0;" x1="10" x2="219" y1="313.6719" y2="313.6719"/><text fill="#000000" font-family="sans-serif" font-size="14" font-weight="bold" lengthAdjust="spacing" textLength="76" x="15" y="328.667">s_reliable</text><text fill="#000000" font-family="sans-serif" font-size="14" lengthAdjust="spacing" textLength="20" x="194" y="328.667">int</text><line style="stroke:#000000;stroke-width:1.0;" x1="189" x2="189" y1="313.6719" y2="333.9688"/><line style="stroke:#000000;stroke-width:1.0;" x1="10" x2="219" y1="333.9688" y2="333.9688"/><text fill="#000000" font-family="sans-serif" font-size="14" font-weight="bold" lengthAdjust="spacing" textLength="96" x="15" y="348.9639">s_task_time</text><text fill="#000000" font-family="sans-serif" font-size="14" lengthAdjust="spacing" textLength="20" x="194" y="348.9639">int</text><line style="stroke:#000000;stroke-width:1.0;" x1="189" x2="189" y1="333.9688" y2="354.2656"/><line style="stroke:#000000;stroke-width:1.0;" x1="10" x2="219" y1="354.2656" y2="354.2656"/><text fill="#000000" font-family="sans-serif" font-size="14" font-weight="bold" lengthAdjust="spacing" textLength="134" x="15" y="369.2607">s_task_complete</text><text fill="#000000" font-family="sans-serif" font-size="14" lengthAdjust="spacing" textLength="20" x="194" y="369.2607">int</text><line style="stroke:#000000;stroke-width:1.0;" x1="189" x2="189" y1="354.2656" y2="374.5625"/><line style="stroke:#000000;stroke-width:1.0;" x1="10" x2="219" y1="374.5625" y2="374.5625"/><text fill="#000000" font-family="sans-serif" font-size="14" font-weight="bold" lengthAdjust="spacing" textLength="169" x="15" y="389.5576">s_task_communicate</text><text fill="#000000" font-family="sans-serif" font-size="14" lengthAdjust="spacing" textLength="20" x="194" y="389.5576">int</text><line style="stroke:#000000;stroke-width:1.0;" x1="189" x2="189" y1="374.5625" y2="394.8594"/><line style="stroke:#000000;stroke-width:1.0;" x1="10" x2="219" y1="394.8594" y2="394.8594"/><text fill="#000000" font-family="sans-serif" font-size="14" font-weight="bold" lengthAdjust="spacing" textLength="145" x="15" y="409.8545">s_task_experience</text><text fill="#000000" font-family="sans-serif" font-size="14" lengthAdjust="spacing" textLength="20" x="194" y="409.8545">int</text><line style="stroke:#000000;stroke-width:1.0;" x1="189" x2="189" y1="394.8594" y2="415.1563"/><rect fill="none" height="284.1563" rx="5" ry="5" style="stroke:#000000;stroke-width:1.5;" width="209" x="10" y="131"/><rect fill="#F1F1F1" height="162.375" rx="5" ry="5" style="stroke:#F1F1F1;stroke-width:1.5;" width="197" x="263.5" y="10"/><text fill="#000000" font-family="sans-serif" font-size="14" font-weight="bold" lengthAdjust="spacing" textLength="74" x="268.5" y="24.9951">Employer</text><text fill="#000000" font-family="sans-serif" font-size="14" lengthAdjust="spacing" textLength="4" x="402.5" y="24.9951"> </text><line style="stroke:#000000;stroke-width:1.0;" x1="397.5" x2="397.5" y1="10" y2="30.2969"/><rect fill="#CCFF02" height="20.2969" rx="2" ry="2" style="stroke:#CCFF02;stroke-width:1.0;" width="195" x="265" y="30.2969"/><line style="stroke:#000000;stroke-width:1.0;" x1="263.5" x2="460.5" y1="30.2969" y2="30.2969"/><text fill="#000000" font-family="sans-serif" font-size="14" font-weight="bold" lengthAdjust="spacing" textLength="15" x="268.5" y="45.292">id</text><text fill="#000000" font-family="sans-serif" font-size="14" lengthAdjust="spacing" textLength="20" x="402.5" y="45.292">int</text><line style="stroke:#000000;stroke-width:1.0;" x1="397.5" x2="397.5" y1="30.2969" y2="50.5938"/><line style="stroke:#000000;stroke-width:1.0;" x1="263.5" x2="460.5" y1="50.5938" y2="50.5938"/><text fill="#000000" font-family="sans-serif" font-size="14" font-weight="bold" lengthAdjust="spacing" textLength="124" x="268.5" y="65.5889">company_name</text><text fill="#000000" font-family="sans-serif" font-size="14" lengthAdjust="spacing" textLength="53" x="402.5" y="65.5889">varchar</text><line style="stroke:#000000;stroke-width:1.0;" x1="397.5" x2="397.5" y1="50.5938" y2="70.8906"/><line style="stroke:#000000;stroke-width:1.0;" x1="263.5" x2="460.5" y1="70.8906" y2="70.8906"/><text fill="#000000" font-family="sans-serif" font-size="14" font-weight="bold" lengthAdjust="spacing" textLength="87" x="268.5" y="85.8857">first_name</text><text fill="#000000" font-family="sans-serif" font-size="14" lengthAdjust="spacing" textLength="53" x="402.5" y="85.8857">varchar</text><line style="stroke:#000000;stroke-width:1.0;" x1="397.5" x2="397.5" y1="70.8906" y2="91.1875"/><line style="stroke:#000000;stroke-width:1.0;" x1="263.5" x2="460.5" y1="91.1875" y2="91.1875"/><text fill="#000000" font-family="sans-serif" font-size="14" font-weight="bold" lengthAdjust="spacing" textLength="105" x="268.5" y="106.1826">middle_name</text><text fill="#000000" font-family="sans-serif" font-size="14" lengthAdjust="spacing" textLength="53" x="402.5" y="106.1826">varchar</text><line style="stroke:#000000;stroke-width:1.0;" x1="397.5" x2="397.5" y1="91.1875" y2="111.4844"/><line style="stroke:#000000;stroke-width:1.0;" x1="263.5" x2="460.5" y1="111.4844" y2="111.4844"/><text fill="#000000" font-family="sans-serif" font-size="14" font-weight="bold" lengthAdjust="spacing" textLength="83" x="268.5" y="126.4795">last_name</text><text fill="#000000" font-family="sans-serif" font-size="14" lengthAdjust="spacing" textLength="53" x="402.5" y="126.4795">varchar</text><line style="stroke:#000000;stroke-width:1.0;" x1="397.5" x2="397.5" y1="111.4844" y2="131.7813"/><line style="stroke:#000000;stroke-width:1.0;" x1="263.5" x2="460.5" y1="131.7813" y2="131.7813"/><text fill="#000000" font-family="sans-serif" font-size="14" font-weight="bold" lengthAdjust="spacing" textLength="91" x="268.5" y="146.7764">phone_num</text><text fill="#000000" font-family="sans-serif" font-size="14" lengthAdjust="spacing" textLength="53" x="402.5" y="146.7764">varchar</text><line style="stroke:#000000;stroke-width:1.0;" x1="397.5" x2="397.5" y1="131.7813" y2="152.0781"/><line style="stroke:#000000;stroke-width:1.0;" x1="263.5" x2="460.5" y1="152.0781" y2="152.0781"/><text fill="#000000" font-family="sans-serif" font-size="14" font-weight="bold" lengthAdjust="spacing" textLength="44" x="268.5" y="167.0732">email</text><text fill="#000000" font-family="sans-serif" font-size="14" lengthAdjust="spacing" textLength="53" x="402.5" y="167.0732">varchar</text><line style="stroke:#000000;stroke-width:1.0;" x1="397.5" x2="397.5" y1="152.0781" y2="172.375"/><rect fill="none" height="162.375" rx="5" ry="5" style="stroke:#000000;stroke-width:1.5;" width="197" x="263.5" y="10"/><rect fill="#F1F1F1" height="202.9688" rx="5" ry="5" style="stroke:#F1F1F1;stroke-width:1.5;" width="212" x="256" y="190.5"/><text fill="#000000" font-family="sans-serif" font-size="14" font-weight="bold" lengthAdjust="spacing" textLength="76" x="261" y="205.4951">Employee</text><text fill="#000000" font-family="sans-serif" font-size="14" lengthAdjust="spacing" textLength="4" x="383" y="205.4951"> </text><line style="stroke:#000000;stroke-width:1.0;" x1="378" x2="378" y1="190.5" y2="210.7969"/><rect fill="#CCFF02" height="20.2969" rx="2" ry="2" style="stroke:#CCFF02;stroke-width:1.0;" width="210" x="257.5" y="210.7969"/><line style="stroke:#000000;stroke-width:1.0;" x1="256" x2="468" y1="210.7969" y2="210.7969"/><text fill="#000000" font-family="sans-serif" font-size="14" font-weight="bold" lengthAdjust="spacing" textLength="15" x="261" y="225.792">id</text><text fill="#000000" font-family="sans-serif" font-size="14" lengthAdjust="spacing" textLength="20" x="383" y="225.792">int</text><line style="stroke:#000000;stroke-width:1.0;" x1="378" x2="378" y1="210.7969" y2="231.0938"/><line style="stroke:#000000;stroke-width:1.0;" x1="256" x2="468" y1="231.0938" y2="231.0938"/><text fill="#000000" font-family="sans-serif" font-size="14" font-weight="bold" lengthAdjust="spacing" textLength="87" x="261" y="246.0889">first_name</text><text fill="#000000" font-family="sans-serif" font-size="14" lengthAdjust="spacing" textLength="53" x="383" y="246.0889">varchar</text><line style="stroke:#000000;stroke-width:1.0;" x1="378" x2="378" y1="231.0938" y2="251.3906"/><line style="stroke:#000000;stroke-width:1.0;" x1="256" x2="468" y1="251.3906" y2="251.3906"/><text fill="#000000" font-family="sans-serif" font-size="14" font-weight="bold" lengthAdjust="spacing" textLength="105" x="261" y="266.3857">middle_name</text><text fill="#000000" font-family="sans-serif" font-size="14" lengthAdjust="spacing" textLength="53" x="383" y="266.3857">varchar</text><line style="stroke:#000000;stroke-width:1.0;" x1="378" x2="378" y1="251.3906" y2="271.6875"/><line style="stroke:#000000;stroke-width:1.0;" x1="256" x2="468" y1="271.6875" y2="271.6875"/><text fill="#000000" font-family="sans-serif" font-size="14" font-weight="bold" lengthAdjust="spacing" textLength="83" x="261" y="286.6826">last_name</text><text fill="#000000" font-family="sans-serif" font-size="14" lengthAdjust="spacing" textLength="53" x="383" y="286.6826">varchar</text><line style="stroke:#000000;stroke-width:1.0;" x1="378" x2="378" y1="271.6875" y2="291.9844"/><line style="stroke:#000000;stroke-width:1.0;" x1="256" x2="468" y1="291.9844" y2="291.9844"/><text fill="#000000" font-family="sans-serif" font-size="14" font-weight="bold" lengthAdjust="spacing" textLength="91" x="261" y="306.9795">phone_num</text><text fill="#000000" font-family="sans-serif" font-size="14" lengthAdjust="spacing" textLength="53" x="383" y="306.9795">varchar</text><line style="stroke:#000000;stroke-width:1.0;" x1="378" x2="378" y1="291.9844" y2="312.2813"/><line style="stroke:#000000;stroke-width:1.0;" x1="256" x2="468" y1="312.2813" y2="312.2813"/><text fill="#000000" font-family="sans-serif" font-size="14" font-weight="bold" lengthAdjust="spacing" textLength="44" x="261" y="327.2764">email</text><text fill="#000000" font-family="sans-serif" font-size="14" lengthAdjust="spacing" textLength="53" x="383" y="327.2764">varchar</text><line style="stroke:#000000;stroke-width:1.0;" x1="378" x2="378" y1="312.2813" y2="332.5781"/><line style="stroke:#000000;stroke-width:1.0;" x1="256" x2="468" y1="332.5781" y2="332.5781"/><text fill="#000000" font-family="sans-serif" font-size="14" font-weight="bold" lengthAdjust="spacing" textLength="22" x="261" y="347.5732">rui</text><text fill="#000000" font-family="sans-serif" font-size="14" lengthAdjust="spacing" textLength="34" x="383" y="347.5732">float</text><line style="stroke:#000000;stroke-width:1.0;" x1="378" x2="378" y1="332.5781" y2="352.875"/><line style="stroke:#000000;stroke-width:1.0;" x1="256" x2="468" y1="352.875" y2="352.875"/><text fill="#000000" font-family="sans-serif" font-size="14" font-weight="bold" lengthAdjust="spacing" textLength="112" x="261" y="367.8701">referrals_num</text><text fill="#000000" font-family="sans-serif" font-size="14" lengthAdjust="spacing" textLength="20" x="383" y="367.8701">int</text><line style="stroke:#000000;stroke-width:1.0;" x1="378" x2="378" y1="352.875" y2="373.1719"/><line style="stroke:#000000;stroke-width:1.0;" x1="256" x2="468" y1="373.1719" y2="373.1719"/><text fill="#000000" font-family="sans-serif" font-size="14" font-weight="bold" lengthAdjust="spacing" textLength="106" x="261" y="388.167">last_updated</text><text fill="#000000" font-family="sans-serif" font-size="14" lengthAdjust="spacing" textLength="80" x="383" y="388.167">timestamp</text><line style="stroke:#000000;stroke-width:1.0;" x1="378" x2="378" y1="373.1719" y2="393.4688"/><rect fill="none" height="202.9688" rx="5" ry="5" style="stroke:#000000;stroke-width:1.5;" width="212" x="256" y="190.5"/><path d="M207,181 L220,181 C232.5372,181 244.8604,178.4534 256.6869,174.2169 " fill="none" style="stroke:#000000;stroke-width:1.0;stroke-dasharray:3.0,3.0;"/><path d="M257.8263,177.1357 L258.876,173.3624 L255.5475,171.2982 L263.9838,171.3684 L257.8263,177.1357 " fill="#000000" style="stroke:#000000;stroke-width:1.0;"/><ellipse cx="207" cy="181" fill="#000000" rx="3" ry="3" style="stroke:#000000;stroke-width:1.0;"/><path d="M207,201 L220,201 C229.8918,201 239.6428,202.5926 249.1172,205.3565 " fill="none" style="stroke:#000000;stroke-width:1.0;stroke-dasharray:3.0,3.0;"/><path d="M248.1832,208.2321 L251.2739,206.057 L250.0512,202.481 L256.3061,207.6914 L248.1832,208.2321 " fill="#000000" style="stroke:#000000;stroke-width:1.0;"/><ellipse cx="207" cy="201" fill="#000000" rx="3" ry="3" style="stroke:#000000;stroke-width:1.0;"/><!--MD5=[9fe9e9ff4df1bd2b58e56e1b6c2c6cb8]
@startjson
#highlight "employer_id"
#highlight "employee_id"
#highlight "employee_id" / "id"
#highlight "employer_id" / "id"
{
    "Referral" : "",
    "id" : "int",
    "employer_id" : {
        "Employer" : "",
        "id" : "int",
        "company_name" : "varchar",        
        "first_name" : "varchar",
        "middle_name" : "varchar",
        "last_name"  : "varchar",
        "phone_num" : "varchar",
        "email" : "varchar"
    },
    "message": "varchar",
    "signature": "varchar",
    "employee_id" : {
        "Employee" : "",
        "id" : "int",        
        "first_name" : "varchar",
        "middle_name" : "varchar",
        "last_name"  : "varchar",
        "phone_num" : "varchar",
        "email" : "varchar",
        "rui" : "float",        
        "referrals_num" : "int",
        "last_updated" : "timestamp"
    },
    "s_work_time" : "int",
    "s_pressure" : "int",
    "s_ethic" : "int",
    "s_complaints" : "int",
    "s_respect" : "int",
    "s_reliable" : "int",
    "s_task_time" : "int",
    "s_task_complete" : "int",
    "s_task_communicate" : "int",
    "s_task_experience" : "int"
}
@endjson

PlantUML version 1.2022.2beta8(Unknown compile time)
(GPL source distribution)
Java Runtime: Java(TM) SE Runtime Environment
JVM: Java HotSpot(TM) 64-Bit Server VM
Default Encoding: UTF-8
Language: en
Country: US
--></g></svg>
