<?xml version="1.0" encoding="UTF-8" standalone="no"?><svg xmlns="http://www.w3.org/2000/svg" xmlns:xlink="http://www.w3.org/1999/xlink" contentStyleType="text/css" height="448px" preserveAspectRatio="none" style="width:513px;height:448px;background:#FFFFFF;" version="1.1" viewBox="0 0 513 448" width="513px" zoomAndPan="magnify"><defs/><g><rect fill="#F1F1F1" height="324.75" rx="5" ry="5" style="stroke:#F1F1F1;stroke-width:1.5;" width="242" x="10" y="111.5"/><text fill="#000000" font-family="sans-serif" font-size="14" font-weight="bold" lengthAdjust="spacing" textLength="65" x="15" y="126.4951">Referral</text><text fill="#000000" font-family="sans-serif" font-size="14" lengthAdjust="spacing" textLength="4" x="194" y="126.4951"> </text><line style="stroke:#000000;stroke-width:1.0;" x1="189" x2="189" y1="111.5" y2="131.7969"/><line style="stroke:#000000;stroke-width:1.0;" x1="10" x2="252" y1="131.7969" y2="131.7969"/><text fill="#000000" font-family="sans-serif" font-size="14" font-weight="bold" lengthAdjust="spacing" textLength="15" x="15" y="146.792">id</text><text fill="#000000" font-family="sans-serif" font-size="14" lengthAdjust="spacing" textLength="20" x="194" y="146.792">int</text><line style="stroke:#000000;stroke-width:1.0;" x1="189" x2="189" y1="131.7969" y2="152.0938"/><rect fill="#CCFF02" height="20.2969" rx="2" ry="2" style="stroke:#CCFF02;stroke-width:1.0;" width="240" x="11.5" y="152.0938"/><line style="stroke:#000000;stroke-width:1.0;" x1="10" x2="252" y1="152.0938" y2="152.0938"/><text fill="#000000" font-family="sans-serif" font-size="14" font-weight="bold" lengthAdjust="spacing" textLength="96" x="15" y="167.0889">employer_id</text><text fill="#000000" font-family="sans-serif" font-size="14" lengthAdjust="spacing" textLength="12" x="194" y="167.0889">   </text><line style="stroke:#000000;stroke-width:1.0;" x1="189" x2="189" y1="152.0938" y2="172.3906"/><line style="stroke:#000000;stroke-width:1.0;" x1="10" x2="252" y1="172.3906" y2="172.3906"/><text fill="#000000" font-family="sans-serif" font-size="14" font-weight="bold" lengthAdjust="spacing" textLength="71" x="15" y="187.3857">message</text><text fill="#000000" font-family="sans-serif" font-size="14" lengthAdjust="spacing" textLength="53" x="194" y="187.3857">varchar</text><line style="stroke:#000000;stroke-width:1.0;" x1="189" x2="189" y1="172.3906" y2="192.6875"/><line style="stroke:#000000;stroke-width:1.0;" x1="10" x2="252" y1="192.6875" y2="192.6875"/><text fill="#000000" font-family="sans-serif" font-size="14" font-weight="bold" lengthAdjust="spacing" textLength="78" x="15" y="207.6826">signature</text><text fill="#000000" font-family="sans-serif" font-size="14" lengthAdjust="spacing" textLength="53" x="194" y="207.6826">varchar</text><line style="stroke:#000000;stroke-width:1.0;" x1="189" x2="189" y1="192.6875" y2="212.9844"/><rect fill="#CCFF02" height="20.2969" rx="2" ry="2" style="stroke:#CCFF02;stroke-width:1.0;" width="240" x="11.5" y="212.9844"/><line style="stroke:#000000;stroke-width:1.0;" x1="10" x2="252" y1="212.9844" y2="212.9844"/><text fill="#000000" font-family="sans-serif" font-size="14" font-weight="bold" lengthAdjust="spacing" textLength="98" x="15" y="227.9795">employee_id</text><text fill="#000000" font-family="sans-serif" font-size="14" lengthAdjust="spacing" textLength="12" x="194" y="227.9795">   </text><line style="stroke:#000000;stroke-width:1.0;" x1="189" x2="189" y1="212.9844" y2="233.2813"/><line style="stroke:#000000;stroke-width:1.0;" x1="10" x2="252" y1="233.2813" y2="233.2813"/><text fill="#000000" font-family="sans-serif" font-size="14" font-weight="bold" lengthAdjust="spacing" textLength="99" x="15" y="248.2764">s_work_time</text><text fill="#000000" font-family="sans-serif" font-size="14" lengthAdjust="spacing" textLength="20" x="194" y="248.2764">int</text><line style="stroke:#000000;stroke-width:1.0;" x1="189" x2="189" y1="233.2813" y2="253.5781"/><line style="stroke:#000000;stroke-width:1.0;" x1="10" x2="252" y1="253.5781" y2="253.5781"/><text fill="#000000" font-family="sans-serif" font-size="14" font-weight="bold" lengthAdjust="spacing" textLength="86" x="15" y="268.5732">s_pressure</text><text fill="#000000" font-family="sans-serif" font-size="14" lengthAdjust="spacing" textLength="20" x="194" y="268.5732">int</text><line style="stroke:#000000;stroke-width:1.0;" x1="189" x2="189" y1="253.5781" y2="273.875"/><line style="stroke:#000000;stroke-width:1.0;" x1="10" x2="252" y1="273.875" y2="273.875"/><text fill="#000000" font-family="sans-serif" font-size="14" font-weight="bold" lengthAdjust="spacing" textLength="57" x="15" y="288.8701">s_ethic</text><text fill="#000000" font-family="sans-serif" font-size="14" lengthAdjust="spacing" textLength="20" x="194" y="288.8701">int</text><line style="stroke:#000000;stroke-width:1.0;" x1="189" x2="189" y1="273.875" y2="294.1719"/><line style="stroke:#000000;stroke-width:1.0;" x1="10" x2="252" y1="294.1719" y2="294.1719"/><text fill="#000000" font-family="sans-serif" font-size="14" font-weight="bold" lengthAdjust="spacing" textLength="107" x="15" y="309.167">s_complaints</text><text fill="#000000" font-family="sans-serif" font-size="14" lengthAdjust="spacing" textLength="20" x="194" y="309.167">int</text><line style="stroke:#000000;stroke-width:1.0;" x1="189" x2="189" y1="294.1719" y2="314.4688"/><line style="stroke:#000000;stroke-width:1.0;" x1="10" x2="252" y1="314.4688" y2="314.4688"/><text fill="#000000" font-family="sans-serif" font-size="14" font-weight="bold" lengthAdjust="spacing" textLength="77" x="15" y="329.4639">s_respect</text><text fill="#000000" font-family="sans-serif" font-size="14" lengthAdjust="spacing" textLength="20" x="194" y="329.4639">int</text><line style="stroke:#000000;stroke-width:1.0;" x1="189" x2="189" y1="314.4688" y2="334.7656"/><line style="stroke:#000000;stroke-width:1.0;" x1="10" x2="252" y1="334.7656" y2="334.7656"/><text fill="#000000" font-family="sans-serif" font-size="14" font-weight="bold" lengthAdjust="spacing" textLength="76" x="15" y="349.7607">s_reliable</text><text fill="#000000" font-family="sans-serif" font-size="14" lengthAdjust="spacing" textLength="20" x="194" y="349.7607">int</text><line style="stroke:#000000;stroke-width:1.0;" x1="189" x2="189" y1="334.7656" y2="355.0625"/><line style="stroke:#000000;stroke-width:1.0;" x1="10" x2="252" y1="355.0625" y2="355.0625"/><text fill="#000000" font-family="sans-serif" font-size="14" font-weight="bold" lengthAdjust="spacing" textLength="96" x="15" y="370.0576">s_task_time</text><text fill="#000000" font-family="sans-serif" font-size="14" lengthAdjust="spacing" textLength="20" x="194" y="370.0576">int</text><line style="stroke:#000000;stroke-width:1.0;" x1="189" x2="189" y1="355.0625" y2="375.3594"/><line style="stroke:#000000;stroke-width:1.0;" x1="10" x2="252" y1="375.3594" y2="375.3594"/><text fill="#000000" font-family="sans-serif" font-size="14" font-weight="bold" lengthAdjust="spacing" textLength="134" x="15" y="390.3545">s_task_complete</text><text fill="#000000" font-family="sans-serif" font-size="14" lengthAdjust="spacing" textLength="20" x="194" y="390.3545">int</text><line style="stroke:#000000;stroke-width:1.0;" x1="189" x2="189" y1="375.3594" y2="395.6563"/><line style="stroke:#000000;stroke-width:1.0;" x1="10" x2="252" y1="395.6563" y2="395.6563"/><text fill="#000000" font-family="sans-serif" font-size="14" font-weight="bold" lengthAdjust="spacing" textLength="169" x="15" y="410.6514">s_task_communicate</text><text fill="#000000" font-family="sans-serif" font-size="14" lengthAdjust="spacing" textLength="20" x="194" y="410.6514">int</text><line style="stroke:#000000;stroke-width:1.0;" x1="189" x2="189" y1="395.6563" y2="415.9531"/><line style="stroke:#000000;stroke-width:1.0;" x1="10" x2="252" y1="415.9531" y2="415.9531"/><text fill="#000000" font-family="sans-serif" font-size="14" font-weight="bold" lengthAdjust="spacing" textLength="145" x="15" y="430.9482">s_task_experience</text><text fill="#000000" font-family="sans-serif" font-size="14" lengthAdjust="spacing" textLength="20" x="194" y="430.9482">int</text><line style="stroke:#000000;stroke-width:1.0;" x1="189" x2="189" y1="415.9531" y2="436.25"/><rect fill="none" height="324.75" rx="5" ry="5" style="stroke:#000000;stroke-width:1.5;" width="242" x="10" y="111.5"/><rect fill="#F1F1F1" height="162.375" rx="5" ry="5" style="stroke:#F1F1F1;stroke-width:1.5;" width="197" x="296.5" y="10"/><text fill="#000000" font-family="sans-serif" font-size="14" font-weight="bold" lengthAdjust="spacing" textLength="74" x="301.5" y="24.9951">Employer</text><text fill="#000000" font-family="sans-serif" font-size="14" lengthAdjust="spacing" textLength="4" x="435.5" y="24.9951"> </text><line style="stroke:#000000;stroke-width:1.0;" x1="430.5" x2="430.5" y1="10" y2="30.2969"/><rect fill="#CCFF02" height="20.2969" rx="2" ry="2" style="stroke:#CCFF02;stroke-width:1.0;" width="195" x="298" y="30.2969"/><line style="stroke:#000000;stroke-width:1.0;" x1="296.5" x2="493.5" y1="30.2969" y2="30.2969"/><text fill="#000000" font-family="sans-serif" font-size="14" font-weight="bold" lengthAdjust="spacing" textLength="15" x="301.5" y="45.292">id</text><text fill="#000000" font-family="sans-serif" font-size="14" lengthAdjust="spacing" textLength="20" x="435.5" y="45.292">int</text><line style="stroke:#000000;stroke-width:1.0;" x1="430.5" x2="430.5" y1="30.2969" y2="50.5938"/><line style="stroke:#000000;stroke-width:1.0;" x1="296.5" x2="493.5" y1="50.5938" y2="50.5938"/><text fill="#000000" font-family="sans-serif" font-size="14" font-weight="bold" lengthAdjust="spacing" textLength="124" x="301.5" y="65.5889">company_name</text><text fill="#000000" font-family="sans-serif" font-size="14" lengthAdjust="spacing" textLength="53" x="435.5" y="65.5889">varchar</text><line style="stroke:#000000;stroke-width:1.0;" x1="430.5" x2="430.5" y1="50.5938" y2="70.8906"/><line style="stroke:#000000;stroke-width:1.0;" x1="296.5" x2="493.5" y1="70.8906" y2="70.8906"/><text fill="#000000" font-family="sans-serif" font-size="14" font-weight="bold" lengthAdjust="spacing" textLength="87" x="301.5" y="85.8857">first_name</text><text fill="#000000" font-family="sans-serif" font-size="14" lengthAdjust="spacing" textLength="53" x="435.5" y="85.8857">varchar</text><line style="stroke:#000000;stroke-width:1.0;" x1="430.5" x2="430.5" y1="70.8906" y2="91.1875"/><line style="stroke:#000000;stroke-width:1.0;" x1="296.5" x2="493.5" y1="91.1875" y2="91.1875"/><text fill="#000000" font-family="sans-serif" font-size="14" font-weight="bold" lengthAdjust="spacing" textLength="105" x="301.5" y="106.1826">middle_name</text><text fill="#000000" font-family="sans-serif" font-size="14" lengthAdjust="spacing" textLength="53" x="435.5" y="106.1826">varchar</text><line style="stroke:#000000;stroke-width:1.0;" x1="430.5" x2="430.5" y1="91.1875" y2="111.4844"/><line style="stroke:#000000;stroke-width:1.0;" x1="296.5" x2="493.5" y1="111.4844" y2="111.4844"/><text fill="#000000" font-family="sans-serif" font-size="14" font-weight="bold" lengthAdjust="spacing" textLength="83" x="301.5" y="126.4795">last_name</text><text fill="#000000" font-family="sans-serif" font-size="14" lengthAdjust="spacing" textLength="53" x="435.5" y="126.4795">varchar</text><line style="stroke:#000000;stroke-width:1.0;" x1="430.5" x2="430.5" y1="111.4844" y2="131.7813"/><line style="stroke:#000000;stroke-width:1.0;" x1="296.5" x2="493.5" y1="131.7813" y2="131.7813"/><text fill="#000000" font-family="sans-serif" font-size="14" font-weight="bold" lengthAdjust="spacing" textLength="91" x="301.5" y="146.7764">phone_num</text><text fill="#000000" font-family="sans-serif" font-size="14" lengthAdjust="spacing" textLength="53" x="435.5" y="146.7764">varchar</text><line style="stroke:#000000;stroke-width:1.0;" x1="430.5" x2="430.5" y1="131.7813" y2="152.0781"/><line style="stroke:#000000;stroke-width:1.0;" x1="296.5" x2="493.5" y1="152.0781" y2="152.0781"/><text fill="#000000" font-family="sans-serif" font-size="14" font-weight="bold" lengthAdjust="spacing" textLength="44" x="301.5" y="167.0732">email</text><text fill="#000000" font-family="sans-serif" font-size="14" lengthAdjust="spacing" textLength="53" x="435.5" y="167.0732">varchar</text><line style="stroke:#000000;stroke-width:1.0;" x1="430.5" x2="430.5" y1="152.0781" y2="172.375"/><rect fill="none" height="162.375" rx="5" ry="5" style="stroke:#000000;stroke-width:1.5;" width="197" x="296.5" y="10"/><rect fill="#F1F1F1" height="202.9688" rx="5" ry="5" style="stroke:#F1F1F1;stroke-width:1.5;" width="212" x="289" y="190.5"/><text fill="#000000" font-family="sans-serif" font-size="14" font-weight="bold" lengthAdjust="spacing" textLength="76" x="294" y="205.4951">Employee</text><text fill="#000000" font-family="sans-serif" font-size="14" lengthAdjust="spacing" textLength="4" x="416" y="205.4951"> </text><line style="stroke:#000000;stroke-width:1.0;" x1="411" x2="411" y1="190.5" y2="210.7969"/><rect fill="#CCFF02" height="20.2969" rx="2" ry="2" style="stroke:#CCFF02;stroke-width:1.0;" width="210" x="290.5" y="210.7969"/><line style="stroke:#000000;stroke-width:1.0;" x1="289" x2="501" y1="210.7969" y2="210.7969"/><text fill="#000000" font-family="sans-serif" font-size="14" font-weight="bold" lengthAdjust="spacing" textLength="15" x="294" y="225.792">id</text><text fill="#000000" font-family="sans-serif" font-size="14" lengthAdjust="spacing" textLength="20" x="416" y="225.792">int</text><line style="stroke:#000000;stroke-width:1.0;" x1="411" x2="411" y1="210.7969" y2="231.0938"/><line style="stroke:#000000;stroke-width:1.0;" x1="289" x2="501" y1="231.0938" y2="231.0938"/><text fill="#000000" font-family="sans-serif" font-size="14" font-weight="bold" lengthAdjust="spacing" textLength="87" x="294" y="246.0889">first_name</text><text fill="#000000" font-family="sans-serif" font-size="14" lengthAdjust="spacing" textLength="53" x="416" y="246.0889">varchar</text><line style="stroke:#000000;stroke-width:1.0;" x1="411" x2="411" y1="231.0938" y2="251.3906"/><line style="stroke:#000000;stroke-width:1.0;" x1="289" x2="501" y1="251.3906" y2="251.3906"/><text fill="#000000" font-family="sans-serif" font-size="14" font-weight="bold" lengthAdjust="spacing" textLength="105" x="294" y="266.3857">middle_name</text><text fill="#000000" font-family="sans-serif" font-size="14" lengthAdjust="spacing" textLength="53" x="416" y="266.3857">varchar</text><line style="stroke:#000000;stroke-width:1.0;" x1="411" x2="411" y1="251.3906" y2="271.6875"/><line style="stroke:#000000;stroke-width:1.0;" x1="289" x2="501" y1="271.6875" y2="271.6875"/><text fill="#000000" font-family="sans-serif" font-size="14" font-weight="bold" lengthAdjust="spacing" textLength="83" x="294" y="286.6826">last_name</text><text fill="#000000" font-family="sans-serif" font-size="14" lengthAdjust="spacing" textLength="53" x="416" y="286.6826">varchar</text><line style="stroke:#000000;stroke-width:1.0;" x1="411" x2="411" y1="271.6875" y2="291.9844"/><line style="stroke:#000000;stroke-width:1.0;" x1="289" x2="501" y1="291.9844" y2="291.9844"/><text fill="#000000" font-family="sans-serif" font-size="14" font-weight="bold" lengthAdjust="spacing" textLength="91" x="294" y="306.9795">phone_num</text><text fill="#000000" font-family="sans-serif" font-size="14" lengthAdjust="spacing" textLength="53" x="416" y="306.9795">varchar</text><line style="stroke:#000000;stroke-width:1.0;" x1="411" x2="411" y1="291.9844" y2="312.2813"/><line style="stroke:#000000;stroke-width:1.0;" x1="289" x2="501" y1="312.2813" y2="312.2813"/><text fill="#000000" font-family="sans-serif" font-size="14" font-weight="bold" lengthAdjust="spacing" textLength="44" x="294" y="327.2764">email</text><text fill="#000000" font-family="sans-serif" font-size="14" lengthAdjust="spacing" textLength="53" x="416" y="327.2764">varchar</text><line style="stroke:#000000;stroke-width:1.0;" x1="411" x2="411" y1="312.2813" y2="332.5781"/><line style="stroke:#000000;stroke-width:1.0;" x1="289" x2="501" y1="332.5781" y2="332.5781"/><text fill="#000000" font-family="sans-serif" font-size="14" font-weight="bold" lengthAdjust="spacing" textLength="22" x="294" y="347.5732">rui</text><text fill="#000000" font-family="sans-serif" font-size="14" lengthAdjust="spacing" textLength="34" x="416" y="347.5732">float</text><line style="stroke:#000000;stroke-width:1.0;" x1="411" x2="411" y1="332.5781" y2="352.875"/><line style="stroke:#000000;stroke-width:1.0;" x1="289" x2="501" y1="352.875" y2="352.875"/><text fill="#000000" font-family="sans-serif" font-size="14" font-weight="bold" lengthAdjust="spacing" textLength="112" x="294" y="367.8701">referrals_num</text><text fill="#000000" font-family="sans-serif" font-size="14" lengthAdjust="spacing" textLength="20" x="416" y="367.8701">int</text><line style="stroke:#000000;stroke-width:1.0;" x1="411" x2="411" y1="352.875" y2="373.1719"/><line style="stroke:#000000;stroke-width:1.0;" x1="289" x2="501" y1="373.1719" y2="373.1719"/><text fill="#000000" font-family="sans-serif" font-size="14" font-weight="bold" lengthAdjust="spacing" textLength="106" x="294" y="388.167">last_updated</text><text fill="#000000" font-family="sans-serif" font-size="14" lengthAdjust="spacing" textLength="80" x="416" y="388.167">timestamp</text><line style="stroke:#000000;stroke-width:1.0;" x1="411" x2="411" y1="373.1719" y2="393.4688"/><rect fill="none" height="202.9688" rx="5" ry="5" style="stroke:#000000;stroke-width:1.5;" width="212" x="289" y="190.5"/><path d="M240,161 L253,161 C265.2563,161 277.5485,158.864 289.4899,155.3383 " fill="none" style="stroke:#000000;stroke-width:1.0;stroke-dasharray:3.0,3.0;"/><path d="M290.4372,158.2929 L291.7058,154.6278 L288.5426,152.3837 L296.8764,152.9701 L290.4372,158.2929 " fill="#000000" style="stroke:#000000;stroke-width:1.0;"/><ellipse cx="240" cy="161" fill="#000000" rx="3" ry="3" style="stroke:#000000;stroke-width:1.0;"/><path d="M240,222 L253,222 C262.719,222 272.4605,223.3431 282.0318,225.6573 " fill="none" style="stroke:#000000;stroke-width:1.0;stroke-dasharray:3.0,3.0;"/><path d="M281.2507,228.5704 L284.2166,226.2431 L282.8129,222.7442 L289.3146,227.6101 L281.2507,228.5704 " fill="#000000" style="stroke:#000000;stroke-width:1.0;"/><ellipse cx="240" cy="222" fill="#000000" rx="3" ry="3" style="stroke:#000000;stroke-width:1.0;"/><!--MD5=[3534e558fd07a48d3cc4ecf333d5cd7e]
@startjson
#highlight "employer_id"
#highlight "employee_id"
#highlight "employee_id" / "id"
#highlight "employer_id" / "id"
{
    "Referral" : "",
    "id" : "int",
    "employer_id" : {
        "Employer" : "",
        "id" : "int",
        "company_name" : "varchar",        
        "first_name" : "varchar",
        "middle_name" : "varchar",
        "last_name"  : "varchar",
        "phone_num" : "varchar",
        "email" : "varchar"
    },
    "message" : "varchar",
    "signature" : "varchar",
    "employee_id" : {
        "Employee" : "",
        "id" : "int",        
        "first_name" : "varchar",
        "middle_name" : "varchar",
        "last_name"  : "varchar",
        "phone_num" : "varchar",
        "email" : "varchar",
        "rui" : "float",        
        "referrals_num" : "int",
        "last_updated" : "timestamp"
    },
    "s_work_time" : "int",
    "s_pressure" : "int",
    "s_ethic" : "int",
    "s_complaints" : "int",
    "s_respect" : "int",
    "s_reliable" : "int",
    "s_task_time" : "int",
    "s_task_complete" : "int",
    "s_task_communicate" : "int",
    "s_task_experience" : "int"
}
@endjson

PlantUML version 1.2022.2beta11(Unknown compile time)
(GPL source distribution)
Java Runtime: Java(TM) SE Runtime Environment
JVM: Java HotSpot(TM) 64-Bit Server VM
Default Encoding: UTF-8
Language: en
Country: US
--></g></svg>
