<?xml version="1.0" encoding="UTF-8" standalone="no"?><svg xmlns="http://www.w3.org/2000/svg" xmlns:xlink="http://www.w3.org/1999/xlink" contentStyleType="text/css" height="483px" preserveAspectRatio="none" style="width:840px;height:483px;background:#FFFFFF;" version="1.1" viewBox="0 0 840 483" width="840px" zoomAndPan="magnify"><defs/><g><text fill="#000000" font-family="sans-serif" font-size="12" lengthAdjust="spacing" textLength="128" x="6" y="17.1387">Employer Information</text><text fill="#000000" font-family="sans-serif" font-size="12" lengthAdjust="spacing" textLength="158" x="6" y="33.1074">Employer unique identifier</text><rect fill="#EEEEEE" height="16.9688" style="stroke:#000000;stroke-width:1.0;" width="143" x="322" y="21.9688"/><text fill="#000000" font-family="sans-serif" font-size="12" lengthAdjust="spacing" textLength="98" x="324" y="35.1074">Select an option</text><line style="stroke:#000000;stroke-width:1.0;" x1="454" x2="454" y1="21.9688" y2="38.9375"/><polygon fill="#000000" points="457,27.9688,463,27.9688,460,33.9375" style="stroke:#000000;stroke-width:1.0;"/><text fill="#000000" font-family="sans-serif" font-size="12" lengthAdjust="spacing" textLength="133" x="521" y="33.1074">Employer: Company X</text><text fill="#000000" font-family="sans-serif" font-size="12" lengthAdjust="spacing" textLength="131" x="6" y="69.0449">Employee Information</text><rect fill="#EEEEEE" height="16.9688" style="stroke:#000000;stroke-width:1.0;" width="143" x="322" y="57.9063"/><text fill="#000000" font-family="sans-serif" font-size="12" lengthAdjust="spacing" textLength="98" x="324" y="71.0449">Select an option</text><line style="stroke:#000000;stroke-width:1.0;" x1="454" x2="454" y1="57.9063" y2="74.875"/><polygon fill="#000000" points="457,63.9063,463,63.9063,460,69.875" style="stroke:#000000;stroke-width:1.0;"/><text fill="#000000" font-family="sans-serif" font-size="12" lengthAdjust="spacing" textLength="130" x="521" y="69.0449">Applicant:    Jane Doe</text><text fill="#000000" font-family="sans-serif" font-size="12" lengthAdjust="spacing" textLength="60" x="6" y="120.9512">Employee</text><text fill="#000000" font-family="sans-serif" font-size="12" lengthAdjust="spacing" textLength="109" x="322" y="120.9512">Strongly Disagree</text><text fill="#000000" font-family="sans-serif" font-size="12" lengthAdjust="spacing" textLength="55" x="433" y="120.9512">Disagree</text><text fill="#000000" font-family="sans-serif" font-size="12" lengthAdjust="spacing" textLength="42" x="521" y="120.9512">Neutral</text><text fill="#000000" font-family="sans-serif" font-size="12" lengthAdjust="spacing" textLength="37" x="656" y="120.9512">Agree</text><text fill="#000000" font-family="sans-serif" font-size="12" lengthAdjust="spacing" textLength="91" x="741" y="120.9512">Strongly Agree</text><text fill="#000000" font-family="sans-serif" font-size="12" lengthAdjust="spacing" textLength="162" x="6" y="152.8887">Shows up to work on time:</text><text fill="#000000" font-family="sans-serif" font-size="12" lengthAdjust="spacing" textLength="7" x="342" y="152.8887">1</text><ellipse cx="329" cy="148.7344" fill="none" rx="5" ry="5" style="stroke:#000000;stroke-width:1.5;"/><ellipse cx="329" cy="148.7344" fill="#000000" rx="2" ry="2" style="stroke:#000000;stroke-width:1.5;"/><text fill="#000000" font-family="sans-serif" font-size="12" lengthAdjust="spacing" textLength="8" x="453" y="152.8887">2</text><ellipse cx="440" cy="148.7344" fill="none" rx="5" ry="5" style="stroke:#000000;stroke-width:1.5;"/><text fill="#000000" font-family="sans-serif" font-size="12" lengthAdjust="spacing" textLength="8" x="541" y="152.8887">3</text><ellipse cx="528" cy="148.7344" fill="none" rx="5" ry="5" style="stroke:#000000;stroke-width:1.5;"/><text fill="#000000" font-family="sans-serif" font-size="12" lengthAdjust="spacing" textLength="8" x="676" y="152.8887">4</text><ellipse cx="663" cy="148.7344" fill="none" rx="5" ry="5" style="stroke:#000000;stroke-width:1.5;"/><text fill="#000000" font-family="sans-serif" font-size="12" lengthAdjust="spacing" textLength="8" x="761" y="152.8887">5</text><ellipse cx="748" cy="148.7344" fill="none" rx="5" ry="5" style="stroke:#000000;stroke-width:1.5;"/><text fill="#000000" font-family="sans-serif" font-size="12" lengthAdjust="spacing" textLength="178" x="6" y="184.8262">Behaves well under pressure</text><text fill="#000000" font-family="sans-serif" font-size="12" lengthAdjust="spacing" textLength="7" x="342" y="184.8262">1</text><ellipse cx="329" cy="180.6719" fill="none" rx="5" ry="5" style="stroke:#000000;stroke-width:1.5;"/><ellipse cx="329" cy="180.6719" fill="#000000" rx="2" ry="2" style="stroke:#000000;stroke-width:1.5;"/><text fill="#000000" font-family="sans-serif" font-size="12" lengthAdjust="spacing" textLength="8" x="453" y="184.8262">2</text><ellipse cx="440" cy="180.6719" fill="none" rx="5" ry="5" style="stroke:#000000;stroke-width:1.5;"/><text fill="#000000" font-family="sans-serif" font-size="12" lengthAdjust="spacing" textLength="8" x="541" y="184.8262">3</text><ellipse cx="528" cy="180.6719" fill="none" rx="5" ry="5" style="stroke:#000000;stroke-width:1.5;"/><text fill="#000000" font-family="sans-serif" font-size="12" lengthAdjust="spacing" textLength="8" x="676" y="184.8262">4</text><ellipse cx="663" cy="180.6719" fill="none" rx="5" ry="5" style="stroke:#000000;stroke-width:1.5;"/><text fill="#000000" font-family="sans-serif" font-size="12" lengthAdjust="spacing" textLength="8" x="761" y="184.8262">5</text><ellipse cx="748" cy="180.6719" fill="none" rx="5" ry="5" style="stroke:#000000;stroke-width:1.5;"/><text fill="#000000" font-family="sans-serif" font-size="12" lengthAdjust="spacing" textLength="154" x="6" y="216.7637">Has exception work ethic</text><text fill="#000000" font-family="sans-serif" font-size="12" lengthAdjust="spacing" textLength="7" x="342" y="216.7637">1</text><ellipse cx="329" cy="212.6094" fill="none" rx="5" ry="5" style="stroke:#000000;stroke-width:1.5;"/><ellipse cx="329" cy="212.6094" fill="#000000" rx="2" ry="2" style="stroke:#000000;stroke-width:1.5;"/><text fill="#000000" font-family="sans-serif" font-size="12" lengthAdjust="spacing" textLength="8" x="453" y="216.7637">2</text><ellipse cx="440" cy="212.6094" fill="none" rx="5" ry="5" style="stroke:#000000;stroke-width:1.5;"/><text fill="#000000" font-family="sans-serif" font-size="12" lengthAdjust="spacing" textLength="8" x="541" y="216.7637">3</text><ellipse cx="528" cy="212.6094" fill="none" rx="5" ry="5" style="stroke:#000000;stroke-width:1.5;"/><text fill="#000000" font-family="sans-serif" font-size="12" lengthAdjust="spacing" textLength="8" x="676" y="216.7637">4</text><ellipse cx="663" cy="212.6094" fill="none" rx="5" ry="5" style="stroke:#000000;stroke-width:1.5;"/><text fill="#000000" font-family="sans-serif" font-size="12" lengthAdjust="spacing" textLength="8" x="761" y="216.7637">5</text><ellipse cx="748" cy="212.6094" fill="none" rx="5" ry="5" style="stroke:#000000;stroke-width:1.5;"/><text fill="#000000" font-family="sans-serif" font-size="12" lengthAdjust="spacing" textLength="275" x="6" y="248.7012">Does not receive complaints from coworkers</text><text fill="#000000" font-family="sans-serif" font-size="12" lengthAdjust="spacing" textLength="7" x="342" y="248.7012">1</text><ellipse cx="329" cy="244.5469" fill="none" rx="5" ry="5" style="stroke:#000000;stroke-width:1.5;"/><ellipse cx="329" cy="244.5469" fill="#000000" rx="2" ry="2" style="stroke:#000000;stroke-width:1.5;"/><text fill="#000000" font-family="sans-serif" font-size="12" lengthAdjust="spacing" textLength="8" x="453" y="248.7012">2</text><ellipse cx="440" cy="244.5469" fill="none" rx="5" ry="5" style="stroke:#000000;stroke-width:1.5;"/><text fill="#000000" font-family="sans-serif" font-size="12" lengthAdjust="spacing" textLength="8" x="541" y="248.7012">3</text><ellipse cx="528" cy="244.5469" fill="none" rx="5" ry="5" style="stroke:#000000;stroke-width:1.5;"/><text fill="#000000" font-family="sans-serif" font-size="12" lengthAdjust="spacing" textLength="8" x="676" y="248.7012">4</text><ellipse cx="663" cy="244.5469" fill="none" rx="5" ry="5" style="stroke:#000000;stroke-width:1.5;"/><text fill="#000000" font-family="sans-serif" font-size="12" lengthAdjust="spacing" textLength="8" x="761" y="248.7012">5</text><ellipse cx="748" cy="244.5469" fill="none" rx="5" ry="5" style="stroke:#000000;stroke-width:1.5;"/><text fill="#000000" font-family="sans-serif" font-size="12" lengthAdjust="spacing" textLength="277" x="6" y="280.6387">Is a well respected member of the workplace</text><text fill="#000000" font-family="sans-serif" font-size="12" lengthAdjust="spacing" textLength="7" x="342" y="280.6387">1</text><ellipse cx="329" cy="276.4844" fill="none" rx="5" ry="5" style="stroke:#000000;stroke-width:1.5;"/><ellipse cx="329" cy="276.4844" fill="#000000" rx="2" ry="2" style="stroke:#000000;stroke-width:1.5;"/><text fill="#000000" font-family="sans-serif" font-size="12" lengthAdjust="spacing" textLength="8" x="453" y="280.6387">2</text><ellipse cx="440" cy="276.4844" fill="none" rx="5" ry="5" style="stroke:#000000;stroke-width:1.5;"/><text fill="#000000" font-family="sans-serif" font-size="12" lengthAdjust="spacing" textLength="8" x="541" y="280.6387">3</text><ellipse cx="528" cy="276.4844" fill="none" rx="5" ry="5" style="stroke:#000000;stroke-width:1.5;"/><text fill="#000000" font-family="sans-serif" font-size="12" lengthAdjust="spacing" textLength="8" x="676" y="280.6387">4</text><ellipse cx="663" cy="276.4844" fill="none" rx="5" ry="5" style="stroke:#000000;stroke-width:1.5;"/><text fill="#000000" font-family="sans-serif" font-size="12" lengthAdjust="spacing" textLength="8" x="761" y="280.6387">5</text><ellipse cx="748" cy="276.4844" fill="none" rx="5" ry="5" style="stroke:#000000;stroke-width:1.5;"/><text fill="#000000" font-family="sans-serif" font-size="12" lengthAdjust="spacing" textLength="234" x="6" y="312.5762">Is a reliable individual in the workplace</text><text fill="#000000" font-family="sans-serif" font-size="12" lengthAdjust="spacing" textLength="7" x="342" y="312.5762">1</text><ellipse cx="329" cy="308.4219" fill="none" rx="5" ry="5" style="stroke:#000000;stroke-width:1.5;"/><ellipse cx="329" cy="308.4219" fill="#000000" rx="2" ry="2" style="stroke:#000000;stroke-width:1.5;"/><text fill="#000000" font-family="sans-serif" font-size="12" lengthAdjust="spacing" textLength="8" x="453" y="312.5762">2</text><ellipse cx="440" cy="308.4219" fill="none" rx="5" ry="5" style="stroke:#000000;stroke-width:1.5;"/><text fill="#000000" font-family="sans-serif" font-size="12" lengthAdjust="spacing" textLength="8" x="541" y="312.5762">3</text><ellipse cx="528" cy="308.4219" fill="none" rx="5" ry="5" style="stroke:#000000;stroke-width:1.5;"/><text fill="#000000" font-family="sans-serif" font-size="12" lengthAdjust="spacing" textLength="8" x="676" y="312.5762">4</text><ellipse cx="663" cy="308.4219" fill="none" rx="5" ry="5" style="stroke:#000000;stroke-width:1.5;"/><text fill="#000000" font-family="sans-serif" font-size="12" lengthAdjust="spacing" textLength="8" x="761" y="312.5762">5</text><ellipse cx="748" cy="308.4219" fill="none" rx="5" ry="5" style="stroke:#000000;stroke-width:1.5;"/><text fill="#000000" font-family="sans-serif" font-size="12" lengthAdjust="spacing" textLength="195" x="6" y="344.5137">Always completes tasks on time</text><text fill="#000000" font-family="sans-serif" font-size="12" lengthAdjust="spacing" textLength="7" x="342" y="344.5137">1</text><ellipse cx="329" cy="340.3594" fill="none" rx="5" ry="5" style="stroke:#000000;stroke-width:1.5;"/><ellipse cx="329" cy="340.3594" fill="#000000" rx="2" ry="2" style="stroke:#000000;stroke-width:1.5;"/><text fill="#000000" font-family="sans-serif" font-size="12" lengthAdjust="spacing" textLength="8" x="453" y="344.5137">2</text><ellipse cx="440" cy="340.3594" fill="none" rx="5" ry="5" style="stroke:#000000;stroke-width:1.5;"/><text fill="#000000" font-family="sans-serif" font-size="12" lengthAdjust="spacing" textLength="8" x="541" y="344.5137">3</text><ellipse cx="528" cy="340.3594" fill="none" rx="5" ry="5" style="stroke:#000000;stroke-width:1.5;"/><text fill="#000000" font-family="sans-serif" font-size="12" lengthAdjust="spacing" textLength="8" x="676" y="344.5137">4</text><ellipse cx="663" cy="340.3594" fill="none" rx="5" ry="5" style="stroke:#000000;stroke-width:1.5;"/><text fill="#000000" font-family="sans-serif" font-size="12" lengthAdjust="spacing" textLength="8" x="761" y="344.5137">5</text><ellipse cx="748" cy="340.3594" fill="none" rx="5" ry="5" style="stroke:#000000;stroke-width:1.5;"/><text fill="#000000" font-family="sans-serif" font-size="12" lengthAdjust="spacing" textLength="233" x="6" y="376.4512">Always fully completes assigned tasks</text><text fill="#000000" font-family="sans-serif" font-size="12" lengthAdjust="spacing" textLength="7" x="342" y="376.4512">1</text><ellipse cx="329" cy="372.2969" fill="none" rx="5" ry="5" style="stroke:#000000;stroke-width:1.5;"/><ellipse cx="329" cy="372.2969" fill="#000000" rx="2" ry="2" style="stroke:#000000;stroke-width:1.5;"/><text fill="#000000" font-family="sans-serif" font-size="12" lengthAdjust="spacing" textLength="8" x="453" y="376.4512">2</text><ellipse cx="440" cy="372.2969" fill="none" rx="5" ry="5" style="stroke:#000000;stroke-width:1.5;"/><text fill="#000000" font-family="sans-serif" font-size="12" lengthAdjust="spacing" textLength="8" x="541" y="376.4512">3</text><ellipse cx="528" cy="372.2969" fill="none" rx="5" ry="5" style="stroke:#000000;stroke-width:1.5;"/><text fill="#000000" font-family="sans-serif" font-size="12" lengthAdjust="spacing" textLength="8" x="676" y="376.4512">4</text><ellipse cx="663" cy="372.2969" fill="none" rx="5" ry="5" style="stroke:#000000;stroke-width:1.5;"/><text fill="#000000" font-family="sans-serif" font-size="12" lengthAdjust="spacing" textLength="8" x="761" y="376.4512">5</text><ellipse cx="748" cy="372.2969" fill="none" rx="5" ry="5" style="stroke:#000000;stroke-width:1.5;"/><text fill="#000000" font-family="sans-serif" font-size="12" lengthAdjust="spacing" textLength="187" x="6" y="408.3887">Has great communication skills</text><text fill="#000000" font-family="sans-serif" font-size="12" lengthAdjust="spacing" textLength="7" x="342" y="408.3887">1</text><ellipse cx="329" cy="404.2344" fill="none" rx="5" ry="5" style="stroke:#000000;stroke-width:1.5;"/><ellipse cx="329" cy="404.2344" fill="#000000" rx="2" ry="2" style="stroke:#000000;stroke-width:1.5;"/><text fill="#000000" font-family="sans-serif" font-size="12" lengthAdjust="spacing" textLength="8" x="453" y="408.3887">2</text><ellipse cx="440" cy="404.2344" fill="none" rx="5" ry="5" style="stroke:#000000;stroke-width:1.5;"/><text fill="#000000" font-family="sans-serif" font-size="12" lengthAdjust="spacing" textLength="8" x="541" y="408.3887">3</text><ellipse cx="528" cy="404.2344" fill="none" rx="5" ry="5" style="stroke:#000000;stroke-width:1.5;"/><text fill="#000000" font-family="sans-serif" font-size="12" lengthAdjust="spacing" textLength="8" x="676" y="408.3887">4</text><ellipse cx="663" cy="404.2344" fill="none" rx="5" ry="5" style="stroke:#000000;stroke-width:1.5;"/><text fill="#000000" font-family="sans-serif" font-size="12" lengthAdjust="spacing" textLength="8" x="761" y="408.3887">5</text><ellipse cx="748" cy="404.2344" fill="none" rx="5" ry="5" style="stroke:#000000;stroke-width:1.5;"/><text fill="#000000" font-family="sans-serif" font-size="12" lengthAdjust="spacing" textLength="185" x="6" y="440.3262">Are they a full-time employee?</text><text fill="#000000" font-family="sans-serif" font-size="12" lengthAdjust="spacing" textLength="50" x="342" y="440.3262">Full time</text><ellipse cx="329" cy="436.1719" fill="none" rx="5" ry="5" style="stroke:#000000;stroke-width:1.5;"/><ellipse cx="329" cy="436.1719" fill="#000000" rx="2" ry="2" style="stroke:#000000;stroke-width:1.5;"/><text fill="#000000" font-family="sans-serif" font-size="12" lengthAdjust="spacing" textLength="52" x="453" y="440.3262">Part time</text><ellipse cx="440" cy="436.1719" fill="none" rx="5" ry="5" style="stroke:#000000;stroke-width:1.5;"/><text fill="#000000" font-family="sans-serif" font-size="12" lengthAdjust="spacing" textLength="314" x="6" y="472.2637">Have long have they been working for the company</text><text fill="#000000" font-family="sans-serif" font-size="12" lengthAdjust="spacing" textLength="84" x="342" y="472.2637">1 year or less</text><ellipse cx="329" cy="468.1094" fill="none" rx="5" ry="5" style="stroke:#000000;stroke-width:1.5;"/><ellipse cx="329" cy="468.1094" fill="#000000" rx="2" ry="2" style="stroke:#000000;stroke-width:1.5;"/><text fill="#000000" font-family="sans-serif" font-size="12" lengthAdjust="spacing" textLength="66" x="453" y="472.2637">1 - 5 years</text><ellipse cx="440" cy="468.1094" fill="none" rx="5" ry="5" style="stroke:#000000;stroke-width:1.5;"/><text fill="#000000" font-family="sans-serif" font-size="12" lengthAdjust="spacing" textLength="74" x="541" y="472.2637">5 - 10 years</text><ellipse cx="528" cy="468.1094" fill="none" rx="5" ry="5" style="stroke:#000000;stroke-width:1.5;"/><text fill="#000000" font-family="sans-serif" font-size="12" lengthAdjust="spacing" textLength="63" x="676" y="472.2637">10+ years</text><ellipse cx="663" cy="468.1094" fill="none" rx="5" ry="5" style="stroke:#000000;stroke-width:1.5;"/><line style="stroke:#000000;stroke-width:1.0;" x1="5" x2="321" y1="5" y2="5"/><line style="stroke:#000000;stroke-width:1.0;" x1="321" x2="432" y1="5" y2="5"/><line style="stroke:#000000;stroke-width:1.0;" x1="432" x2="520" y1="5" y2="5"/><line style="stroke:#000000;stroke-width:1.0;" x1="520" x2="655" y1="5" y2="5"/><line style="stroke:#000000;stroke-width:1.0;" x1="655" x2="740" y1="5" y2="5"/><line style="stroke:#000000;stroke-width:1.0;" x1="740" x2="833" y1="5" y2="5"/><line style="stroke:#000000;stroke-width:1.0;" x1="5" x2="321" y1="188.6563" y2="188.6563"/><line style="stroke:#000000;stroke-width:1.0;" x1="321" x2="432" y1="188.6563" y2="188.6563"/><line style="stroke:#000000;stroke-width:1.0;" x1="432" x2="520" y1="188.6563" y2="188.6563"/><line style="stroke:#000000;stroke-width:1.0;" x1="520" x2="655" y1="188.6563" y2="188.6563"/><line style="stroke:#000000;stroke-width:1.0;" x1="655" x2="740" y1="188.6563" y2="188.6563"/><line style="stroke:#000000;stroke-width:1.0;" x1="740" x2="833" y1="188.6563" y2="188.6563"/><line style="stroke:#000000;stroke-width:1.0;" x1="5" x2="321" y1="364.3125" y2="364.3125"/><line style="stroke:#000000;stroke-width:1.0;" x1="321" x2="432" y1="364.3125" y2="364.3125"/><line style="stroke:#000000;stroke-width:1.0;" x1="432" x2="520" y1="364.3125" y2="364.3125"/><line style="stroke:#000000;stroke-width:1.0;" x1="520" x2="655" y1="364.3125" y2="364.3125"/><line style="stroke:#000000;stroke-width:1.0;" x1="655" x2="740" y1="364.3125" y2="364.3125"/><line style="stroke:#000000;stroke-width:1.0;" x1="740" x2="833" y1="364.3125" y2="364.3125"/><line style="stroke:#000000;stroke-width:1.0;" x1="5" x2="321" y1="108.8125" y2="108.8125"/><line style="stroke:#000000;stroke-width:1.0;" x1="321" x2="432" y1="108.8125" y2="108.8125"/><line style="stroke:#000000;stroke-width:1.0;" x1="432" x2="520" y1="108.8125" y2="108.8125"/><line style="stroke:#000000;stroke-width:1.0;" x1="520" x2="655" y1="108.8125" y2="108.8125"/><line style="stroke:#000000;stroke-width:1.0;" x1="655" x2="740" y1="108.8125" y2="108.8125"/><line style="stroke:#000000;stroke-width:1.0;" x1="740" x2="833" y1="108.8125" y2="108.8125"/><line style="stroke:#000000;stroke-width:1.0;" x1="5" x2="321" y1="284.4688" y2="284.4688"/><line style="stroke:#000000;stroke-width:1.0;" x1="321" x2="432" y1="284.4688" y2="284.4688"/><line style="stroke:#000000;stroke-width:1.0;" x1="432" x2="520" y1="284.4688" y2="284.4688"/><line style="stroke:#000000;stroke-width:1.0;" x1="520" x2="655" y1="284.4688" y2="284.4688"/><line style="stroke:#000000;stroke-width:1.0;" x1="655" x2="740" y1="284.4688" y2="284.4688"/><line style="stroke:#000000;stroke-width:1.0;" x1="740" x2="833" y1="284.4688" y2="284.4688"/><line style="stroke:#000000;stroke-width:1.0;" x1="5" x2="321" y1="460.125" y2="460.125"/><line style="stroke:#000000;stroke-width:1.0;" x1="321" x2="432" y1="460.125" y2="460.125"/><line style="stroke:#000000;stroke-width:1.0;" x1="432" x2="520" y1="460.125" y2="460.125"/><line style="stroke:#000000;stroke-width:1.0;" x1="520" x2="655" y1="460.125" y2="460.125"/><line style="stroke:#000000;stroke-width:1.0;" x1="655" x2="740" y1="460.125" y2="460.125"/><line style="stroke:#000000;stroke-width:1.0;" x1="740" x2="833" y1="460.125" y2="460.125"/><line style="stroke:#000000;stroke-width:1.0;" x1="5" x2="321" y1="20.9688" y2="20.9688"/><line style="stroke:#000000;stroke-width:1.0;" x1="321" x2="432" y1="20.9688" y2="20.9688"/><line style="stroke:#000000;stroke-width:1.0;" x1="432" x2="520" y1="20.9688" y2="20.9688"/><line style="stroke:#000000;stroke-width:1.0;" x1="520" x2="655" y1="20.9688" y2="20.9688"/><line style="stroke:#000000;stroke-width:1.0;" x1="655" x2="740" y1="20.9688" y2="20.9688"/><line style="stroke:#000000;stroke-width:1.0;" x1="5" x2="321" y1="204.625" y2="204.625"/><line style="stroke:#000000;stroke-width:1.0;" x1="321" x2="432" y1="204.625" y2="204.625"/><line style="stroke:#000000;stroke-width:1.0;" x1="432" x2="520" y1="204.625" y2="204.625"/><line style="stroke:#000000;stroke-width:1.0;" x1="520" x2="655" y1="204.625" y2="204.625"/><line style="stroke:#000000;stroke-width:1.0;" x1="655" x2="740" y1="204.625" y2="204.625"/><line style="stroke:#000000;stroke-width:1.0;" x1="740" x2="833" y1="204.625" y2="204.625"/><line style="stroke:#000000;stroke-width:1.0;" x1="5" x2="321" y1="380.2813" y2="380.2813"/><line style="stroke:#000000;stroke-width:1.0;" x1="321" x2="432" y1="380.2813" y2="380.2813"/><line style="stroke:#000000;stroke-width:1.0;" x1="432" x2="520" y1="380.2813" y2="380.2813"/><line style="stroke:#000000;stroke-width:1.0;" x1="520" x2="655" y1="380.2813" y2="380.2813"/><line style="stroke:#000000;stroke-width:1.0;" x1="655" x2="740" y1="380.2813" y2="380.2813"/><line style="stroke:#000000;stroke-width:1.0;" x1="740" x2="833" y1="380.2813" y2="380.2813"/><line style="stroke:#000000;stroke-width:1.0;" x1="5" x2="321" y1="124.7813" y2="124.7813"/><line style="stroke:#000000;stroke-width:1.0;" x1="321" x2="432" y1="124.7813" y2="124.7813"/><line style="stroke:#000000;stroke-width:1.0;" x1="432" x2="520" y1="124.7813" y2="124.7813"/><line style="stroke:#000000;stroke-width:1.0;" x1="520" x2="655" y1="124.7813" y2="124.7813"/><line style="stroke:#000000;stroke-width:1.0;" x1="655" x2="740" y1="124.7813" y2="124.7813"/><line style="stroke:#000000;stroke-width:1.0;" x1="740" x2="833" y1="124.7813" y2="124.7813"/><line style="stroke:#000000;stroke-width:1.0;" x1="5" x2="321" y1="300.4375" y2="300.4375"/><line style="stroke:#000000;stroke-width:1.0;" x1="321" x2="432" y1="300.4375" y2="300.4375"/><line style="stroke:#000000;stroke-width:1.0;" x1="432" x2="520" y1="300.4375" y2="300.4375"/><line style="stroke:#000000;stroke-width:1.0;" x1="520" x2="655" y1="300.4375" y2="300.4375"/><line style="stroke:#000000;stroke-width:1.0;" x1="655" x2="740" y1="300.4375" y2="300.4375"/><line style="stroke:#000000;stroke-width:1.0;" x1="5" x2="321" y1="476.0938" y2="476.0938"/><line style="stroke:#000000;stroke-width:1.0;" x1="740" x2="833" y1="300.4375" y2="300.4375"/><line style="stroke:#000000;stroke-width:1.0;" x1="321" x2="432" y1="476.0938" y2="476.0938"/><line style="stroke:#000000;stroke-width:1.0;" x1="432" x2="520" y1="476.0938" y2="476.0938"/><line style="stroke:#000000;stroke-width:1.0;" x1="520" x2="655" y1="476.0938" y2="476.0938"/><line style="stroke:#000000;stroke-width:1.0;" x1="655" x2="740" y1="476.0938" y2="476.0938"/><line style="stroke:#000000;stroke-width:1.0;" x1="740" x2="833" y1="476.0938" y2="476.0938"/><line style="stroke:#000000;stroke-width:1.0;" x1="5" x2="321" y1="40.9375" y2="40.9375"/><line style="stroke:#000000;stroke-width:1.0;" x1="321" x2="432" y1="40.9375" y2="40.9375"/><line style="stroke:#000000;stroke-width:1.0;" x1="432" x2="520" y1="40.9375" y2="40.9375"/><line style="stroke:#000000;stroke-width:1.0;" x1="520" x2="655" y1="40.9375" y2="40.9375"/><line style="stroke:#000000;stroke-width:1.0;" x1="5" x2="321" y1="220.5938" y2="220.5938"/><line style="stroke:#000000;stroke-width:1.0;" x1="321" x2="432" y1="220.5938" y2="220.5938"/><line style="stroke:#000000;stroke-width:1.0;" x1="432" x2="520" y1="220.5938" y2="220.5938"/><line style="stroke:#000000;stroke-width:1.0;" x1="520" x2="655" y1="220.5938" y2="220.5938"/><line style="stroke:#000000;stroke-width:1.0;" x1="655" x2="740" y1="220.5938" y2="220.5938"/><line style="stroke:#000000;stroke-width:1.0;" x1="740" x2="833" y1="220.5938" y2="220.5938"/><line style="stroke:#000000;stroke-width:1.0;" x1="5" x2="321" y1="396.25" y2="396.25"/><line style="stroke:#000000;stroke-width:1.0;" x1="321" x2="432" y1="396.25" y2="396.25"/><line style="stroke:#000000;stroke-width:1.0;" x1="432" x2="520" y1="396.25" y2="396.25"/><line style="stroke:#000000;stroke-width:1.0;" x1="520" x2="655" y1="396.25" y2="396.25"/><line style="stroke:#000000;stroke-width:1.0;" x1="655" x2="740" y1="396.25" y2="396.25"/><line style="stroke:#000000;stroke-width:1.0;" x1="740" x2="833" y1="396.25" y2="396.25"/><line style="stroke:#000000;stroke-width:1.0;" x1="5" x2="321" y1="140.75" y2="140.75"/><line style="stroke:#000000;stroke-width:1.0;" x1="321" x2="432" y1="140.75" y2="140.75"/><line style="stroke:#000000;stroke-width:1.0;" x1="432" x2="520" y1="140.75" y2="140.75"/><line style="stroke:#000000;stroke-width:1.0;" x1="520" x2="655" y1="140.75" y2="140.75"/><line style="stroke:#000000;stroke-width:1.0;" x1="655" x2="740" y1="140.75" y2="140.75"/><line style="stroke:#000000;stroke-width:1.0;" x1="740" x2="833" y1="140.75" y2="140.75"/><line style="stroke:#000000;stroke-width:1.0;" x1="5" x2="321" y1="316.4063" y2="316.4063"/><line style="stroke:#000000;stroke-width:1.0;" x1="321" x2="432" y1="316.4063" y2="316.4063"/><line style="stroke:#000000;stroke-width:1.0;" x1="432" x2="520" y1="316.4063" y2="316.4063"/><line style="stroke:#000000;stroke-width:1.0;" x1="520" x2="655" y1="316.4063" y2="316.4063"/><line style="stroke:#000000;stroke-width:1.0;" x1="655" x2="740" y1="316.4063" y2="316.4063"/><line style="stroke:#000000;stroke-width:1.0;" x1="740" x2="833" y1="316.4063" y2="316.4063"/><line style="stroke:#000000;stroke-width:1.0;" x1="5" x2="321" y1="56.9063" y2="56.9063"/><line style="stroke:#000000;stroke-width:1.0;" x1="321" x2="432" y1="56.9063" y2="56.9063"/><line style="stroke:#000000;stroke-width:1.0;" x1="432" x2="520" y1="56.9063" y2="56.9063"/><line style="stroke:#000000;stroke-width:1.0;" x1="520" x2="655" y1="56.9063" y2="56.9063"/><line style="stroke:#000000;stroke-width:1.0;" x1="5" x2="321" y1="236.5625" y2="236.5625"/><line style="stroke:#000000;stroke-width:1.0;" x1="321" x2="432" y1="236.5625" y2="236.5625"/><line style="stroke:#000000;stroke-width:1.0;" x1="432" x2="520" y1="236.5625" y2="236.5625"/><line style="stroke:#000000;stroke-width:1.0;" x1="520" x2="655" y1="236.5625" y2="236.5625"/><line style="stroke:#000000;stroke-width:1.0;" x1="655" x2="740" y1="236.5625" y2="236.5625"/><line style="stroke:#000000;stroke-width:1.0;" x1="740" x2="833" y1="236.5625" y2="236.5625"/><line style="stroke:#000000;stroke-width:1.0;" x1="5" x2="321" y1="412.2188" y2="412.2188"/><line style="stroke:#000000;stroke-width:1.0;" x1="321" x2="432" y1="412.2188" y2="412.2188"/><line style="stroke:#000000;stroke-width:1.0;" x1="432" x2="520" y1="412.2188" y2="412.2188"/><line style="stroke:#000000;stroke-width:1.0;" x1="520" x2="655" y1="412.2188" y2="412.2188"/><line style="stroke:#000000;stroke-width:1.0;" x1="655" x2="740" y1="412.2188" y2="412.2188"/><line style="stroke:#000000;stroke-width:1.0;" x1="740" x2="833" y1="412.2188" y2="412.2188"/><line style="stroke:#000000;stroke-width:1.0;" x1="5" x2="321" y1="156.7188" y2="156.7188"/><line style="stroke:#000000;stroke-width:1.0;" x1="321" x2="432" y1="156.7188" y2="156.7188"/><line style="stroke:#000000;stroke-width:1.0;" x1="432" x2="520" y1="156.7188" y2="156.7188"/><line style="stroke:#000000;stroke-width:1.0;" x1="520" x2="655" y1="156.7188" y2="156.7188"/><line style="stroke:#000000;stroke-width:1.0;" x1="655" x2="740" y1="156.7188" y2="156.7188"/><line style="stroke:#000000;stroke-width:1.0;" x1="740" x2="833" y1="156.7188" y2="156.7188"/><line style="stroke:#000000;stroke-width:1.0;" x1="5" x2="321" y1="332.375" y2="332.375"/><line style="stroke:#000000;stroke-width:1.0;" x1="321" x2="432" y1="332.375" y2="332.375"/><line style="stroke:#000000;stroke-width:1.0;" x1="432" x2="520" y1="332.375" y2="332.375"/><line style="stroke:#000000;stroke-width:1.0;" x1="520" x2="655" y1="332.375" y2="332.375"/><line style="stroke:#000000;stroke-width:1.0;" x1="655" x2="740" y1="332.375" y2="332.375"/><line style="stroke:#000000;stroke-width:1.0;" x1="740" x2="833" y1="332.375" y2="332.375"/><line style="stroke:#000000;stroke-width:1.0;" x1="5" x2="321" y1="76.875" y2="76.875"/><line style="stroke:#000000;stroke-width:1.0;" x1="321" x2="432" y1="76.875" y2="76.875"/><line style="stroke:#000000;stroke-width:1.0;" x1="432" x2="520" y1="76.875" y2="76.875"/><line style="stroke:#000000;stroke-width:1.0;" x1="520" x2="655" y1="76.875" y2="76.875"/><line style="stroke:#000000;stroke-width:1.0;" x1="5" x2="321" y1="252.5313" y2="252.5313"/><line style="stroke:#000000;stroke-width:1.0;" x1="321" x2="432" y1="252.5313" y2="252.5313"/><line style="stroke:#000000;stroke-width:1.0;" x1="432" x2="520" y1="252.5313" y2="252.5313"/><line style="stroke:#000000;stroke-width:1.0;" x1="520" x2="655" y1="252.5313" y2="252.5313"/><line style="stroke:#000000;stroke-width:1.0;" x1="655" x2="740" y1="252.5313" y2="252.5313"/><line style="stroke:#000000;stroke-width:1.0;" x1="740" x2="833" y1="252.5313" y2="252.5313"/><line style="stroke:#000000;stroke-width:1.0;" x1="5" x2="321" y1="428.1875" y2="428.1875"/><line style="stroke:#000000;stroke-width:1.0;" x1="321" x2="432" y1="428.1875" y2="428.1875"/><line style="stroke:#000000;stroke-width:1.0;" x1="432" x2="520" y1="428.1875" y2="428.1875"/><line style="stroke:#000000;stroke-width:1.0;" x1="5" x2="321" y1="172.6875" y2="172.6875"/><line style="stroke:#000000;stroke-width:1.0;" x1="321" x2="432" y1="172.6875" y2="172.6875"/><line style="stroke:#000000;stroke-width:1.0;" x1="432" x2="520" y1="172.6875" y2="172.6875"/><line style="stroke:#000000;stroke-width:1.0;" x1="520" x2="655" y1="172.6875" y2="172.6875"/><line style="stroke:#000000;stroke-width:1.0;" x1="655" x2="740" y1="172.6875" y2="172.6875"/><line style="stroke:#000000;stroke-width:1.0;" x1="740" x2="833" y1="172.6875" y2="172.6875"/><line style="stroke:#000000;stroke-width:1.0;" x1="5" x2="321" y1="348.3438" y2="348.3438"/><line style="stroke:#000000;stroke-width:1.0;" x1="321" x2="432" y1="348.3438" y2="348.3438"/><line style="stroke:#000000;stroke-width:1.0;" x1="432" x2="520" y1="348.3438" y2="348.3438"/><line style="stroke:#000000;stroke-width:1.0;" x1="520" x2="655" y1="348.3438" y2="348.3438"/><line style="stroke:#000000;stroke-width:1.0;" x1="655" x2="740" y1="348.3438" y2="348.3438"/><line style="stroke:#000000;stroke-width:1.0;" x1="740" x2="833" y1="348.3438" y2="348.3438"/><line style="stroke:#000000;stroke-width:1.0;" x1="5" x2="321" y1="92.8438" y2="92.8438"/><line style="stroke:#000000;stroke-width:1.0;" x1="5" x2="321" y1="268.5" y2="268.5"/><line style="stroke:#000000;stroke-width:1.0;" x1="321" x2="432" y1="268.5" y2="268.5"/><line style="stroke:#000000;stroke-width:1.0;" x1="432" x2="520" y1="268.5" y2="268.5"/><line style="stroke:#000000;stroke-width:1.0;" x1="520" x2="655" y1="268.5" y2="268.5"/><line style="stroke:#000000;stroke-width:1.0;" x1="655" x2="740" y1="268.5" y2="268.5"/><line style="stroke:#000000;stroke-width:1.0;" x1="740" x2="833" y1="268.5" y2="268.5"/><line style="stroke:#000000;stroke-width:1.0;" x1="5" x2="321" y1="444.1563" y2="444.1563"/><line style="stroke:#000000;stroke-width:1.0;" x1="321" x2="432" y1="444.1563" y2="444.1563"/><line style="stroke:#000000;stroke-width:1.0;" x1="432" x2="520" y1="444.1563" y2="444.1563"/><line style="stroke:#000000;stroke-width:1.0;" x1="5" x2="5" y1="5" y2="20.9688"/><line style="stroke:#000000;stroke-width:1.0;" x1="5" x2="5" y1="188.6563" y2="204.625"/><line style="stroke:#000000;stroke-width:1.0;" x1="740" x2="740" y1="5" y2="20.9688"/><line style="stroke:#000000;stroke-width:1.0;" x1="833" x2="833" y1="5" y2="20.9688"/><line style="stroke:#000000;stroke-width:1.0;" x1="321" x2="321" y1="188.6563" y2="204.625"/><line style="stroke:#000000;stroke-width:1.0;" x1="5" x2="5" y1="364.3125" y2="380.2813"/><line style="stroke:#000000;stroke-width:1.0;" x1="833" x2="833" y1="188.6563" y2="204.625"/><line style="stroke:#000000;stroke-width:1.0;" x1="321" x2="321" y1="364.3125" y2="380.2813"/><line style="stroke:#000000;stroke-width:1.0;" x1="432" x2="432" y1="364.3125" y2="380.2813"/><line style="stroke:#000000;stroke-width:1.0;" x1="520" x2="520" y1="364.3125" y2="380.2813"/><line style="stroke:#000000;stroke-width:1.0;" x1="655" x2="655" y1="364.3125" y2="380.2813"/><line style="stroke:#000000;stroke-width:1.0;" x1="740" x2="740" y1="364.3125" y2="380.2813"/><line style="stroke:#000000;stroke-width:1.0;" x1="833" x2="833" y1="364.3125" y2="380.2813"/><line style="stroke:#000000;stroke-width:1.0;" x1="5" x2="5" y1="108.8125" y2="124.7813"/><line style="stroke:#000000;stroke-width:1.0;" x1="321" x2="321" y1="108.8125" y2="124.7813"/><line style="stroke:#000000;stroke-width:1.0;" x1="432" x2="432" y1="108.8125" y2="124.7813"/><line style="stroke:#000000;stroke-width:1.0;" x1="520" x2="520" y1="108.8125" y2="124.7813"/><line style="stroke:#000000;stroke-width:1.0;" x1="655" x2="655" y1="108.8125" y2="124.7813"/><line style="stroke:#000000;stroke-width:1.0;" x1="5" x2="5" y1="284.4688" y2="300.4375"/><line style="stroke:#000000;stroke-width:1.0;" x1="740" x2="740" y1="108.8125" y2="124.7813"/><line style="stroke:#000000;stroke-width:1.0;" x1="833" x2="833" y1="108.8125" y2="124.7813"/><line style="stroke:#000000;stroke-width:1.0;" x1="321" x2="321" y1="284.4688" y2="300.4375"/><line style="stroke:#000000;stroke-width:1.0;" x1="5" x2="5" y1="460.125" y2="476.0938"/><line style="stroke:#000000;stroke-width:1.0;" x1="833" x2="833" y1="284.4688" y2="300.4375"/><line style="stroke:#000000;stroke-width:1.0;" x1="321" x2="321" y1="460.125" y2="476.0938"/><line style="stroke:#000000;stroke-width:1.0;" x1="432" x2="432" y1="460.125" y2="476.0938"/><line style="stroke:#000000;stroke-width:1.0;" x1="520" x2="520" y1="460.125" y2="476.0938"/><line style="stroke:#000000;stroke-width:1.0;" x1="655" x2="655" y1="460.125" y2="476.0938"/><line style="stroke:#000000;stroke-width:1.0;" x1="740" x2="740" y1="460.125" y2="476.0938"/><line style="stroke:#000000;stroke-width:1.0;" x1="833" x2="833" y1="460.125" y2="476.0938"/><line style="stroke:#000000;stroke-width:1.0;" x1="5" x2="5" y1="20.9688" y2="40.9375"/><line style="stroke:#000000;stroke-width:1.0;" x1="321" x2="321" y1="20.9688" y2="40.9375"/><line style="stroke:#000000;stroke-width:1.0;" x1="520" x2="520" y1="20.9688" y2="40.9375"/><line style="stroke:#000000;stroke-width:1.0;" x1="655" x2="655" y1="20.9688" y2="40.9375"/><line style="stroke:#000000;stroke-width:1.0;" x1="5" x2="5" y1="204.625" y2="220.5938"/><line style="stroke:#000000;stroke-width:1.0;" x1="833" x2="833" y1="20.9688" y2="40.9375"/><line style="stroke:#000000;stroke-width:1.0;" x1="321" x2="321" y1="204.625" y2="220.5938"/><line style="stroke:#000000;stroke-width:1.0;" x1="432" x2="432" y1="204.625" y2="220.5938"/><line style="stroke:#000000;stroke-width:1.0;" x1="520" x2="520" y1="204.625" y2="220.5938"/><line style="stroke:#000000;stroke-width:1.0;" x1="655" x2="655" y1="204.625" y2="220.5938"/><line style="stroke:#000000;stroke-width:1.0;" x1="5" x2="5" y1="380.2813" y2="396.25"/><line style="stroke:#000000;stroke-width:1.0;" x1="740" x2="740" y1="204.625" y2="220.5938"/><line style="stroke:#000000;stroke-width:1.0;" x1="833" x2="833" y1="204.625" y2="220.5938"/><line style="stroke:#000000;stroke-width:1.0;" x1="321" x2="321" y1="380.2813" y2="396.25"/><line style="stroke:#000000;stroke-width:1.0;" x1="833" x2="833" y1="380.2813" y2="396.25"/><line style="stroke:#000000;stroke-width:1.0;" x1="5" x2="5" y1="124.7813" y2="140.75"/><line style="stroke:#000000;stroke-width:1.0;" x1="321" x2="321" y1="124.7813" y2="140.75"/><line style="stroke:#000000;stroke-width:1.0;" x1="5" x2="5" y1="300.4375" y2="316.4063"/><line style="stroke:#000000;stroke-width:1.0;" x1="833" x2="833" y1="124.7813" y2="140.75"/><line style="stroke:#000000;stroke-width:1.0;" x1="321" x2="321" y1="300.4375" y2="316.4063"/><line style="stroke:#000000;stroke-width:1.0;" x1="432" x2="432" y1="300.4375" y2="316.4063"/><line style="stroke:#000000;stroke-width:1.0;" x1="520" x2="520" y1="300.4375" y2="316.4063"/><line style="stroke:#000000;stroke-width:1.0;" x1="655" x2="655" y1="300.4375" y2="316.4063"/><line style="stroke:#000000;stroke-width:1.0;" x1="740" x2="740" y1="300.4375" y2="316.4063"/><line style="stroke:#000000;stroke-width:1.0;" x1="833" x2="833" y1="300.4375" y2="316.4063"/><line style="stroke:#000000;stroke-width:1.0;" x1="5" x2="5" y1="40.9375" y2="56.9063"/><line style="stroke:#000000;stroke-width:1.0;" x1="321" x2="321" y1="40.9375" y2="56.9063"/><line style="stroke:#000000;stroke-width:1.0;" x1="5" x2="5" y1="220.5938" y2="236.5625"/><line style="stroke:#000000;stroke-width:1.0;" x1="833" x2="833" y1="40.9375" y2="56.9063"/><line style="stroke:#000000;stroke-width:1.0;" x1="321" x2="321" y1="220.5938" y2="236.5625"/><line style="stroke:#000000;stroke-width:1.0;" x1="5" x2="5" y1="396.25" y2="412.2188"/><line style="stroke:#000000;stroke-width:1.0;" x1="833" x2="833" y1="220.5938" y2="236.5625"/><line style="stroke:#000000;stroke-width:1.0;" x1="321" x2="321" y1="396.25" y2="412.2188"/><line style="stroke:#000000;stroke-width:1.0;" x1="432" x2="432" y1="396.25" y2="412.2188"/><line style="stroke:#000000;stroke-width:1.0;" x1="520" x2="520" y1="396.25" y2="412.2188"/><line style="stroke:#000000;stroke-width:1.0;" x1="655" x2="655" y1="396.25" y2="412.2188"/><line style="stroke:#000000;stroke-width:1.0;" x1="740" x2="740" y1="396.25" y2="412.2188"/><line style="stroke:#000000;stroke-width:1.0;" x1="833" x2="833" y1="396.25" y2="412.2188"/><line style="stroke:#000000;stroke-width:1.0;" x1="5" x2="5" y1="140.75" y2="156.7188"/><line style="stroke:#000000;stroke-width:1.0;" x1="321" x2="321" y1="140.75" y2="156.7188"/><line style="stroke:#000000;stroke-width:1.0;" x1="432" x2="432" y1="140.75" y2="156.7188"/><line style="stroke:#000000;stroke-width:1.0;" x1="520" x2="520" y1="140.75" y2="156.7188"/><line style="stroke:#000000;stroke-width:1.0;" x1="655" x2="655" y1="140.75" y2="156.7188"/><line style="stroke:#000000;stroke-width:1.0;" x1="5" x2="5" y1="316.4063" y2="332.375"/><line style="stroke:#000000;stroke-width:1.0;" x1="740" x2="740" y1="140.75" y2="156.7188"/><line style="stroke:#000000;stroke-width:1.0;" x1="833" x2="833" y1="140.75" y2="156.7188"/><line style="stroke:#000000;stroke-width:1.0;" x1="321" x2="321" y1="316.4063" y2="332.375"/><line style="stroke:#000000;stroke-width:1.0;" x1="833" x2="833" y1="316.4063" y2="332.375"/><line style="stroke:#000000;stroke-width:1.0;" x1="5" x2="5" y1="56.9063" y2="76.875"/><line style="stroke:#000000;stroke-width:1.0;" x1="321" x2="321" y1="56.9063" y2="76.875"/><line style="stroke:#000000;stroke-width:1.0;" x1="520" x2="520" y1="56.9063" y2="76.875"/><line style="stroke:#000000;stroke-width:1.0;" x1="655" x2="655" y1="56.9063" y2="76.875"/><line style="stroke:#000000;stroke-width:1.0;" x1="5" x2="5" y1="236.5625" y2="252.5313"/><line style="stroke:#000000;stroke-width:1.0;" x1="833" x2="833" y1="56.9063" y2="76.875"/><line style="stroke:#000000;stroke-width:1.0;" x1="321" x2="321" y1="236.5625" y2="252.5313"/><line style="stroke:#000000;stroke-width:1.0;" x1="432" x2="432" y1="236.5625" y2="252.5313"/><line style="stroke:#000000;stroke-width:1.0;" x1="520" x2="520" y1="236.5625" y2="252.5313"/><line style="stroke:#000000;stroke-width:1.0;" x1="655" x2="655" y1="236.5625" y2="252.5313"/><line style="stroke:#000000;stroke-width:1.0;" x1="5" x2="5" y1="412.2188" y2="428.1875"/><line style="stroke:#000000;stroke-width:1.0;" x1="740" x2="740" y1="236.5625" y2="252.5313"/><line style="stroke:#000000;stroke-width:1.0;" x1="833" x2="833" y1="236.5625" y2="252.5313"/><line style="stroke:#000000;stroke-width:1.0;" x1="321" x2="321" y1="412.2188" y2="428.1875"/><line style="stroke:#000000;stroke-width:1.0;" x1="833" x2="833" y1="412.2188" y2="428.1875"/><line style="stroke:#000000;stroke-width:1.0;" x1="5" x2="5" y1="156.7188" y2="172.6875"/><line style="stroke:#000000;stroke-width:1.0;" x1="321" x2="321" y1="156.7188" y2="172.6875"/><line style="stroke:#000000;stroke-width:1.0;" x1="5" x2="5" y1="332.375" y2="348.3438"/><line style="stroke:#000000;stroke-width:1.0;" x1="833" x2="833" y1="156.7188" y2="172.6875"/><line style="stroke:#000000;stroke-width:1.0;" x1="321" x2="321" y1="332.375" y2="348.3438"/><line style="stroke:#000000;stroke-width:1.0;" x1="432" x2="432" y1="332.375" y2="348.3438"/><line style="stroke:#000000;stroke-width:1.0;" x1="520" x2="520" y1="332.375" y2="348.3438"/><line style="stroke:#000000;stroke-width:1.0;" x1="655" x2="655" y1="332.375" y2="348.3438"/><line style="stroke:#000000;stroke-width:1.0;" x1="740" x2="740" y1="332.375" y2="348.3438"/><line style="stroke:#000000;stroke-width:1.0;" x1="833" x2="833" y1="332.375" y2="348.3438"/><line style="stroke:#000000;stroke-width:1.0;" x1="5" x2="5" y1="76.875" y2="92.8438"/><line style="stroke:#000000;stroke-width:1.0;" x1="321" x2="321" y1="76.875" y2="92.8438"/><line style="stroke:#000000;stroke-width:1.0;" x1="5" x2="5" y1="252.5313" y2="268.5"/><line style="stroke:#000000;stroke-width:1.0;" x1="833" x2="833" y1="76.875" y2="92.8438"/><line style="stroke:#000000;stroke-width:1.0;" x1="321" x2="321" y1="252.5313" y2="268.5"/><line style="stroke:#000000;stroke-width:1.0;" x1="5" x2="5" y1="428.1875" y2="444.1563"/><line style="stroke:#000000;stroke-width:1.0;" x1="833" x2="833" y1="252.5313" y2="268.5"/><line style="stroke:#000000;stroke-width:1.0;" x1="321" x2="321" y1="428.1875" y2="444.1563"/><line style="stroke:#000000;stroke-width:1.0;" x1="432" x2="432" y1="428.1875" y2="444.1563"/><line style="stroke:#000000;stroke-width:1.0;" x1="520" x2="520" y1="428.1875" y2="444.1563"/><line style="stroke:#000000;stroke-width:1.0;" x1="833" x2="833" y1="428.1875" y2="444.1563"/><line style="stroke:#000000;stroke-width:1.0;" x1="5" x2="5" y1="172.6875" y2="188.6563"/><line style="stroke:#000000;stroke-width:1.0;" x1="321" x2="321" y1="172.6875" y2="188.6563"/><line style="stroke:#000000;stroke-width:1.0;" x1="432" x2="432" y1="172.6875" y2="188.6563"/><line style="stroke:#000000;stroke-width:1.0;" x1="520" x2="520" y1="172.6875" y2="188.6563"/><line style="stroke:#000000;stroke-width:1.0;" x1="655" x2="655" y1="172.6875" y2="188.6563"/><line style="stroke:#000000;stroke-width:1.0;" x1="5" x2="5" y1="348.3438" y2="364.3125"/><line style="stroke:#000000;stroke-width:1.0;" x1="740" x2="740" y1="172.6875" y2="188.6563"/><line style="stroke:#000000;stroke-width:1.0;" x1="833" x2="833" y1="172.6875" y2="188.6563"/><line style="stroke:#000000;stroke-width:1.0;" x1="321" x2="321" y1="348.3438" y2="364.3125"/><line style="stroke:#000000;stroke-width:1.0;" x1="833" x2="833" y1="348.3438" y2="364.3125"/><line style="stroke:#000000;stroke-width:1.0;" x1="5" x2="5" y1="92.8438" y2="108.8125"/><line style="stroke:#000000;stroke-width:1.0;" x1="321" x2="321" y1="92.8438" y2="108.8125"/><line style="stroke:#000000;stroke-width:1.0;" x1="5" x2="5" y1="268.5" y2="284.4688"/><line style="stroke:#000000;stroke-width:1.0;" x1="833" x2="833" y1="92.8438" y2="108.8125"/><line style="stroke:#000000;stroke-width:1.0;" x1="321" x2="321" y1="268.5" y2="284.4688"/><line style="stroke:#000000;stroke-width:1.0;" x1="432" x2="432" y1="268.5" y2="284.4688"/><line style="stroke:#000000;stroke-width:1.0;" x1="520" x2="520" y1="268.5" y2="284.4688"/><line style="stroke:#000000;stroke-width:1.0;" x1="655" x2="655" y1="268.5" y2="284.4688"/><line style="stroke:#000000;stroke-width:1.0;" x1="5" x2="5" y1="444.1563" y2="460.125"/><line style="stroke:#000000;stroke-width:1.0;" x1="740" x2="740" y1="268.5" y2="284.4688"/><line style="stroke:#000000;stroke-width:1.0;" x1="833" x2="833" y1="268.5" y2="284.4688"/><line style="stroke:#000000;stroke-width:1.0;" x1="321" x2="321" y1="444.1563" y2="460.125"/><line style="stroke:#000000;stroke-width:1.0;" x1="833" x2="833" y1="444.1563" y2="460.125"/><!--MD5=[373ef7f767a587c5413a0351d5344f64]
@startsalt
{#
    Employer Information | * | * | * | *
    Employer unique identifier | ^Select an option^ | * |Employer: Company X
    Message | E08D706B3E4CE964B632746CF568913CB93F1ED36476FBB0494B80ED17C5975C |*
    Digital Signature  |^Select an option^|*|^Verify^ 
    .
    Employee Information |^Select an option^ | * |Applicant:    Jane Doe 
    .
    .
    Employee | Strongly Disagree |Disagree|Neutral|Agree|Strongly Agree 
    .
    Shows up to work on time: | (X) 1 | () 2 | () 3 | () 4 | () 5
    .
    Behaves well under pressure | (X) 1 | () 2 | () 3 | () 4 | () 5
    .
    Has exception work ethic | (X) 1 | () 2 | () 3 | () 4 | () 5
    .
    Does not receive complaints from coworkers | (X) 1 | () 2 | () 3 | () 4 | () 5
    .
    Is a well respected member of the workplace | (X) 1 | () 2 | () 3 | () 4 | () 5
    .
    Is a reliable individual in the workplace | (X) 1 | () 2 | () 3 | () 4 | () 5
    .
    Always completes tasks on time | (X) 1 | () 2 | () 3 | () 4 | () 5
    .
    Always fully completes assigned tasks | (X) 1 | () 2 | () 3 | () 4 | () 5
    .
    Has great communication skills | (X) 1 | () 2 | () 3 | () 4 | () 5
    .
    Are they a full-time employee? | (X) Full time | () Part time
    .
    Have long have they been working for the company| (X) 1 year or less | () 1 - 5 years | () 5 - 10 years | () 10+ years | .

}
@endsalt

PlantUML version 1.2022.2beta8(Unknown compile time)
(GPL source distribution)
Java Runtime: Java(TM) SE Runtime Environment
JVM: Java HotSpot(TM) 64-Bit Server VM
Default Encoding: UTF-8
Language: en
Country: US
--></g></svg>
