
<?xml version="1.0" encoding="UTF-8" standalone="no"?><svg xmlns="http://www.w3.org/2000/svg" xmlns:xlink="http://www.w3.org/1999/xlink" contentStyleType="text/css" height="519px" preserveAspectRatio="none" style="width:1147px;height:519px;background:#FFFFFF;" version="1.1" viewBox="0 0 1147 519" width="1147px" zoomAndPan="magnify"><defs/><g><text fill="#000000" font-family="sans-serif" font-size="12" lengthAdjust="spacing" textLength="128" x="6" y="17.1387">Employer Information</text><text fill="#000000" font-family="sans-serif" font-size="12" lengthAdjust="spacing" textLength="158" x="6" y="33.1074">Employer unique identifier</text><rect fill="#EEEEEE" height="16.9688" style="stroke:#000000;stroke-width:1.0;" width="143" x="322" y="21.9688"/><text fill="#000000" font-family="sans-serif" font-size="12" lengthAdjust="spacing" textLength="98" x="324" y="35.1074">Select an option</text><line style="stroke:#000000;stroke-width:1.0;" x1="454" x2="454" y1="21.9688" y2="38.9375"/><polygon fill="#000000" points="457,27.9688,463,27.9688,460,33.9375" style="stroke:#000000;stroke-width:1.0;"/><text fill="#000000" font-family="sans-serif" font-size="12" lengthAdjust="spacing" textLength="133" x="828" y="33.1074">Employer: Company X</text><text fill="#000000" font-family="sans-serif" font-size="12" lengthAdjust="spacing" textLength="55" x="6" y="53.0762">Message</text><text fill="#000000" font-family="sans-serif" font-size="12" lengthAdjust="spacing" textLength="504" x="322" y="53.0762">E08D706B3E4CE964B632746CF568913CB93F1ED36476FBB0494B80ED17C5975C</text><text fill="#000000" font-family="sans-serif" font-size="12" lengthAdjust="spacing" textLength="98" x="6" y="69.0449">Digital Signature</text><rect fill="#EEEEEE" height="16.9688" style="stroke:#000000;stroke-width:1.0;" width="143" x="322" y="57.9063"/><text fill="#000000" font-family="sans-serif" font-size="12" lengthAdjust="spacing" textLength="98" x="324" y="71.0449">Select an option</text><line style="stroke:#000000;stroke-width:1.0;" x1="454" x2="454" y1="57.9063" y2="74.875"/><polygon fill="#000000" points="457,63.9063,463,63.9063,460,69.875" style="stroke:#000000;stroke-width:1.0;"/><rect fill="#EEEEEE" height="16.9688" style="stroke:#000000;stroke-width:1.0;" width="63" x="828" y="57.9063"/><text fill="#000000" font-family="sans-serif" font-size="12" lengthAdjust="spacing" textLength="35" x="830" y="71.0449">Verify</text><line style="stroke:#000000;stroke-width:1.0;" x1="880" x2="880" y1="57.9063" y2="74.875"/><polygon fill="#000000" points="883,63.9063,889,63.9063,886,69.875" style="stroke:#000000;stroke-width:1.0;"/><text fill="#000000" font-family="sans-serif" font-size="12" lengthAdjust="spacing" textLength="131" x="6" y="104.9824">Employee Information</text><rect fill="#EEEEEE" height="16.9688" style="stroke:#000000;stroke-width:1.0;" width="143" x="322" y="93.8438"/><text fill="#000000" font-family="sans-serif" font-size="12" lengthAdjust="spacing" textLength="98" x="324" y="106.9824">Select an option</text><line style="stroke:#000000;stroke-width:1.0;" x1="454" x2="454" y1="93.8438" y2="110.8125"/><polygon fill="#000000" points="457,99.8438,463,99.8438,460,105.8125" style="stroke:#000000;stroke-width:1.0;"/><text fill="#000000" font-family="sans-serif" font-size="12" lengthAdjust="spacing" textLength="130" x="828" y="104.9824">Applicant:    Jane Doe</text><text fill="#000000" font-family="sans-serif" font-size="12" lengthAdjust="spacing" textLength="60" x="6" y="156.8887">Employee</text><text fill="#000000" font-family="sans-serif" font-size="12" lengthAdjust="spacing" textLength="109" x="322" y="156.8887">Strongly Disagree</text><text fill="#000000" font-family="sans-serif" font-size="12" lengthAdjust="spacing" textLength="55" x="433" y="156.8887">Disagree</text><text fill="#000000" font-family="sans-serif" font-size="12" lengthAdjust="spacing" textLength="42" x="828" y="156.8887">Neutral</text><text fill="#000000" font-family="sans-serif" font-size="12" lengthAdjust="spacing" textLength="37" x="963" y="156.8887">Agree</text><text fill="#000000" font-family="sans-serif" font-size="12" lengthAdjust="spacing" textLength="91" x="1048" y="156.8887">Strongly Agree</text><text fill="#000000" font-family="sans-serif" font-size="12" lengthAdjust="spacing" textLength="162" x="6" y="188.8262">Shows up to work on time:</text><text fill="#000000" font-family="sans-serif" font-size="12" lengthAdjust="spacing" textLength="7" x="342" y="188.8262">1</text><ellipse cx="329" cy="184.6719" fill="none" rx="5" ry="5" style="stroke:#000000;stroke-width:1.5;"/><ellipse cx="329" cy="184.6719" fill="#000000" rx="2" ry="2" style="stroke:#000000;stroke-width:1.5;"/><text fill="#000000" font-family="sans-serif" font-size="12" lengthAdjust="spacing" textLength="8" x="453" y="188.8262">2</text><ellipse cx="440" cy="184.6719" fill="none" rx="5" ry="5" style="stroke:#000000;stroke-width:1.5;"/><text fill="#000000" font-family="sans-serif" font-size="12" lengthAdjust="spacing" textLength="8" x="848" y="188.8262">3</text><ellipse cx="835" cy="184.6719" fill="none" rx="5" ry="5" style="stroke:#000000;stroke-width:1.5;"/><text fill="#000000" font-family="sans-serif" font-size="12" lengthAdjust="spacing" textLength="8" x="983" y="188.8262">4</text><ellipse cx="970" cy="184.6719" fill="none" rx="5" ry="5" style="stroke:#000000;stroke-width:1.5;"/><text fill="#000000" font-family="sans-serif" font-size="12" lengthAdjust="spacing" textLength="8" x="1068" y="188.8262">5</text><ellipse cx="1055" cy="184.6719" fill="none" rx="5" ry="5" style="stroke:#000000;stroke-width:1.5;"/><text fill="#000000" font-family="sans-serif" font-size="12" lengthAdjust="spacing" textLength="178" x="6" y="220.7637">Behaves well under pressure</text><text fill="#000000" font-family="sans-serif" font-size="12" lengthAdjust="spacing" textLength="7" x="342" y="220.7637">1</text><ellipse cx="329" cy="216.6094" fill="none" rx="5" ry="5" style="stroke:#000000;stroke-width:1.5;"/><ellipse cx="329" cy="216.6094" fill="#000000" rx="2" ry="2" style="stroke:#000000;stroke-width:1.5;"/><text fill="#000000" font-family="sans-serif" font-size="12" lengthAdjust="spacing" textLength="8" x="453" y="220.7637">2</text><ellipse cx="440" cy="216.6094" fill="none" rx="5" ry="5" style="stroke:#000000;stroke-width:1.5;"/><text fill="#000000" font-family="sans-serif" font-size="12" lengthAdjust="spacing" textLength="8" x="848" y="220.7637">3</text><ellipse cx="835" cy="216.6094" fill="none" rx="5" ry="5" style="stroke:#000000;stroke-width:1.5;"/><text fill="#000000" font-family="sans-serif" font-size="12" lengthAdjust="spacing" textLength="8" x="983" y="220.7637">4</text><ellipse cx="970" cy="216.6094" fill="none" rx="5" ry="5" style="stroke:#000000;stroke-width:1.5;"/><text fill="#000000" font-family="sans-serif" font-size="12" lengthAdjust="spacing" textLength="8" x="1068" y="220.7637">5</text><ellipse cx="1055" cy="216.6094" fill="none" rx="5" ry="5" style="stroke:#000000;stroke-width:1.5;"/><text fill="#000000" font-family="sans-serif" font-size="12" lengthAdjust="spacing" textLength="154" x="6" y="252.7012">Has exception work ethic</text><text fill="#000000" font-family="sans-serif" font-size="12" lengthAdjust="spacing" textLength="7" x="342" y="252.7012">1</text><ellipse cx="329" cy="248.5469" fill="none" rx="5" ry="5" style="stroke:#000000;stroke-width:1.5;"/><ellipse cx="329" cy="248.5469" fill="#000000" rx="2" ry="2" style="stroke:#000000;stroke-width:1.5;"/><text fill="#000000" font-family="sans-serif" font-size="12" lengthAdjust="spacing" textLength="8" x="453" y="252.7012">2</text><ellipse cx="440" cy="248.5469" fill="none" rx="5" ry="5" style="stroke:#000000;stroke-width:1.5;"/><text fill="#000000" font-family="sans-serif" font-size="12" lengthAdjust="spacing" textLength="8" x="848" y="252.7012">3</text><ellipse cx="835" cy="248.5469" fill="none" rx="5" ry="5" style="stroke:#000000;stroke-width:1.5;"/><text fill="#000000" font-family="sans-serif" font-size="12" lengthAdjust="spacing" textLength="8" x="983" y="252.7012">4</text><ellipse cx="970" cy="248.5469" fill="none" rx="5" ry="5" style="stroke:#000000;stroke-width:1.5;"/><text fill="#000000" font-family="sans-serif" font-size="12" lengthAdjust="spacing" textLength="8" x="1068" y="252.7012">5</text><ellipse cx="1055" cy="248.5469" fill="none" rx="5" ry="5" style="stroke:#000000;stroke-width:1.5;"/><text fill="#000000" font-family="sans-serif" font-size="12" lengthAdjust="spacing" textLength="275" x="6" y="284.6387">Does not receive complaints from coworkers</text><text fill="#000000" font-family="sans-serif" font-size="12" lengthAdjust="spacing" textLength="7" x="342" y="284.6387">1</text><ellipse cx="329" cy="280.4844" fill="none" rx="5" ry="5" style="stroke:#000000;stroke-width:1.5;"/><ellipse cx="329" cy="280.4844" fill="#000000" rx="2" ry="2" style="stroke:#000000;stroke-width:1.5;"/><text fill="#000000" font-family="sans-serif" font-size="12" lengthAdjust="spacing" textLength="8" x="453" y="284.6387">2</text><ellipse cx="440" cy="280.4844" fill="none" rx="5" ry="5" style="stroke:#000000;stroke-width:1.5;"/><text fill="#000000" font-family="sans-serif" font-size="12" lengthAdjust="spacing" textLength="8" x="848" y="284.6387">3</text><ellipse cx="835" cy="280.4844" fill="none" rx="5" ry="5" style="stroke:#000000;stroke-width:1.5;"/><text fill="#000000" font-family="sans-serif" font-size="12" lengthAdjust="spacing" textLength="8" x="983" y="284.6387">4</text><ellipse cx="970" cy="280.4844" fill="none" rx="5" ry="5" style="stroke:#000000;stroke-width:1.5;"/><text fill="#000000" font-family="sans-serif" font-size="12" lengthAdjust="spacing" textLength="8" x="1068" y="284.6387">5</text><ellipse cx="1055" cy="280.4844" fill="none" rx="5" ry="5" style="stroke:#000000;stroke-width:1.5;"/><text fill="#000000" font-family="sans-serif" font-size="12" lengthAdjust="spacing" textLength="277" x="6" y="316.5762">Is a well respected member of the workplace</text><text fill="#000000" font-family="sans-serif" font-size="12" lengthAdjust="spacing" textLength="7" x="342" y="316.5762">1</text><ellipse cx="329" cy="312.4219" fill="none" rx="5" ry="5" style="stroke:#000000;stroke-width:1.5;"/><ellipse cx="329" cy="312.4219" fill="#000000" rx="2" ry="2" style="stroke:#000000;stroke-width:1.5;"/><text fill="#000000" font-family="sans-serif" font-size="12" lengthAdjust="spacing" textLength="8" x="453" y="316.5762">2</text><ellipse cx="440" cy="312.4219" fill="none" rx="5" ry="5" style="stroke:#000000;stroke-width:1.5;"/><text fill="#000000" font-family="sans-serif" font-size="12" lengthAdjust="spacing" textLength="8" x="848" y="316.5762">3</text><ellipse cx="835" cy="312.4219" fill="none" rx="5" ry="5" style="stroke:#000000;stroke-width:1.5;"/><text fill="#000000" font-family="sans-serif" font-size="12" lengthAdjust="spacing" textLength="8" x="983" y="316.5762">4</text><ellipse cx="970" cy="312.4219" fill="none" rx="5" ry="5" style="stroke:#000000;stroke-width:1.5;"/><text fill="#000000" font-family="sans-serif" font-size="12" lengthAdjust="spacing" textLength="8" x="1068" y="316.5762">5</text><ellipse cx="1055" cy="312.4219" fill="none" rx="5" ry="5" style="stroke:#000000;stroke-width:1.5;"/><text fill="#000000" font-family="sans-serif" font-size="12" lengthAdjust="spacing" textLength="234" x="6" y="348.5137">Is a reliable individual in the workplace</text><text fill="#000000" font-family="sans-serif" font-size="12" lengthAdjust="spacing" textLength="7" x="342" y="348.5137">1</text><ellipse cx="329" cy="344.3594" fill="none" rx="5" ry="5" style="stroke:#000000;stroke-width:1.5;"/><ellipse cx="329" cy="344.3594" fill="#000000" rx="2" ry="2" style="stroke:#000000;stroke-width:1.5;"/><text fill="#000000" font-family="sans-serif" font-size="12" lengthAdjust="spacing" textLength="8" x="453" y="348.5137">2</text><ellipse cx="440" cy="344.3594" fill="none" rx="5" ry="5" style="stroke:#000000;stroke-width:1.5;"/><text fill="#000000" font-family="sans-serif" font-size="12" lengthAdjust="spacing" textLength="8" x="848" y="348.5137">3</text><ellipse cx="835" cy="344.3594" fill="none" rx="5" ry="5" style="stroke:#000000;stroke-width:1.5;"/><text fill="#000000" font-family="sans-serif" font-size="12" lengthAdjust="spacing" textLength="8" x="983" y="348.5137">4</text><ellipse cx="970" cy="344.3594" fill="none" rx="5" ry="5" style="stroke:#000000;stroke-width:1.5;"/><text fill="#000000" font-family="sans-serif" font-size="12" lengthAdjust="spacing" textLength="8" x="1068" y="348.5137">5</text><ellipse cx="1055" cy="344.3594" fill="none" rx="5" ry="5" style="stroke:#000000;stroke-width:1.5;"/><text fill="#000000" font-family="sans-serif" font-size="12" lengthAdjust="spacing" textLength="195" x="6" y="380.4512">Always completes tasks on time</text><text fill="#000000" font-family="sans-serif" font-size="12" lengthAdjust="spacing" textLength="7" x="342" y="380.4512">1</text><ellipse cx="329" cy="376.2969" fill="none" rx="5" ry="5" style="stroke:#000000;stroke-width:1.5;"/><ellipse cx="329" cy="376.2969" fill="#000000" rx="2" ry="2" style="stroke:#000000;stroke-width:1.5;"/><text fill="#000000" font-family="sans-serif" font-size="12" lengthAdjust="spacing" textLength="8" x="453" y="380.4512">2</text><ellipse cx="440" cy="376.2969" fill="none" rx="5" ry="5" style="stroke:#000000;stroke-width:1.5;"/><text fill="#000000" font-family="sans-serif" font-size="12" lengthAdjust="spacing" textLength="8" x="848" y="380.4512">3</text><ellipse cx="835" cy="376.2969" fill="none" rx="5" ry="5" style="stroke:#000000;stroke-width:1.5;"/><text fill="#000000" font-family="sans-serif" font-size="12" lengthAdjust="spacing" textLength="8" x="983" y="380.4512">4</text><ellipse cx="970" cy="376.2969" fill="none" rx="5" ry="5" style="stroke:#000000;stroke-width:1.5;"/><text fill="#000000" font-family="sans-serif" font-size="12" lengthAdjust="spacing" textLength="8" x="1068" y="380.4512">5</text><ellipse cx="1055" cy="376.2969" fill="none" rx="5" ry="5" style="stroke:#000000;stroke-width:1.5;"/><text fill="#000000" font-family="sans-serif" font-size="12" lengthAdjust="spacing" textLength="233" x="6" y="412.3887">Always fully completes assigned tasks</text><text fill="#000000" font-family="sans-serif" font-size="12" lengthAdjust="spacing" textLength="7" x="342" y="412.3887">1</text><ellipse cx="329" cy="408.2344" fill="none" rx="5" ry="5" style="stroke:#000000;stroke-width:1.5;"/><ellipse cx="329" cy="408.2344" fill="#000000" rx="2" ry="2" style="stroke:#000000;stroke-width:1.5;"/><text fill="#000000" font-family="sans-serif" font-size="12" lengthAdjust="spacing" textLength="8" x="453" y="412.3887">2</text><ellipse cx="440" cy="408.2344" fill="none" rx="5" ry="5" style="stroke:#000000;stroke-width:1.5;"/><text fill="#000000" font-family="sans-serif" font-size="12" lengthAdjust="spacing" textLength="8" x="848" y="412.3887">3</text><ellipse cx="835" cy="408.2344" fill="none" rx="5" ry="5" style="stroke:#000000;stroke-width:1.5;"/><text fill="#000000" font-family="sans-serif" font-size="12" lengthAdjust="spacing" textLength="8" x="983" y="412.3887">4</text><ellipse cx="970" cy="408.2344" fill="none" rx="5" ry="5" style="stroke:#000000;stroke-width:1.5;"/><text fill="#000000" font-family="sans-serif" font-size="12" lengthAdjust="spacing" textLength="8" x="1068" y="412.3887">5</text><ellipse cx="1055" cy="408.2344" fill="none" rx="5" ry="5" style="stroke:#000000;stroke-width:1.5;"/><text fill="#000000" font-family="sans-serif" font-size="12" lengthAdjust="spacing" textLength="187" x="6" y="444.3262">Has great communication skills</text><text fill="#000000" font-family="sans-serif" font-size="12" lengthAdjust="spacing" textLength="7" x="342" y="444.3262">1</text><ellipse cx="329" cy="440.1719" fill="none" rx="5" ry="5" style="stroke:#000000;stroke-width:1.5;"/><ellipse cx="329" cy="440.1719" fill="#000000" rx="2" ry="2" style="stroke:#000000;stroke-width:1.5;"/><text fill="#000000" font-family="sans-serif" font-size="12" lengthAdjust="spacing" textLength="8" x="453" y="444.3262">2</text><ellipse cx="440" cy="440.1719" fill="none" rx="5" ry="5" style="stroke:#000000;stroke-width:1.5;"/><text fill="#000000" font-family="sans-serif" font-size="12" lengthAdjust="spacing" textLength="8" x="848" y="444.3262">3</text><ellipse cx="835" cy="440.1719" fill="none" rx="5" ry="5" style="stroke:#000000;stroke-width:1.5;"/><text fill="#000000" font-family="sans-serif" font-size="12" lengthAdjust="spacing" textLength="8" x="983" y="444.3262">4</text><ellipse cx="970" cy="440.1719" fill="none" rx="5" ry="5" style="stroke:#000000;stroke-width:1.5;"/><text fill="#000000" font-family="sans-serif" font-size="12" lengthAdjust="spacing" textLength="8" x="1068" y="444.3262">5</text><ellipse cx="1055" cy="440.1719" fill="none" rx="5" ry="5" style="stroke:#000000;stroke-width:1.5;"/><text fill="#000000" font-family="sans-serif" font-size="12" lengthAdjust="spacing" textLength="185" x="6" y="476.2637">Are they a full-time employee?</text><text fill="#000000" font-family="sans-serif" font-size="12" lengthAdjust="spacing" textLength="50" x="342" y="476.2637">Full time</text><ellipse cx="329" cy="472.1094" fill="none" rx="5" ry="5" style="stroke:#000000;stroke-width:1.5;"/><ellipse cx="329" cy="472.1094" fill="#000000" rx="2" ry="2" style="stroke:#000000;stroke-width:1.5;"/><text fill="#000000" font-family="sans-serif" font-size="12" lengthAdjust="spacing" textLength="52" x="453" y="476.2637">Part time</text><ellipse cx="440" cy="472.1094" fill="none" rx="5" ry="5" style="stroke:#000000;stroke-width:1.5;"/><text fill="#000000" font-family="sans-serif" font-size="12" lengthAdjust="spacing" textLength="314" x="6" y="508.2012">Have long have they been working for the company</text><text fill="#000000" font-family="sans-serif" font-size="12" lengthAdjust="spacing" textLength="84" x="342" y="508.2012">1 year or less</text><ellipse cx="329" cy="504.0469" fill="none" rx="5" ry="5" style="stroke:#000000;stroke-width:1.5;"/><ellipse cx="329" cy="504.0469" fill="#000000" rx="2" ry="2" style="stroke:#000000;stroke-width:1.5;"/><text fill="#000000" font-family="sans-serif" font-size="12" lengthAdjust="spacing" textLength="66" x="453" y="508.2012">1 - 5 years</text><ellipse cx="440" cy="504.0469" fill="none" rx="5" ry="5" style="stroke:#000000;stroke-width:1.5;"/><text fill="#000000" font-family="sans-serif" font-size="12" lengthAdjust="spacing" textLength="74" x="848" y="508.2012">5 - 10 years</text><ellipse cx="835" cy="504.0469" fill="none" rx="5" ry="5" style="stroke:#000000;stroke-width:1.5;"/><text fill="#000000" font-family="sans-serif" font-size="12" lengthAdjust="spacing" textLength="63" x="983" y="508.2012">10+ years</text><ellipse cx="970" cy="504.0469" fill="none" rx="5" ry="5" style="stroke:#000000;stroke-width:1.5;"/><line style="stroke:#000000;stroke-width:1.0;" x1="5" x2="321" y1="5" y2="5"/><line style="stroke:#000000;stroke-width:1.0;" x1="321" x2="432" y1="5" y2="5"/><line style="stroke:#000000;stroke-width:1.0;" x1="432" x2="827" y1="5" y2="5"/><line style="stroke:#000000;stroke-width:1.0;" x1="827" x2="962" y1="5" y2="5"/><line style="stroke:#000000;stroke-width:1.0;" x1="962" x2="1047" y1="5" y2="5"/><line style="stroke:#000000;stroke-width:1.0;" x1="1047" x2="1140" y1="5" y2="5"/><line style="stroke:#000000;stroke-width:1.0;" x1="5" x2="321" y1="192.6563" y2="192.6563"/><line style="stroke:#000000;stroke-width:1.0;" x1="321" x2="432" y1="192.6563" y2="192.6563"/><line style="stroke:#000000;stroke-width:1.0;" x1="432" x2="827" y1="192.6563" y2="192.6563"/><line style="stroke:#000000;stroke-width:1.0;" x1="827" x2="962" y1="192.6563" y2="192.6563"/><line style="stroke:#000000;stroke-width:1.0;" x1="962" x2="1047" y1="192.6563" y2="192.6563"/><line style="stroke:#000000;stroke-width:1.0;" x1="1047" x2="1140" y1="192.6563" y2="192.6563"/><line style="stroke:#000000;stroke-width:1.0;" x1="5" x2="321" y1="368.3125" y2="368.3125"/><line style="stroke:#000000;stroke-width:1.0;" x1="321" x2="432" y1="368.3125" y2="368.3125"/><line style="stroke:#000000;stroke-width:1.0;" x1="432" x2="827" y1="368.3125" y2="368.3125"/><line style="stroke:#000000;stroke-width:1.0;" x1="827" x2="962" y1="368.3125" y2="368.3125"/><line style="stroke:#000000;stroke-width:1.0;" x1="962" x2="1047" y1="368.3125" y2="368.3125"/><line style="stroke:#000000;stroke-width:1.0;" x1="1047" x2="1140" y1="368.3125" y2="368.3125"/><line style="stroke:#000000;stroke-width:1.0;" x1="5" x2="321" y1="112.8125" y2="112.8125"/><line style="stroke:#000000;stroke-width:1.0;" x1="321" x2="432" y1="112.8125" y2="112.8125"/><line style="stroke:#000000;stroke-width:1.0;" x1="432" x2="827" y1="112.8125" y2="112.8125"/><line style="stroke:#000000;stroke-width:1.0;" x1="827" x2="962" y1="112.8125" y2="112.8125"/><line style="stroke:#000000;stroke-width:1.0;" x1="5" x2="321" y1="288.4688" y2="288.4688"/><line style="stroke:#000000;stroke-width:1.0;" x1="321" x2="432" y1="288.4688" y2="288.4688"/><line style="stroke:#000000;stroke-width:1.0;" x1="432" x2="827" y1="288.4688" y2="288.4688"/><line style="stroke:#000000;stroke-width:1.0;" x1="827" x2="962" y1="288.4688" y2="288.4688"/><line style="stroke:#000000;stroke-width:1.0;" x1="962" x2="1047" y1="288.4688" y2="288.4688"/><line style="stroke:#000000;stroke-width:1.0;" x1="1047" x2="1140" y1="288.4688" y2="288.4688"/><line style="stroke:#000000;stroke-width:1.0;" x1="5" x2="321" y1="464.125" y2="464.125"/><line style="stroke:#000000;stroke-width:1.0;" x1="321" x2="432" y1="464.125" y2="464.125"/><line style="stroke:#000000;stroke-width:1.0;" x1="432" x2="827" y1="464.125" y2="464.125"/><line style="stroke:#000000;stroke-width:1.0;" x1="5" x2="321" y1="20.9688" y2="20.9688"/><line style="stroke:#000000;stroke-width:1.0;" x1="321" x2="432" y1="20.9688" y2="20.9688"/><line style="stroke:#000000;stroke-width:1.0;" x1="432" x2="827" y1="20.9688" y2="20.9688"/><line style="stroke:#000000;stroke-width:1.0;" x1="827" x2="962" y1="20.9688" y2="20.9688"/><line style="stroke:#000000;stroke-width:1.0;" x1="962" x2="1047" y1="20.9688" y2="20.9688"/><line style="stroke:#000000;stroke-width:1.0;" x1="5" x2="321" y1="208.625" y2="208.625"/><line style="stroke:#000000;stroke-width:1.0;" x1="321" x2="432" y1="208.625" y2="208.625"/><line style="stroke:#000000;stroke-width:1.0;" x1="432" x2="827" y1="208.625" y2="208.625"/><line style="stroke:#000000;stroke-width:1.0;" x1="827" x2="962" y1="208.625" y2="208.625"/><line style="stroke:#000000;stroke-width:1.0;" x1="962" x2="1047" y1="208.625" y2="208.625"/><line style="stroke:#000000;stroke-width:1.0;" x1="1047" x2="1140" y1="208.625" y2="208.625"/><line style="stroke:#000000;stroke-width:1.0;" x1="5" x2="321" y1="384.2813" y2="384.2813"/><line style="stroke:#000000;stroke-width:1.0;" x1="321" x2="432" y1="384.2813" y2="384.2813"/><line style="stroke:#000000;stroke-width:1.0;" x1="432" x2="827" y1="384.2813" y2="384.2813"/><line style="stroke:#000000;stroke-width:1.0;" x1="827" x2="962" y1="384.2813" y2="384.2813"/><line style="stroke:#000000;stroke-width:1.0;" x1="962" x2="1047" y1="384.2813" y2="384.2813"/><line style="stroke:#000000;stroke-width:1.0;" x1="1047" x2="1140" y1="384.2813" y2="384.2813"/><line style="stroke:#000000;stroke-width:1.0;" x1="5" x2="321" y1="128.7813" y2="128.7813"/><line style="stroke:#000000;stroke-width:1.0;" x1="5" x2="321" y1="304.4375" y2="304.4375"/><line style="stroke:#000000;stroke-width:1.0;" x1="321" x2="432" y1="304.4375" y2="304.4375"/><line style="stroke:#000000;stroke-width:1.0;" x1="432" x2="827" y1="304.4375" y2="304.4375"/><line style="stroke:#000000;stroke-width:1.0;" x1="827" x2="962" y1="304.4375" y2="304.4375"/><line style="stroke:#000000;stroke-width:1.0;" x1="962" x2="1047" y1="304.4375" y2="304.4375"/><line style="stroke:#000000;stroke-width:1.0;" x1="1047" x2="1140" y1="304.4375" y2="304.4375"/><line style="stroke:#000000;stroke-width:1.0;" x1="5" x2="321" y1="480.0938" y2="480.0938"/><line style="stroke:#000000;stroke-width:1.0;" x1="321" x2="432" y1="480.0938" y2="480.0938"/><line style="stroke:#000000;stroke-width:1.0;" x1="432" x2="827" y1="480.0938" y2="480.0938"/><line style="stroke:#000000;stroke-width:1.0;" x1="5" x2="321" y1="40.9375" y2="40.9375"/><line style="stroke:#000000;stroke-width:1.0;" x1="321" x2="432" y1="40.9375" y2="40.9375"/><line style="stroke:#000000;stroke-width:1.0;" x1="432" x2="827" y1="40.9375" y2="40.9375"/><line style="stroke:#000000;stroke-width:1.0;" x1="827" x2="962" y1="40.9375" y2="40.9375"/><line style="stroke:#000000;stroke-width:1.0;" x1="5" x2="321" y1="224.5938" y2="224.5938"/><line style="stroke:#000000;stroke-width:1.0;" x1="321" x2="432" y1="224.5938" y2="224.5938"/><line style="stroke:#000000;stroke-width:1.0;" x1="432" x2="827" y1="224.5938" y2="224.5938"/><line style="stroke:#000000;stroke-width:1.0;" x1="827" x2="962" y1="224.5938" y2="224.5938"/><line style="stroke:#000000;stroke-width:1.0;" x1="962" x2="1047" y1="224.5938" y2="224.5938"/><line style="stroke:#000000;stroke-width:1.0;" x1="1047" x2="1140" y1="224.5938" y2="224.5938"/><line style="stroke:#000000;stroke-width:1.0;" x1="5" x2="321" y1="400.25" y2="400.25"/><line style="stroke:#000000;stroke-width:1.0;" x1="321" x2="432" y1="400.25" y2="400.25"/><line style="stroke:#000000;stroke-width:1.0;" x1="432" x2="827" y1="400.25" y2="400.25"/><line style="stroke:#000000;stroke-width:1.0;" x1="827" x2="962" y1="400.25" y2="400.25"/><line style="stroke:#000000;stroke-width:1.0;" x1="962" x2="1047" y1="400.25" y2="400.25"/><line style="stroke:#000000;stroke-width:1.0;" x1="1047" x2="1140" y1="400.25" y2="400.25"/><line style="stroke:#000000;stroke-width:1.0;" x1="5" x2="321" y1="144.75" y2="144.75"/><line style="stroke:#000000;stroke-width:1.0;" x1="321" x2="432" y1="144.75" y2="144.75"/><line style="stroke:#000000;stroke-width:1.0;" x1="432" x2="827" y1="144.75" y2="144.75"/><line style="stroke:#000000;stroke-width:1.0;" x1="827" x2="962" y1="144.75" y2="144.75"/><line style="stroke:#000000;stroke-width:1.0;" x1="962" x2="1047" y1="144.75" y2="144.75"/><line style="stroke:#000000;stroke-width:1.0;" x1="1047" x2="1140" y1="144.75" y2="144.75"/><line style="stroke:#000000;stroke-width:1.0;" x1="5" x2="321" y1="320.4063" y2="320.4063"/><line style="stroke:#000000;stroke-width:1.0;" x1="321" x2="432" y1="320.4063" y2="320.4063"/><line style="stroke:#000000;stroke-width:1.0;" x1="432" x2="827" y1="320.4063" y2="320.4063"/><line style="stroke:#000000;stroke-width:1.0;" x1="827" x2="962" y1="320.4063" y2="320.4063"/><line style="stroke:#000000;stroke-width:1.0;" x1="962" x2="1047" y1="320.4063" y2="320.4063"/><line style="stroke:#000000;stroke-width:1.0;" x1="1047" x2="1140" y1="320.4063" y2="320.4063"/><line style="stroke:#000000;stroke-width:1.0;" x1="5" x2="321" y1="496.0625" y2="496.0625"/><line style="stroke:#000000;stroke-width:1.0;" x1="321" x2="432" y1="496.0625" y2="496.0625"/><line style="stroke:#000000;stroke-width:1.0;" x1="432" x2="827" y1="496.0625" y2="496.0625"/><line style="stroke:#000000;stroke-width:1.0;" x1="827" x2="962" y1="496.0625" y2="496.0625"/><line style="stroke:#000000;stroke-width:1.0;" x1="962" x2="1047" y1="496.0625" y2="496.0625"/><line style="stroke:#000000;stroke-width:1.0;" x1="1047" x2="1140" y1="496.0625" y2="496.0625"/><line style="stroke:#000000;stroke-width:1.0;" x1="5" x2="321" y1="56.9063" y2="56.9063"/><line style="stroke:#000000;stroke-width:1.0;" x1="321" x2="432" y1="56.9063" y2="56.9063"/><line style="stroke:#000000;stroke-width:1.0;" x1="432" x2="827" y1="56.9063" y2="56.9063"/><line style="stroke:#000000;stroke-width:1.0;" x1="827" x2="962" y1="56.9063" y2="56.9063"/><line style="stroke:#000000;stroke-width:1.0;" x1="5" x2="321" y1="240.5625" y2="240.5625"/><line style="stroke:#000000;stroke-width:1.0;" x1="321" x2="432" y1="240.5625" y2="240.5625"/><line style="stroke:#000000;stroke-width:1.0;" x1="432" x2="827" y1="240.5625" y2="240.5625"/><line style="stroke:#000000;stroke-width:1.0;" x1="827" x2="962" y1="240.5625" y2="240.5625"/><line style="stroke:#000000;stroke-width:1.0;" x1="962" x2="1047" y1="240.5625" y2="240.5625"/><line style="stroke:#000000;stroke-width:1.0;" x1="1047" x2="1140" y1="240.5625" y2="240.5625"/><line style="stroke:#000000;stroke-width:1.0;" x1="5" x2="321" y1="416.2188" y2="416.2188"/><line style="stroke:#000000;stroke-width:1.0;" x1="321" x2="432" y1="416.2188" y2="416.2188"/><line style="stroke:#000000;stroke-width:1.0;" x1="432" x2="827" y1="416.2188" y2="416.2188"/><line style="stroke:#000000;stroke-width:1.0;" x1="827" x2="962" y1="416.2188" y2="416.2188"/><line style="stroke:#000000;stroke-width:1.0;" x1="962" x2="1047" y1="416.2188" y2="416.2188"/><line style="stroke:#000000;stroke-width:1.0;" x1="1047" x2="1140" y1="416.2188" y2="416.2188"/><line style="stroke:#000000;stroke-width:1.0;" x1="5" x2="321" y1="160.7188" y2="160.7188"/><line style="stroke:#000000;stroke-width:1.0;" x1="321" x2="432" y1="160.7188" y2="160.7188"/><line style="stroke:#000000;stroke-width:1.0;" x1="432" x2="827" y1="160.7188" y2="160.7188"/><line style="stroke:#000000;stroke-width:1.0;" x1="827" x2="962" y1="160.7188" y2="160.7188"/><line style="stroke:#000000;stroke-width:1.0;" x1="962" x2="1047" y1="160.7188" y2="160.7188"/><line style="stroke:#000000;stroke-width:1.0;" x1="1047" x2="1140" y1="160.7188" y2="160.7188"/><line style="stroke:#000000;stroke-width:1.0;" x1="5" x2="321" y1="336.375" y2="336.375"/><line style="stroke:#000000;stroke-width:1.0;" x1="321" x2="432" y1="336.375" y2="336.375"/><line style="stroke:#000000;stroke-width:1.0;" x1="432" x2="827" y1="336.375" y2="336.375"/><line style="stroke:#000000;stroke-width:1.0;" x1="827" x2="962" y1="336.375" y2="336.375"/><line style="stroke:#000000;stroke-width:1.0;" x1="962" x2="1047" y1="336.375" y2="336.375"/><line style="stroke:#000000;stroke-width:1.0;" x1="5" x2="321" y1="512.0313" y2="512.0313"/><line style="stroke:#000000;stroke-width:1.0;" x1="1047" x2="1140" y1="336.375" y2="336.375"/><line style="stroke:#000000;stroke-width:1.0;" x1="321" x2="432" y1="512.0313" y2="512.0313"/><line style="stroke:#000000;stroke-width:1.0;" x1="432" x2="827" y1="512.0313" y2="512.0313"/><line style="stroke:#000000;stroke-width:1.0;" x1="827" x2="962" y1="512.0313" y2="512.0313"/><line style="stroke:#000000;stroke-width:1.0;" x1="962" x2="1047" y1="512.0313" y2="512.0313"/><line style="stroke:#000000;stroke-width:1.0;" x1="1047" x2="1140" y1="512.0313" y2="512.0313"/><line style="stroke:#000000;stroke-width:1.0;" x1="5" x2="321" y1="76.875" y2="76.875"/><line style="stroke:#000000;stroke-width:1.0;" x1="321" x2="432" y1="76.875" y2="76.875"/><line style="stroke:#000000;stroke-width:1.0;" x1="432" x2="827" y1="76.875" y2="76.875"/><line style="stroke:#000000;stroke-width:1.0;" x1="827" x2="962" y1="76.875" y2="76.875"/><line style="stroke:#000000;stroke-width:1.0;" x1="5" x2="321" y1="256.5313" y2="256.5313"/><line style="stroke:#000000;stroke-width:1.0;" x1="321" x2="432" y1="256.5313" y2="256.5313"/><line style="stroke:#000000;stroke-width:1.0;" x1="432" x2="827" y1="256.5313" y2="256.5313"/><line style="stroke:#000000;stroke-width:1.0;" x1="827" x2="962" y1="256.5313" y2="256.5313"/><line style="stroke:#000000;stroke-width:1.0;" x1="962" x2="1047" y1="256.5313" y2="256.5313"/><line style="stroke:#000000;stroke-width:1.0;" x1="1047" x2="1140" y1="256.5313" y2="256.5313"/><line style="stroke:#000000;stroke-width:1.0;" x1="5" x2="321" y1="432.1875" y2="432.1875"/><line style="stroke:#000000;stroke-width:1.0;" x1="321" x2="432" y1="432.1875" y2="432.1875"/><line style="stroke:#000000;stroke-width:1.0;" x1="432" x2="827" y1="432.1875" y2="432.1875"/><line style="stroke:#000000;stroke-width:1.0;" x1="827" x2="962" y1="432.1875" y2="432.1875"/><line style="stroke:#000000;stroke-width:1.0;" x1="962" x2="1047" y1="432.1875" y2="432.1875"/><line style="stroke:#000000;stroke-width:1.0;" x1="1047" x2="1140" y1="432.1875" y2="432.1875"/><line style="stroke:#000000;stroke-width:1.0;" x1="5" x2="321" y1="176.6875" y2="176.6875"/><line style="stroke:#000000;stroke-width:1.0;" x1="321" x2="432" y1="176.6875" y2="176.6875"/><line style="stroke:#000000;stroke-width:1.0;" x1="432" x2="827" y1="176.6875" y2="176.6875"/><line style="stroke:#000000;stroke-width:1.0;" x1="827" x2="962" y1="176.6875" y2="176.6875"/><line style="stroke:#000000;stroke-width:1.0;" x1="962" x2="1047" y1="176.6875" y2="176.6875"/><line style="stroke:#000000;stroke-width:1.0;" x1="1047" x2="1140" y1="176.6875" y2="176.6875"/><line style="stroke:#000000;stroke-width:1.0;" x1="5" x2="321" y1="352.3438" y2="352.3438"/><line style="stroke:#000000;stroke-width:1.0;" x1="321" x2="432" y1="352.3438" y2="352.3438"/><line style="stroke:#000000;stroke-width:1.0;" x1="432" x2="827" y1="352.3438" y2="352.3438"/><line style="stroke:#000000;stroke-width:1.0;" x1="827" x2="962" y1="352.3438" y2="352.3438"/><line style="stroke:#000000;stroke-width:1.0;" x1="962" x2="1047" y1="352.3438" y2="352.3438"/><line style="stroke:#000000;stroke-width:1.0;" x1="1047" x2="1140" y1="352.3438" y2="352.3438"/><line style="stroke:#000000;stroke-width:1.0;" x1="5" x2="321" y1="92.8438" y2="92.8438"/><line style="stroke:#000000;stroke-width:1.0;" x1="321" x2="432" y1="92.8438" y2="92.8438"/><line style="stroke:#000000;stroke-width:1.0;" x1="432" x2="827" y1="92.8438" y2="92.8438"/><line style="stroke:#000000;stroke-width:1.0;" x1="827" x2="962" y1="92.8438" y2="92.8438"/><line style="stroke:#000000;stroke-width:1.0;" x1="5" x2="321" y1="272.5" y2="272.5"/><line style="stroke:#000000;stroke-width:1.0;" x1="321" x2="432" y1="272.5" y2="272.5"/><line style="stroke:#000000;stroke-width:1.0;" x1="432" x2="827" y1="272.5" y2="272.5"/><line style="stroke:#000000;stroke-width:1.0;" x1="827" x2="962" y1="272.5" y2="272.5"/><line style="stroke:#000000;stroke-width:1.0;" x1="962" x2="1047" y1="272.5" y2="272.5"/><line style="stroke:#000000;stroke-width:1.0;" x1="1047" x2="1140" y1="272.5" y2="272.5"/><line style="stroke:#000000;stroke-width:1.0;" x1="5" x2="321" y1="448.1563" y2="448.1563"/><line style="stroke:#000000;stroke-width:1.0;" x1="321" x2="432" y1="448.1563" y2="448.1563"/><line style="stroke:#000000;stroke-width:1.0;" x1="432" x2="827" y1="448.1563" y2="448.1563"/><line style="stroke:#000000;stroke-width:1.0;" x1="827" x2="962" y1="448.1563" y2="448.1563"/><line style="stroke:#000000;stroke-width:1.0;" x1="962" x2="1047" y1="448.1563" y2="448.1563"/><line style="stroke:#000000;stroke-width:1.0;" x1="1047" x2="1140" y1="448.1563" y2="448.1563"/><line style="stroke:#000000;stroke-width:1.0;" x1="5" x2="5" y1="5" y2="20.9688"/><line style="stroke:#000000;stroke-width:1.0;" x1="5" x2="5" y1="192.6563" y2="208.625"/><line style="stroke:#000000;stroke-width:1.0;" x1="1047" x2="1047" y1="5" y2="20.9688"/><line style="stroke:#000000;stroke-width:1.0;" x1="1140" x2="1140" y1="5" y2="20.9688"/><line style="stroke:#000000;stroke-width:1.0;" x1="321" x2="321" y1="192.6563" y2="208.625"/><line style="stroke:#000000;stroke-width:1.0;" x1="5" x2="5" y1="368.3125" y2="384.2813"/><line style="stroke:#000000;stroke-width:1.0;" x1="1140" x2="1140" y1="192.6563" y2="208.625"/><line style="stroke:#000000;stroke-width:1.0;" x1="321" x2="321" y1="368.3125" y2="384.2813"/><line style="stroke:#000000;stroke-width:1.0;" x1="432" x2="432" y1="368.3125" y2="384.2813"/><line style="stroke:#000000;stroke-width:1.0;" x1="827" x2="827" y1="368.3125" y2="384.2813"/><line style="stroke:#000000;stroke-width:1.0;" x1="962" x2="962" y1="368.3125" y2="384.2813"/><line style="stroke:#000000;stroke-width:1.0;" x1="1047" x2="1047" y1="368.3125" y2="384.2813"/><line style="stroke:#000000;stroke-width:1.0;" x1="1140" x2="1140" y1="368.3125" y2="384.2813"/><line style="stroke:#000000;stroke-width:1.0;" x1="5" x2="5" y1="112.8125" y2="128.7813"/><line style="stroke:#000000;stroke-width:1.0;" x1="321" x2="321" y1="112.8125" y2="128.7813"/><line style="stroke:#000000;stroke-width:1.0;" x1="5" x2="5" y1="288.4688" y2="304.4375"/><line style="stroke:#000000;stroke-width:1.0;" x1="1140" x2="1140" y1="112.8125" y2="128.7813"/><line style="stroke:#000000;stroke-width:1.0;" x1="321" x2="321" y1="288.4688" y2="304.4375"/><line style="stroke:#000000;stroke-width:1.0;" x1="5" x2="5" y1="464.125" y2="480.0938"/><line style="stroke:#000000;stroke-width:1.0;" x1="1140" x2="1140" y1="288.4688" y2="304.4375"/><line style="stroke:#000000;stroke-width:1.0;" x1="321" x2="321" y1="464.125" y2="480.0938"/><line style="stroke:#000000;stroke-width:1.0;" x1="432" x2="432" y1="464.125" y2="480.0938"/><line style="stroke:#000000;stroke-width:1.0;" x1="827" x2="827" y1="464.125" y2="480.0938"/><line style="stroke:#000000;stroke-width:1.0;" x1="1140" x2="1140" y1="464.125" y2="480.0938"/><line style="stroke:#000000;stroke-width:1.0;" x1="5" x2="5" y1="20.9688" y2="40.9375"/><line style="stroke:#000000;stroke-width:1.0;" x1="321" x2="321" y1="20.9688" y2="40.9375"/><line style="stroke:#000000;stroke-width:1.0;" x1="827" x2="827" y1="20.9688" y2="40.9375"/><line style="stroke:#000000;stroke-width:1.0;" x1="962" x2="962" y1="20.9688" y2="40.9375"/><line style="stroke:#000000;stroke-width:1.0;" x1="5" x2="5" y1="208.625" y2="224.5938"/><line style="stroke:#000000;stroke-width:1.0;" x1="1140" x2="1140" y1="20.9688" y2="40.9375"/><line style="stroke:#000000;stroke-width:1.0;" x1="321" x2="321" y1="208.625" y2="224.5938"/><line style="stroke:#000000;stroke-width:1.0;" x1="432" x2="432" y1="208.625" y2="224.5938"/><line style="stroke:#000000;stroke-width:1.0;" x1="827" x2="827" y1="208.625" y2="224.5938"/><line style="stroke:#000000;stroke-width:1.0;" x1="962" x2="962" y1="208.625" y2="224.5938"/><line style="stroke:#000000;stroke-width:1.0;" x1="5" x2="5" y1="384.2813" y2="400.25"/><line style="stroke:#000000;stroke-width:1.0;" x1="1047" x2="1047" y1="208.625" y2="224.5938"/><line style="stroke:#000000;stroke-width:1.0;" x1="1140" x2="1140" y1="208.625" y2="224.5938"/><line style="stroke:#000000;stroke-width:1.0;" x1="321" x2="321" y1="384.2813" y2="400.25"/><line style="stroke:#000000;stroke-width:1.0;" x1="1140" x2="1140" y1="384.2813" y2="400.25"/><line style="stroke:#000000;stroke-width:1.0;" x1="5" x2="5" y1="128.7813" y2="144.75"/><line style="stroke:#000000;stroke-width:1.0;" x1="321" x2="321" y1="128.7813" y2="144.75"/><line style="stroke:#000000;stroke-width:1.0;" x1="5" x2="5" y1="304.4375" y2="320.4063"/><line style="stroke:#000000;stroke-width:1.0;" x1="1140" x2="1140" y1="128.7813" y2="144.75"/><line style="stroke:#000000;stroke-width:1.0;" x1="321" x2="321" y1="304.4375" y2="320.4063"/><line style="stroke:#000000;stroke-width:1.0;" x1="432" x2="432" y1="304.4375" y2="320.4063"/><line style="stroke:#000000;stroke-width:1.0;" x1="827" x2="827" y1="304.4375" y2="320.4063"/><line style="stroke:#000000;stroke-width:1.0;" x1="962" x2="962" y1="304.4375" y2="320.4063"/><line style="stroke:#000000;stroke-width:1.0;" x1="5" x2="5" y1="480.0938" y2="496.0625"/><line style="stroke:#000000;stroke-width:1.0;" x1="1047" x2="1047" y1="304.4375" y2="320.4063"/><line style="stroke:#000000;stroke-width:1.0;" x1="1140" x2="1140" y1="304.4375" y2="320.4063"/><line style="stroke:#000000;stroke-width:1.0;" x1="321" x2="321" y1="480.0938" y2="496.0625"/><line style="stroke:#000000;stroke-width:1.0;" x1="1140" x2="1140" y1="480.0938" y2="496.0625"/><line style="stroke:#000000;stroke-width:1.0;" x1="5" x2="5" y1="40.9375" y2="56.9063"/><line style="stroke:#000000;stroke-width:1.0;" x1="321" x2="321" y1="40.9375" y2="56.9063"/><line style="stroke:#000000;stroke-width:1.0;" x1="827" x2="827" y1="40.9375" y2="56.9063"/><line style="stroke:#000000;stroke-width:1.0;" x1="5" x2="5" y1="224.5938" y2="240.5625"/><line style="stroke:#000000;stroke-width:1.0;" x1="1140" x2="1140" y1="40.9375" y2="56.9063"/><line style="stroke:#000000;stroke-width:1.0;" x1="321" x2="321" y1="224.5938" y2="240.5625"/><line style="stroke:#000000;stroke-width:1.0;" x1="5" x2="5" y1="400.25" y2="416.2188"/><line style="stroke:#000000;stroke-width:1.0;" x1="1140" x2="1140" y1="224.5938" y2="240.5625"/><line style="stroke:#000000;stroke-width:1.0;" x1="321" x2="321" y1="400.25" y2="416.2188"/><line style="stroke:#000000;stroke-width:1.0;" x1="432" x2="432" y1="400.25" y2="416.2188"/><line style="stroke:#000000;stroke-width:1.0;" x1="827" x2="827" y1="400.25" y2="416.2188"/><line style="stroke:#000000;stroke-width:1.0;" x1="962" x2="962" y1="400.25" y2="416.2188"/><line style="stroke:#000000;stroke-width:1.0;" x1="1047" x2="1047" y1="400.25" y2="416.2188"/><line style="stroke:#000000;stroke-width:1.0;" x1="1140" x2="1140" y1="400.25" y2="416.2188"/><line style="stroke:#000000;stroke-width:1.0;" x1="5" x2="5" y1="144.75" y2="160.7188"/><line style="stroke:#000000;stroke-width:1.0;" x1="321" x2="321" y1="144.75" y2="160.7188"/><line style="stroke:#000000;stroke-width:1.0;" x1="432" x2="432" y1="144.75" y2="160.7188"/><line style="stroke:#000000;stroke-width:1.0;" x1="827" x2="827" y1="144.75" y2="160.7188"/><line style="stroke:#000000;stroke-width:1.0;" x1="962" x2="962" y1="144.75" y2="160.7188"/><line style="stroke:#000000;stroke-width:1.0;" x1="5" x2="5" y1="320.4063" y2="336.375"/><line style="stroke:#000000;stroke-width:1.0;" x1="1047" x2="1047" y1="144.75" y2="160.7188"/><line style="stroke:#000000;stroke-width:1.0;" x1="1140" x2="1140" y1="144.75" y2="160.7188"/><line style="stroke:#000000;stroke-width:1.0;" x1="321" x2="321" y1="320.4063" y2="336.375"/><line style="stroke:#000000;stroke-width:1.0;" x1="5" x2="5" y1="496.0625" y2="512.0313"/><line style="stroke:#000000;stroke-width:1.0;" x1="1140" x2="1140" y1="320.4063" y2="336.375"/><line style="stroke:#000000;stroke-width:1.0;" x1="321" x2="321" y1="496.0625" y2="512.0313"/><line style="stroke:#000000;stroke-width:1.0;" x1="432" x2="432" y1="496.0625" y2="512.0313"/><line style="stroke:#000000;stroke-width:1.0;" x1="827" x2="827" y1="496.0625" y2="512.0313"/><line style="stroke:#000000;stroke-width:1.0;" x1="962" x2="962" y1="496.0625" y2="512.0313"/><line style="stroke:#000000;stroke-width:1.0;" x1="1047" x2="1047" y1="496.0625" y2="512.0313"/><line style="stroke:#000000;stroke-width:1.0;" x1="1140" x2="1140" y1="496.0625" y2="512.0313"/><line style="stroke:#000000;stroke-width:1.0;" x1="5" x2="5" y1="56.9063" y2="76.875"/><line style="stroke:#000000;stroke-width:1.0;" x1="321" x2="321" y1="56.9063" y2="76.875"/><line style="stroke:#000000;stroke-width:1.0;" x1="827" x2="827" y1="56.9063" y2="76.875"/><line style="stroke:#000000;stroke-width:1.0;" x1="962" x2="962" y1="56.9063" y2="76.875"/><line style="stroke:#000000;stroke-width:1.0;" x1="5" x2="5" y1="240.5625" y2="256.5313"/><line style="stroke:#000000;stroke-width:1.0;" x1="1140" x2="1140" y1="56.9063" y2="76.875"/><line style="stroke:#000000;stroke-width:1.0;" x1="321" x2="321" y1="240.5625" y2="256.5313"/><line style="stroke:#000000;stroke-width:1.0;" x1="432" x2="432" y1="240.5625" y2="256.5313"/><line style="stroke:#000000;stroke-width:1.0;" x1="827" x2="827" y1="240.5625" y2="256.5313"/><line style="stroke:#000000;stroke-width:1.0;" x1="962" x2="962" y1="240.5625" y2="256.5313"/><line style="stroke:#000000;stroke-width:1.0;" x1="5" x2="5" y1="416.2188" y2="432.1875"/><line style="stroke:#000000;stroke-width:1.0;" x1="1047" x2="1047" y1="240.5625" y2="256.5313"/><line style="stroke:#000000;stroke-width:1.0;" x1="1140" x2="1140" y1="240.5625" y2="256.5313"/><line style="stroke:#000000;stroke-width:1.0;" x1="321" x2="321" y1="416.2188" y2="432.1875"/><line style="stroke:#000000;stroke-width:1.0;" x1="1140" x2="1140" y1="416.2188" y2="432.1875"/><line style="stroke:#000000;stroke-width:1.0;" x1="5" x2="5" y1="160.7188" y2="176.6875"/><line style="stroke:#000000;stroke-width:1.0;" x1="321" x2="321" y1="160.7188" y2="176.6875"/><line style="stroke:#000000;stroke-width:1.0;" x1="5" x2="5" y1="336.375" y2="352.3438"/><line style="stroke:#000000;stroke-width:1.0;" x1="1140" x2="1140" y1="160.7188" y2="176.6875"/><line style="stroke:#000000;stroke-width:1.0;" x1="321" x2="321" y1="336.375" y2="352.3438"/><line style="stroke:#000000;stroke-width:1.0;" x1="432" x2="432" y1="336.375" y2="352.3438"/><line style="stroke:#000000;stroke-width:1.0;" x1="827" x2="827" y1="336.375" y2="352.3438"/><line style="stroke:#000000;stroke-width:1.0;" x1="962" x2="962" y1="336.375" y2="352.3438"/><line style="stroke:#000000;stroke-width:1.0;" x1="1047" x2="1047" y1="336.375" y2="352.3438"/><line style="stroke:#000000;stroke-width:1.0;" x1="1140" x2="1140" y1="336.375" y2="352.3438"/><line style="stroke:#000000;stroke-width:1.0;" x1="5" x2="5" y1="76.875" y2="92.8438"/><line style="stroke:#000000;stroke-width:1.0;" x1="321" x2="321" y1="76.875" y2="92.8438"/><line style="stroke:#000000;stroke-width:1.0;" x1="5" x2="5" y1="256.5313" y2="272.5"/><line style="stroke:#000000;stroke-width:1.0;" x1="1140" x2="1140" y1="76.875" y2="92.8438"/><line style="stroke:#000000;stroke-width:1.0;" x1="321" x2="321" y1="256.5313" y2="272.5"/><line style="stroke:#000000;stroke-width:1.0;" x1="5" x2="5" y1="432.1875" y2="448.1563"/><line style="stroke:#000000;stroke-width:1.0;" x1="1140" x2="1140" y1="256.5313" y2="272.5"/><line style="stroke:#000000;stroke-width:1.0;" x1="321" x2="321" y1="432.1875" y2="448.1563"/><line style="stroke:#000000;stroke-width:1.0;" x1="432" x2="432" y1="432.1875" y2="448.1563"/><line style="stroke:#000000;stroke-width:1.0;" x1="827" x2="827" y1="432.1875" y2="448.1563"/><line style="stroke:#000000;stroke-width:1.0;" x1="962" x2="962" y1="432.1875" y2="448.1563"/><line style="stroke:#000000;stroke-width:1.0;" x1="1047" x2="1047" y1="432.1875" y2="448.1563"/><line style="stroke:#000000;stroke-width:1.0;" x1="1140" x2="1140" y1="432.1875" y2="448.1563"/><line style="stroke:#000000;stroke-width:1.0;" x1="5" x2="5" y1="176.6875" y2="192.6563"/><line style="stroke:#000000;stroke-width:1.0;" x1="321" x2="321" y1="176.6875" y2="192.6563"/><line style="stroke:#000000;stroke-width:1.0;" x1="432" x2="432" y1="176.6875" y2="192.6563"/><line style="stroke:#000000;stroke-width:1.0;" x1="827" x2="827" y1="176.6875" y2="192.6563"/><line style="stroke:#000000;stroke-width:1.0;" x1="962" x2="962" y1="176.6875" y2="192.6563"/><line style="stroke:#000000;stroke-width:1.0;" x1="5" x2="5" y1="352.3438" y2="368.3125"/><line style="stroke:#000000;stroke-width:1.0;" x1="1047" x2="1047" y1="176.6875" y2="192.6563"/><line style="stroke:#000000;stroke-width:1.0;" x1="1140" x2="1140" y1="176.6875" y2="192.6563"/><line style="stroke:#000000;stroke-width:1.0;" x1="321" x2="321" y1="352.3438" y2="368.3125"/><line style="stroke:#000000;stroke-width:1.0;" x1="1140" x2="1140" y1="352.3438" y2="368.3125"/><line style="stroke:#000000;stroke-width:1.0;" x1="5" x2="5" y1="92.8438" y2="112.8125"/><line style="stroke:#000000;stroke-width:1.0;" x1="321" x2="321" y1="92.8438" y2="112.8125"/><line style="stroke:#000000;stroke-width:1.0;" x1="827" x2="827" y1="92.8438" y2="112.8125"/><line style="stroke:#000000;stroke-width:1.0;" x1="962" x2="962" y1="92.8438" y2="112.8125"/><line style="stroke:#000000;stroke-width:1.0;" x1="5" x2="5" y1="272.5" y2="288.4688"/><line style="stroke:#000000;stroke-width:1.0;" x1="1140" x2="1140" y1="92.8438" y2="112.8125"/><line style="stroke:#000000;stroke-width:1.0;" x1="321" x2="321" y1="272.5" y2="288.4688"/><line style="stroke:#000000;stroke-width:1.0;" x1="432" x2="432" y1="272.5" y2="288.4688"/><line style="stroke:#000000;stroke-width:1.0;" x1="827" x2="827" y1="272.5" y2="288.4688"/><line style="stroke:#000000;stroke-width:1.0;" x1="962" x2="962" y1="272.5" y2="288.4688"/><line style="stroke:#000000;stroke-width:1.0;" x1="5" x2="5" y1="448.1563" y2="464.125"/><line style="stroke:#000000;stroke-width:1.0;" x1="1047" x2="1047" y1="272.5" y2="288.4688"/><line style="stroke:#000000;stroke-width:1.0;" x1="1140" x2="1140" y1="272.5" y2="288.4688"/><line style="stroke:#000000;stroke-width:1.0;" x1="321" x2="321" y1="448.1563" y2="464.125"/><line style="stroke:#000000;stroke-width:1.0;" x1="1140" x2="1140" y1="448.1563" y2="464.125"/><!--MD5=[b423574a3d91ab8ff328ec63567b6b30]
@startsalt
{#
    Employer Information | * | * | * | *
    Employer unique identifier | ^Select an option^ | * |Employer: Company X 
    Message | E08D706B3E4CE964B632746CF568913CB93F1ED36476FBB0494B80ED17C5975C |*
    Digital Signature  |^Select an option^|*|^Verify^ 
    .
    Employee Information |^Select an option^ | * |Applicant:    Jane Doe 
    .
    .
    Employee | Strongly Disagree |Disagree|Neutral|Agree|Strongly Agree 
    .
    Shows up to work on time: | (X) 1 | () 2 | () 3 | () 4 | () 5
    .
    Behaves well under pressure | (X) 1 | () 2 | () 3 | () 4 | () 5
    .
    Has exception work ethic | (X) 1 | () 2 | () 3 | () 4 | () 5
    .
    Does not receive complaints from coworkers | (X) 1 | () 2 | () 3 | () 4 | () 5
    .
    Is a well respected member of the workplace | (X) 1 | () 2 | () 3 | () 4 | () 5
    .
    Is a reliable individual in the workplace | (X) 1 | () 2 | () 3 | () 4 | () 5
    .
    Always completes tasks on time | (X) 1 | () 2 | () 3 | () 4 | () 5
    .
    Always fully completes assigned tasks | (X) 1 | () 2 | () 3 | () 4 | () 5
    .
    Has great communication skills | (X) 1 | () 2 | () 3 | () 4 | () 5
    .
    Are they a full-time employee? | (X) Full time | () Part time
    .
    Have long have they been working for the company| (X) 1 year or less | () 1 - 5 years | () 5 - 10 years | () 10+ years | .

}
@endsalt

PlantUML version 1.2022.2beta11(Unknown compile time)
(GPL source distribution)
Java Runtime: Java(TM) SE Runtime Environment
JVM: Java HotSpot(TM) 64-Bit Server VM
Default Encoding: UTF-8
Language: en
Country: US
--></g></svg>
