<?xml version="1.0" encoding="UTF-8" standalone="no"?><svg xmlns="http://www.w3.org/2000/svg" xmlns:xlink="http://www.w3.org/1999/xlink" contentStyleType="text/css" height="543px" preserveAspectRatio="none" style="width:855px;height:543px;background:#FFFFFF;" version="1.1" viewBox="0 0 855 543" width="855px" zoomAndPan="magnify"><defs/><g><line style="stroke:#181818;stroke-width:0.5;stroke-dasharray:5.0,5.0;" x1="42" x2="42" y1="93.9375" y2="447.3984"/><line style="stroke:#181818;stroke-width:0.5;stroke-dasharray:5.0,5.0;" x1="236.5" x2="236.5" y1="93.9375" y2="447.3984"/><line style="stroke:#181818;stroke-width:0.5;stroke-dasharray:5.0,5.0;" x1="375" x2="375" y1="93.9375" y2="447.3984"/><line style="stroke:#181818;stroke-width:0.5;stroke-dasharray:5.0,5.0;" x1="514" x2="514" y1="93.9375" y2="447.3984"/><line style="stroke:#181818;stroke-width:0.5;stroke-dasharray:5.0,5.0;" x1="694.5" x2="694.5" y1="93.9375" y2="447.3984"/><line style="stroke:#181818;stroke-width:0.5;stroke-dasharray:5.0,5.0;" x1="795.5" x2="795.5" y1="93.9375" y2="447.3984"/><text fill="#000000" font-family="sans-serif" font-size="14" lengthAdjust="spacing" textLength="69" x="5" y="90.6357">Employer</text><ellipse cx="42.5" cy="26.1406" fill="#E2E2F0" rx="8" ry="8" style="stroke:#181818;stroke-width:0.5;"/><path d="M42.5,34.1406 L42.5,61.1406 M29.5,42.1406 L55.5,42.1406 M42.5,61.1406 L29.5,76.1406 M42.5,61.1406 L55.5,76.1406 " fill="none" style="stroke:#181818;stroke-width:0.5;"/><text fill="#000000" font-family="sans-serif" font-size="14" lengthAdjust="spacing" textLength="69" x="5" y="459.3936">Employer</text><ellipse cx="42.5" cy="471.1953" fill="#E2E2F0" rx="8" ry="8" style="stroke:#181818;stroke-width:0.5;"/><path d="M42.5,479.1953 L42.5,506.1953 M29.5,487.1953 L55.5,487.1953 M42.5,506.1953 L29.5,521.1953 M42.5,506.1953 L55.5,521.1953 " fill="none" style="stroke:#181818;stroke-width:0.5;"/><rect fill="#E2E2F0" height="30.2969" rx="2.5" ry="2.5" style="stroke:#181818;stroke-width:0.5;" width="80" x="196.5" y="62.6406"/><text fill="#000000" font-family="sans-serif" font-size="14" lengthAdjust="spacing" textLength="66" x="203.5" y="82.6357">Frontend</text><rect fill="#E2E2F0" height="30.2969" rx="2.5" ry="2.5" style="stroke:#181818;stroke-width:0.5;" width="80" x="196.5" y="446.3984"/><text fill="#000000" font-family="sans-serif" font-size="14" lengthAdjust="spacing" textLength="66" x="203.5" y="466.3936">Frontend</text><path d="M326,67.6406 L425,67.6406 C430,67.6406 430,80.7891 430,80.7891 C430,80.7891 430,93.9375 425,93.9375 L326,93.9375 C321,93.9375 321,80.7891 321,80.7891 C321,80.7891 321,67.6406 326,67.6406 " fill="#E2E2F0" style="stroke:#181818;stroke-width:0.5;"/><path d="M425,67.6406 C420,67.6406 420,80.7891 420,80.7891 C420,93.9375 425,93.9375 425,93.9375 " fill="none" style="stroke:#181818;stroke-width:0.5;"/><text fill="#000000" font-family="sans-serif" font-size="14" lengthAdjust="spacing" textLength="89" x="326" y="85.6357">API Gateway</text><path d="M326,446.3984 L425,446.3984 C430,446.3984 430,459.5469 430,459.5469 C430,459.5469 430,472.6953 425,472.6953 L326,472.6953 C321,472.6953 321,459.5469 321,459.5469 C321,459.5469 321,446.3984 326,446.3984 " fill="#E2E2F0" style="stroke:#181818;stroke-width:0.5;"/><path d="M425,446.3984 C420,446.3984 420,459.5469 420,459.5469 C420,472.6953 425,472.6953 425,472.6953 " fill="none" style="stroke:#181818;stroke-width:0.5;"/><text fill="#000000" font-family="sans-serif" font-size="14" lengthAdjust="spacing" textLength="89" x="326" y="464.3936">API Gateway</text><text fill="#000000" font-family="sans-serif" font-size="14" lengthAdjust="spacing" textLength="57" x="483" y="90.6357">Lambda</text><ellipse cx="514.5" cy="61.6406" fill="#E2E2F0" rx="12" ry="12" style="stroke:#181818;stroke-width:0.5;"/><line style="stroke:#181818;stroke-width:0.5;" x1="502.5" x2="526.5" y1="75.6406" y2="75.6406"/><text fill="#000000" font-family="sans-serif" font-size="14" lengthAdjust="spacing" textLength="57" x="483" y="459.3936">Lambda</text><ellipse cx="514.5" cy="478.6953" fill="#E2E2F0" rx="12" ry="12" style="stroke:#181818;stroke-width:0.5;"/><line style="stroke:#181818;stroke-width:0.5;" x1="502.5" x2="526.5" y1="492.6953" y2="492.6953"/><text fill="#000000" font-family="sans-serif" font-size="14" lengthAdjust="spacing" textLength="80" x="651.5" y="90.6357">DynamoDB</text><path d="M676.5,41.6406 C676.5,31.6406 694.5,31.6406 694.5,31.6406 C694.5,31.6406 712.5,31.6406 712.5,41.6406 L712.5,67.6406 C712.5,77.6406 694.5,77.6406 694.5,77.6406 C694.5,77.6406 676.5,77.6406 676.5,67.6406 L676.5,41.6406 " fill="#E2E2F0" style="stroke:#181818;stroke-width:1.5;"/><path d="M676.5,41.6406 C676.5,51.6406 694.5,51.6406 694.5,51.6406 C694.5,51.6406 712.5,51.6406 712.5,41.6406 " fill="none" style="stroke:#181818;stroke-width:1.5;"/><text fill="#000000" font-family="sans-serif" font-size="14" lengthAdjust="spacing" textLength="80" x="651.5" y="459.3936">DynamoDB</text><path d="M676.5,472.6953 C676.5,462.6953 694.5,462.6953 694.5,462.6953 C694.5,462.6953 712.5,462.6953 712.5,472.6953 L712.5,498.6953 C712.5,508.6953 694.5,508.6953 694.5,508.6953 C694.5,508.6953 676.5,508.6953 676.5,498.6953 L676.5,472.6953 " fill="#E2E2F0" style="stroke:#181818;stroke-width:1.5;"/><path d="M676.5,472.6953 C676.5,482.6953 694.5,482.6953 694.5,482.6953 C694.5,482.6953 712.5,482.6953 712.5,472.6953 " fill="none" style="stroke:#181818;stroke-width:1.5;"/><rect fill="#E2E2F0" height="30.2969" style="stroke:#181818;stroke-width:0.5;" width="92" x="751.5" y="58.6406"/><rect fill="#E2E2F0" height="30.2969" style="stroke:#181818;stroke-width:0.5;" width="92" x="747.5" y="62.6406"/><text fill="#000000" font-family="sans-serif" font-size="14" lengthAdjust="spacing" textLength="78" x="754.5" y="82.6357">Blockchain</text><rect fill="#E2E2F0" height="30.2969" style="stroke:#181818;stroke-width:0.5;" width="92" x="751.5" y="446.3984"/><rect fill="#E2E2F0" height="30.2969" style="stroke:#181818;stroke-width:0.5;" width="92" x="747.5" y="450.3984"/><text fill="#000000" font-family="sans-serif" font-size="14" lengthAdjust="spacing" textLength="78" x="754.5" y="470.3936">Blockchain</text><polygon fill="#181818" points="224.5,121.0703,234.5,125.0703,224.5,129.0703,228.5,125.0703" style="stroke:#181818;stroke-width:1.0;"/><line style="stroke:#181818;stroke-width:1.0;" x1="42.5" x2="230.5" y1="125.0703" y2="125.0703"/><text fill="#000000" font-family="sans-serif" font-size="13" lengthAdjust="spacing" textLength="131" x="49.5" y="120.0044">Submit referral form</text><polygon fill="#181818" points="363.5,150.2031,373.5,154.2031,363.5,158.2031,367.5,154.2031" style="stroke:#181818;stroke-width:1.0;"/><line style="stroke:#181818;stroke-width:1.0;" x1="236.5" x2="369.5" y1="154.2031" y2="154.2031"/><text fill="#000000" font-family="sans-serif" font-size="13" lengthAdjust="spacing" textLength="115" x="243.5" y="149.1372">send referral data</text><polygon fill="#181818" points="502.5,179.3359,512.5,183.3359,502.5,187.3359,506.5,183.3359" style="stroke:#181818;stroke-width:1.0;"/><line style="stroke:#181818;stroke-width:1.0;" x1="375.5" x2="508.5" y1="183.3359" y2="183.3359"/><text fill="#000000" font-family="sans-serif" font-size="13" lengthAdjust="spacing" textLength="115" x="382.5" y="178.27">send referral data</text><polygon fill="#181818" points="682.5,208.4688,692.5,212.4688,682.5,216.4688,686.5,212.4688" style="stroke:#181818;stroke-width:1.0;"/><line style="stroke:#181818;stroke-width:1.0;" x1="514.5" x2="688.5" y1="212.4688" y2="212.4688"/><text fill="#000000" font-family="sans-serif" font-size="13" lengthAdjust="spacing" textLength="121" x="521.5" y="207.4028">push(referral data)</text><line style="stroke:#181818;stroke-width:1.0;" x1="514.5" x2="556.5" y1="241.6016" y2="241.6016"/><line style="stroke:#181818;stroke-width:1.0;" x1="556.5" x2="556.5" y1="241.6016" y2="254.6016"/><line style="stroke:#181818;stroke-width:1.0;" x1="515.5" x2="556.5" y1="254.6016" y2="254.6016"/><polygon fill="#181818" points="525.5,250.6016,515.5,254.6016,525.5,258.6016,521.5,254.6016" style="stroke:#181818;stroke-width:1.0;"/><text fill="#000000" font-family="sans-serif" font-size="13" lengthAdjust="spacing" textLength="166" x="521.5" y="236.5356">calculate reputation score</text><polygon fill="#181818" points="783.5,279.7344,793.5,283.7344,783.5,287.7344,787.5,283.7344" style="stroke:#181818;stroke-width:1.0;"/><line style="stroke:#181818;stroke-width:1.0;" x1="514.5" x2="789.5" y1="283.7344" y2="283.7344"/><text fill="#000000" font-family="sans-serif" font-size="13" lengthAdjust="spacing" textLength="190" x="521.5" y="278.6685">insert RUI score in block chain</text><polygon fill="#181818" points="682.5,308.8672,692.5,312.8672,682.5,316.8672,686.5,312.8672" style="stroke:#181818;stroke-width:1.0;"/><line style="stroke:#181818;stroke-width:1.0;" x1="514.5" x2="688.5" y1="312.8672" y2="312.8672"/><text fill="#000000" font-family="sans-serif" font-size="13" lengthAdjust="spacing" textLength="148" x="521.5" y="307.8013">update reputation data</text><polygon fill="#181818" points="525.5,338,515.5,342,525.5,346,521.5,342" style="stroke:#181818;stroke-width:1.0;"/><line style="stroke:#181818;stroke-width:1.0;" x1="519.5" x2="693.5" y1="342" y2="342"/><text fill="#000000" font-family="sans-serif" font-size="13" lengthAdjust="spacing" textLength="81" x="531.5" y="336.9341">confirmation</text><polygon fill="#181818" points="386.5,367.1328,376.5,371.1328,386.5,375.1328,382.5,371.1328" style="stroke:#181818;stroke-width:1.0;"/><line style="stroke:#181818;stroke-width:1.0;" x1="380.5" x2="513.5" y1="371.1328" y2="371.1328"/><text fill="#000000" font-family="sans-serif" font-size="13" lengthAdjust="spacing" textLength="81" x="392.5" y="366.0669">confirmation</text><polygon fill="#181818" points="247.5,396.2656,237.5,400.2656,247.5,404.2656,243.5,400.2656" style="stroke:#181818;stroke-width:1.0;"/><line style="stroke:#181818;stroke-width:1.0;" x1="241.5" x2="374.5" y1="400.2656" y2="400.2656"/><text fill="#000000" font-family="sans-serif" font-size="13" lengthAdjust="spacing" textLength="81" x="253.5" y="395.1997">confirmation</text><polygon fill="#181818" points="53.5,425.3984,43.5,429.3984,53.5,433.3984,49.5,429.3984" style="stroke:#181818;stroke-width:1.0;"/><line style="stroke:#181818;stroke-width:1.0;" x1="47.5" x2="235.5" y1="429.3984" y2="429.3984"/><text fill="#000000" font-family="sans-serif" font-size="13" lengthAdjust="spacing" textLength="170" x="59.5" y="424.3325">Display Confirmation Page</text><rect height="11.6406" style="stroke:#00000000;stroke-width:1.0;fill:none;" width="119" x="728.5" y="5"/><text fill="#888888" font-family="sans-serif" font-size="10" lengthAdjust="spacing" textLength="119" x="728.5" y="14.2822">RUI Sequence Digram</text><rect height="11.6406" style="stroke:#00000000;stroke-width:1.0;fill:none;" width="119" x="364.25" y="523.6953"/><text fill="#888888" font-family="sans-serif" font-size="10" lengthAdjust="spacing" textLength="119" x="364.25" y="532.9775">RUI Sequence Digram</text><!--MD5=[e1842f202fa3e79c94f5f6108ac729dd]
@startuml
header RUI Sequence Digram
footer RUI Sequence Digram

Actor "Employer"
participant "Frontend"
queue "API Gateway" as api
entity "Lambda" as lamb
Database "DynamoDB" as db
collections "Blockchain" as block

Employer -> Frontend : Submit referral form
Frontend -> api : send referral data
api -> lamb : send referral data
lamb -> db : push(referral data)
lamb -> lamb : calculate reputation score
lamb -> block : insert RUI score in block chain
lamb -> db : update reputation data
db -> lamb : confirmation
lamb -> api : confirmation
api -> Frontend : confirmation
Frontend -> Employer : Display Confirmation Page
@enduml

PlantUML version 1.2022.2beta8(Unknown compile time)
(GPL source distribution)
Java Runtime: Java(TM) SE Runtime Environment
JVM: Java HotSpot(TM) 64-Bit Server VM
Default Encoding: UTF-8
Language: en
Country: US
--></g></svg>