<?xml version="1.0" encoding="UTF-8" standalone="no"?><svg xmlns="http://www.w3.org/2000/svg" xmlns:xlink="http://www.w3.org/1999/xlink" contentScriptType="application/ecmascript" contentStyleType="text/css" height="779px" preserveAspectRatio="none" style="width:1133px;height:779px;background:#FFFFFF;" version="1.1" viewBox="0 0 1133 779" width="1133px" zoomAndPan="magnify"><defs><filter height="300%" id="fn0d4kh3ticzq" width="300%" x="-1" y="-1"><feGaussianBlur result="blurOut" stdDeviation="2.0"/><feColorMatrix in="blurOut" result="blurOut2" type="matrix" values="0 0 0 0 0 0 0 0 0 0 0 0 0 0 0 0 0 0 .4 0"/><feOffset dx="4.0" dy="4.0" in="blurOut2" result="blurOut3"/><feBlend in="SourceGraphic" in2="blurOut3" mode="normal"/></filter></defs><g><line style="stroke:#A80036;stroke-width:1.0;stroke-dasharray:5.0,5.0;" x1="62" x2="62" y1="102.9375" y2="674.9297"/><line style="stroke:#A80036;stroke-width:1.0;stroke-dasharray:5.0,5.0;" x1="206" x2="206" y1="102.9375" y2="674.9297"/><line style="stroke:#A80036;stroke-width:1.0;stroke-dasharray:5.0,5.0;" x1="568.5" x2="568.5" y1="102.9375" y2="674.9297"/><line style="stroke:#A80036;stroke-width:1.0;stroke-dasharray:5.0,5.0;" x1="691.5" x2="691.5" y1="102.9375" y2="674.9297"/><line style="stroke:#A80036;stroke-width:1.0;stroke-dasharray:5.0,5.0;" x1="813" x2="813" y1="102.9375" y2="674.9297"/><line style="stroke:#A80036;stroke-width:1.0;stroke-dasharray:5.0,5.0;" x1="1011.5" x2="1011.5" y1="102.9375" y2="674.9297"/><text fill="#000000" font-family="sans-serif" font-size="14" lengthAdjust="spacing" textLength="108" x="5" y="99.6357">Loan Applicant</text><ellipse cx="62" cy="29.6406" fill="#FEFECE" filter="url(#fn0d4kh3ticzq)" rx="8" ry="8" style="stroke:#A80036;stroke-width:2.0;"/><path d="M62,37.6406 L62,64.6406 M49,45.6406 L75,45.6406 M62,64.6406 L49,79.6406 M62,64.6406 L75,79.6406 " fill="none" filter="url(#fn0d4kh3ticzq)" style="stroke:#A80036;stroke-width:2.0;"/><text fill="#000000" font-family="sans-serif" font-size="14" lengthAdjust="spacing" textLength="108" x="5" y="686.9248">Loan Applicant</text><ellipse cx="62" cy="700.2266" fill="#FEFECE" filter="url(#fn0d4kh3ticzq)" rx="8" ry="8" style="stroke:#A80036;stroke-width:2.0;"/><path d="M62,708.2266 L62,735.2266 M49,716.2266 L75,716.2266 M62,735.2266 L49,750.2266 M62,735.2266 L75,750.2266 " fill="none" filter="url(#fn0d4kh3ticzq)" style="stroke:#A80036;stroke-width:2.0;"/><text fill="#000000" font-family="sans-serif" font-size="14" lengthAdjust="spacing" textLength="23" x="191.5" y="99.6357">RUI</text><ellipse cx="206" cy="70.6406" fill="#FEFECE" filter="url(#fn0d4kh3ticzq)" rx="12" ry="12" style="stroke:#A80036;stroke-width:2.0;"/><line style="stroke:#A80036;stroke-width:2.0;" x1="194" x2="218" y1="84.6406" y2="84.6406"/><text fill="#000000" font-family="sans-serif" font-size="14" lengthAdjust="spacing" textLength="23" x="191.5" y="686.9248">RUI</text><ellipse cx="206" cy="706.2266" fill="#FEFECE" filter="url(#fn0d4kh3ticzq)" rx="12" ry="12" style="stroke:#A80036;stroke-width:2.0;"/><line style="stroke:#A80036;stroke-width:2.0;" x1="194" x2="218" y1="720.2266" y2="720.2266"/><text fill="#000000" font-family="sans-serif" font-size="14" lengthAdjust="spacing" textLength="69" x="531.5" y="99.6357">Employer</text><ellipse cx="569" cy="29.6406" fill="#FEFECE" filter="url(#fn0d4kh3ticzq)" rx="8" ry="8" style="stroke:#A80036;stroke-width:2.0;"/><path d="M569,37.6406 L569,64.6406 M556,45.6406 L582,45.6406 M569,64.6406 L556,79.6406 M569,64.6406 L582,79.6406 " fill="none" filter="url(#fn0d4kh3ticzq)" style="stroke:#A80036;stroke-width:2.0;"/><text fill="#000000" font-family="sans-serif" font-size="14" lengthAdjust="spacing" textLength="69" x="531.5" y="686.9248">Employer</text><ellipse cx="569" cy="700.2266" fill="#FEFECE" filter="url(#fn0d4kh3ticzq)" rx="8" ry="8" style="stroke:#A80036;stroke-width:2.0;"/><path d="M569,708.2266 L569,735.2266 M556,716.2266 L582,716.2266 M569,735.2266 L556,750.2266 M569,735.2266 L582,750.2266 " fill="none" filter="url(#fn0d4kh3ticzq)" style="stroke:#A80036;stroke-width:2.0;"/><text fill="#000000" font-family="sans-serif" font-size="14" lengthAdjust="spacing" textLength="99" x="639.5" y="99.6357">BitCcoin Core</text><ellipse cx="692" cy="70.6406" fill="#FEFECE" filter="url(#fn0d4kh3ticzq)" rx="12" ry="12" style="stroke:#A80036;stroke-width:2.0;"/><line style="stroke:#A80036;stroke-width:2.0;" x1="680" x2="704" y1="84.6406" y2="84.6406"/><text fill="#000000" font-family="sans-serif" font-size="14" lengthAdjust="spacing" textLength="99" x="639.5" y="686.9248">BitCcoin Core</text><ellipse cx="692" cy="706.2266" fill="#FEFECE" filter="url(#fn0d4kh3ticzq)" rx="12" ry="12" style="stroke:#A80036;stroke-width:2.0;"/><line style="stroke:#A80036;stroke-width:2.0;" x1="680" x2="704" y1="720.2266" y2="720.2266"/><text fill="#000000" font-family="sans-serif" font-size="14" lengthAdjust="spacing" textLength="78" x="771" y="99.6357">Blockchain</text><ellipse cx="813" cy="70.6406" fill="#FEFECE" filter="url(#fn0d4kh3ticzq)" rx="12" ry="12" style="stroke:#A80036;stroke-width:2.0;"/><line style="stroke:#A80036;stroke-width:2.0;" x1="801" x2="825" y1="84.6406" y2="84.6406"/><text fill="#000000" font-family="sans-serif" font-size="14" lengthAdjust="spacing" textLength="78" x="771" y="686.9248">Blockchain</text><ellipse cx="813" cy="706.2266" fill="#FEFECE" filter="url(#fn0d4kh3ticzq)" rx="12" ry="12" style="stroke:#A80036;stroke-width:2.0;"/><line style="stroke:#A80036;stroke-width:2.0;" x1="801" x2="825" y1="720.2266" y2="720.2266"/><text fill="#000000" font-family="sans-serif" font-size="14" lengthAdjust="spacing" textLength="45" x="986.5" y="99.6357">LOS UI</text><ellipse cx="1012" cy="70.6406" fill="#FEFECE" filter="url(#fn0d4kh3ticzq)" rx="12" ry="12" style="stroke:#A80036;stroke-width:2.0;"/><line style="stroke:#A80036;stroke-width:2.0;" x1="1000" x2="1024" y1="84.6406" y2="84.6406"/><text fill="#000000" font-family="sans-serif" font-size="14" lengthAdjust="spacing" textLength="45" x="986.5" y="686.9248">LOS UI</text><ellipse cx="1012" cy="706.2266" fill="#FEFECE" filter="url(#fn0d4kh3ticzq)" rx="12" ry="12" style="stroke:#A80036;stroke-width:2.0;"/><line style="stroke:#A80036;stroke-width:2.0;" x1="1000" x2="1024" y1="720.2266" y2="720.2266"/><polygon fill="#A80036" points="680,130.0703,690,134.0703,680,138.0703,684,134.0703" style="stroke:#A80036;stroke-width:1.0;"/><line style="stroke:#A80036;stroke-width:1.0;" x1="62" x2="686" y1="134.0703" y2="134.0703"/><text fill="#000000" font-family="sans-serif" font-size="13" lengthAdjust="spacing" textLength="83" x="69" y="129.0044">create wallet</text><line style="stroke:#0000FF;stroke-width:1.0;" x1="692" x2="734" y1="163.2031" y2="163.2031"/><line style="stroke:#0000FF;stroke-width:1.0;" x1="734" x2="734" y1="163.2031" y2="176.2031"/><line style="stroke:#0000FF;stroke-width:1.0;" x1="693" x2="734" y1="176.2031" y2="176.2031"/><polygon fill="#0000FF" points="703,172.2031,693,176.2031,703,180.2031,699,176.2031" style="stroke:#0000FF;stroke-width:1.0;"/><text fill="#000000" font-family="sans-serif" font-size="13" lengthAdjust="spacing" textLength="107" x="699" y="158.1372">get new address</text><polygon fill="#A80036" points="194,201.3359,204,205.3359,194,209.3359,198,205.3359" style="stroke:#A80036;stroke-width:1.0;"/><line style="stroke:#A80036;stroke-width:1.0;" x1="62" x2="200" y1="205.3359" y2="205.3359"/><text fill="#000000" font-family="sans-serif" font-size="13" lengthAdjust="spacing" textLength="120" x="69" y="200.27">registration screen</text><polygon fill="#A80036" points="1000,230.4688,1010,234.4688,1000,238.4688,1004,234.4688" style="stroke:#A80036;stroke-width:1.0;"/><line style="stroke:#A80036;stroke-width:1.0;" x1="206" x2="1006" y1="234.4688" y2="234.4688"/><text fill="#000000" font-family="sans-serif" font-size="13" lengthAdjust="spacing" textLength="223" x="213" y="229.4028">save information as data structure</text><polygon fill="#0000FF" points="73,259.6016,63,263.6016,73,267.6016,69,263.6016" style="stroke:#0000FF;stroke-width:1.0;"/><line style="stroke:#0000FF;stroke-width:1.0;" x1="67" x2="1011" y1="263.6016" y2="263.6016"/><text fill="#000000" font-family="sans-serif" font-size="13" lengthAdjust="spacing" textLength="199" x="79" y="258.5356">"request document signatures"</text><polygon fill="#A80036" points="557,313.7344,567,317.7344,557,321.7344,561,317.7344" style="stroke:#A80036;stroke-width:1.0;"/><line style="stroke:#A80036;stroke-width:1.0;" x1="62" x2="563" y1="317.7344" y2="317.7344"/><text fill="#000000" font-family="sans-serif" font-size="13" lengthAdjust="spacing" textLength="385" x="69" y="312.6685">"Ask employer to sign by sending email with public address"</text><polygon fill="#0000FF" points="73,342.8672,63,346.8672,73,350.8672,69,346.8672" style="stroke:#0000FF;stroke-width:1.0;"/><line style="stroke:#0000FF;stroke-width:1.0;" x1="67" x2="568" y1="346.8672" y2="346.8672"/><text fill="#000000" font-family="sans-serif" font-size="13" lengthAdjust="spacing" textLength="138" x="79" y="341.8013">"Sign and email back"</text><polygon fill="#A80036" points="1000,397,1010,401,1000,405,1004,401" style="stroke:#A80036;stroke-width:1.0;"/><line style="stroke:#A80036;stroke-width:1.0;" x1="62" x2="1006" y1="401" y2="401"/><text fill="#000000" font-family="sans-serif" font-size="13" lengthAdjust="spacing" textLength="113" x="69" y="395.9341">Upload document</text><line style="stroke:#0000FF;stroke-width:1.0;" x1="1012" x2="1054" y1="430.1328" y2="430.1328"/><line style="stroke:#0000FF;stroke-width:1.0;" x1="1054" x2="1054" y1="430.1328" y2="443.1328"/><line style="stroke:#0000FF;stroke-width:1.0;" x1="1013" x2="1054" y1="443.1328" y2="443.1328"/><polygon fill="#0000FF" points="1023,439.1328,1013,443.1328,1023,447.1328,1019,443.1328" style="stroke:#0000FF;stroke-width:1.0;"/><text fill="#000000" font-family="sans-serif" font-size="13" lengthAdjust="spacing" textLength="100" x="1019" y="425.0669">Loan submitted</text><rect fill="#EEEEEE" filter="url(#fn0d4kh3ticzq)" height="3" style="stroke:#EEEEEE;stroke-width:1.0;" width="1126" x="0" y="471.6992"/><line style="stroke:#000000;stroke-width:1.0;" x1="0" x2="1126" y1="471.6992" y2="471.6992"/><line style="stroke:#000000;stroke-width:1.0;" x1="0" x2="1126" y1="474.6992" y2="474.6992"/><rect fill="#EEEEEE" filter="url(#fn0d4kh3ticzq)" height="23.1328" style="stroke:#000000;stroke-width:2.0;" width="111" x="507.5" y="461.1328"/><text fill="#000000" font-family="sans-serif" font-size="13" font-weight="bold" lengthAdjust="spacing" textLength="92" x="513.5" y="477.1997">Recommend</text><polygon fill="#A80036" points="557,511.3984,567,515.3984,557,519.3984,561,515.3984" style="stroke:#A80036;stroke-width:1.0;"/><line style="stroke:#A80036;stroke-width:1.0;" x1="206" x2="563" y1="515.3984" y2="515.3984"/><text fill="#000000" font-family="sans-serif" font-size="13" lengthAdjust="spacing" textLength="339" x="213" y="510.3325">"request a message to sign loan applicant (address)"</text><polygon fill="#A80036" points="680,540.5313,690,544.5313,680,548.5313,684,544.5313" style="stroke:#A80036;stroke-width:1.0;"/><line style="stroke:#A80036;stroke-width:1.0;" x1="569" x2="686" y1="544.5313" y2="544.5313"/><text fill="#000000" font-family="sans-serif" font-size="13" lengthAdjust="spacing" textLength="99" x="576" y="539.4653">"sign message"</text><polygon fill="#0000FF" points="217,569.6641,207,573.6641,217,577.6641,213,573.6641" style="stroke:#0000FF;stroke-width:1.0;"/><line style="stroke:#0000FF;stroke-width:1.0;" x1="211" x2="568" y1="573.6641" y2="573.6641"/><text fill="#000000" font-family="sans-serif" font-size="13" lengthAdjust="spacing" textLength="151" x="223" y="568.5981">"signature comes back"</text><polygon fill="#A80036" points="801,623.7969,811,627.7969,801,631.7969,805,627.7969" style="stroke:#A80036;stroke-width:1.0;"/><line style="stroke:#A80036;stroke-width:1.0;" x1="206" x2="807" y1="627.7969" y2="627.7969"/><text fill="#000000" font-family="sans-serif" font-size="13" lengthAdjust="spacing" textLength="196" x="213" y="622.731">submit signature to blockchain</text><polygon fill="#0000FF" points="824,652.9297,814,656.9297,824,660.9297,820,656.9297" style="stroke:#0000FF;stroke-width:1.0;"/><line style="stroke:#0000FF;stroke-width:1.0;" x1="818" x2="1011" y1="656.9297" y2="656.9297"/><text fill="#000000" font-family="sans-serif" font-size="13" lengthAdjust="spacing" textLength="175" x="830" y="651.8638">"if &gt;0 consider it approved"</text><text fill="#888888" font-family="sans-serif" font-size="10" lengthAdjust="spacing" textLength="82" x="1044" y="14.2822">Activity Digram</text><text fill="#888888" font-family="sans-serif" font-size="10" lengthAdjust="spacing" textLength="82" x="522" y="770.5088">Activity Digram</text><!--MD5=[d3a46df0f49fc50aaff070072c9e5a1c]
@startuml
header Activity Digram
footer Activity Digram

Actor "Loan Applicant" as user
entity RUI
Actor Employer
entity "BitCcoin Core" as bitCoin
entity Blockchain
entity "LOS UI" as los

user -> bitCoin : create wallet
bitCoin -[#0000FF]> bitCoin : get new address
user -> RUI : registration screen
RUI -> los : save information as data structure
los -[#0000FF]> user : "request document signatures"
|||
user -> Employer : "Ask employer to sign by sending email with public address"
Employer -[#0000FF]> user : "Sign and email back"
|||
user -> los : Upload document
los -[#0000FF]> los : Loan submitted

== Recommend ==

Actor "Loan Applicant" as user
entity RUI
Actor Employer
entity "BitCcoin Core" as bitCoin
entity Blockchain
entity "LOS UI" as los

RUI -> Employer : "request a message to sign loan applicant (address)"
Employer -> bitCoin : "sign message"
Employer -[#0000FF]> RUI : "signature comes back"
|||
RUI -> Blockchain : submit signature to blockchain
los -[#0000FF]> Blockchain : "if >0 consider it approved"
@enduml

PlantUML version 1.2021.13beta3(Unknown compile time)
(GPL source distribution)
Java Runtime: Java(TM) SE Runtime Environment
JVM: Java HotSpot(TM) 64-Bit Server VM
Default Encoding: UTF-8
Language: en
Country: US
--></g></svg>