<?xml version="1.0" encoding="UTF-8" standalone="no"?><svg xmlns="http://www.w3.org/2000/svg" xmlns:xlink="http://www.w3.org/1999/xlink" contentStyleType="text/css" height="167px" preserveAspectRatio="none" style="width:695px;height:167px;background:#FFFFFF;" version="1.1" viewBox="0 0 695 167" width="695px" zoomAndPan="magnify"><defs/><g><text fill="#000000" font-family="sans-serif" font-size="12" lengthAdjust="spacing" textLength="71" x="6" y="17.1387">Registration</text><text fill="#000000" font-family="sans-serif" font-size="12" lengthAdjust="spacing" textLength="99" x="6" y="33.1074">Unique Identifier</text><rect fill="#EEEEEE" height="16.9688" style="stroke:#000000;stroke-width:1.0;" width="143" x="111" y="21.9688"/><text fill="#000000" font-family="sans-serif" font-size="12" lengthAdjust="spacing" textLength="98" x="113" y="35.1074">Select an option</text><line style="stroke:#000000;stroke-width:1.0;" x1="243" x2="243" y1="21.9688" y2="38.9375"/><polygon fill="#000000" points="246,27.9688,252,27.9688,249,33.9375" style="stroke:#000000;stroke-width:1.0;"/><rect fill="#EEEEEE" height="16.9688" style="stroke:#000000;stroke-width:1.0;" width="63" x="617" y="21.9688"/><text fill="#000000" font-family="sans-serif" font-size="12" lengthAdjust="spacing" textLength="38" x="619" y="35.1074">Select</text><line style="stroke:#000000;stroke-width:1.0;" x1="669" x2="669" y1="21.9688" y2="38.9375"/><polygon fill="#000000" points="672,27.9688,678,27.9688,675,33.9375" style="stroke:#000000;stroke-width:1.0;"/><text fill="#000000" font-family="sans-serif" font-size="12" lengthAdjust="spacing" textLength="55" x="6" y="53.0762">Message</text><text fill="#000000" font-family="sans-serif" font-size="12" lengthAdjust="spacing" textLength="504" x="111" y="53.0762">E08D706B3E4CE964B632746CF568913CB93F1ED36476FBB0494B80ED17C5975C</text><text fill="#000000" font-family="sans-serif" font-size="12" lengthAdjust="spacing" textLength="98" x="6" y="69.0449">Digital Signature</text><rect fill="#EEEEEE" height="16.9688" style="stroke:#000000;stroke-width:1.0;" width="143" x="111" y="57.9063"/><text fill="#000000" font-family="sans-serif" font-size="12" lengthAdjust="spacing" textLength="98" x="113" y="71.0449">Select an option</text><line style="stroke:#000000;stroke-width:1.0;" x1="243" x2="243" y1="57.9063" y2="74.875"/><polygon fill="#000000" points="246,63.9063,252,63.9063,249,69.875" style="stroke:#000000;stroke-width:1.0;"/><rect fill="#EEEEEE" height="16.9688" style="stroke:#000000;stroke-width:1.0;" width="63" x="617" y="57.9063"/><text fill="#000000" font-family="sans-serif" font-size="12" lengthAdjust="spacing" textLength="35" x="619" y="71.0449">Verify</text><line style="stroke:#000000;stroke-width:1.0;" x1="669" x2="669" y1="57.9063" y2="74.875"/><polygon fill="#000000" points="672,63.9063,678,63.9063,675,69.875" style="stroke:#000000;stroke-width:1.0;"/><text fill="#000000" font-family="sans-serif" font-size="12" lengthAdjust="spacing" textLength="103" x="6" y="89.0137">Registering as a?</text><rect fill="#EEEEEE" height="16.9688" style="stroke:#000000;stroke-width:1.0;" width="79" x="111" y="77.875"/><text fill="#000000" font-family="sans-serif" font-size="12" lengthAdjust="spacing" textLength="57" x="113" y="91.0137">Employer</text><line style="stroke:#000000;stroke-width:1.0;" x1="179" x2="179" y1="77.875" y2="94.8438"/><polygon fill="#000000" points="182,83.875,188,83.875,185,89.8438" style="stroke:#000000;stroke-width:1.0;"/><rect fill="#EEEEEE" height="16.9688" style="stroke:#000000;stroke-width:1.0;" width="79" x="193" y="77.875"/><text fill="#000000" font-family="sans-serif" font-size="12" lengthAdjust="spacing" textLength="60" x="195" y="91.0137">Employee</text><line style="stroke:#000000;stroke-width:1.0;" x1="261" x2="261" y1="77.875" y2="94.8438"/><polygon fill="#000000" points="264,83.875,270,83.875,267,89.8438" style="stroke:#000000;stroke-width:1.0;"/><text fill="#000000" font-family="sans-serif" font-size="12" lengthAdjust="spacing" textLength="94" x="6" y="108.9824">Company Name</text><text fill="#000000" font-family="sans-serif" font-size="12" lengthAdjust="spacing" textLength="31" x="6" y="124.9512">Email</text><text fill="#000000" font-family="sans-serif" font-size="12" lengthAdjust="spacing" textLength="34" x="6" y="140.9199">Name</text><text fill="#000000" font-family="sans-serif" font-size="12" lengthAdjust="spacing" textLength="87" x="6" y="156.8887">Phone Number</text><line style="stroke:#000000;stroke-width:1.0;" x1="5" x2="110" y1="5" y2="5"/><line style="stroke:#000000;stroke-width:1.0;" x1="110" x2="192" y1="5" y2="5"/><line style="stroke:#000000;stroke-width:1.0;" x1="192" x2="616" y1="5" y2="5"/><line style="stroke:#000000;stroke-width:1.0;" x1="616" x2="682" y1="5" y2="5"/><line style="stroke:#000000;stroke-width:1.0;" x1="682" x2="682" y1="5" y2="5"/><line style="stroke:#000000;stroke-width:1.0;" x1="5" x2="110" y1="128.7813" y2="128.7813"/><line style="stroke:#000000;stroke-width:1.0;" x1="110" x2="192" y1="128.7813" y2="128.7813"/><line style="stroke:#000000;stroke-width:1.0;" x1="192" x2="616" y1="128.7813" y2="128.7813"/><line style="stroke:#000000;stroke-width:1.0;" x1="616" x2="682" y1="128.7813" y2="128.7813"/><line style="stroke:#000000;stroke-width:1.0;" x1="5" x2="110" y1="56.9063" y2="56.9063"/><line style="stroke:#000000;stroke-width:1.0;" x1="682" x2="682" y1="128.7813" y2="128.7813"/><line style="stroke:#000000;stroke-width:1.0;" x1="110" x2="192" y1="56.9063" y2="56.9063"/><line style="stroke:#000000;stroke-width:1.0;" x1="192" x2="616" y1="56.9063" y2="56.9063"/><line style="stroke:#000000;stroke-width:1.0;" x1="616" x2="682" y1="56.9063" y2="56.9063"/><line style="stroke:#000000;stroke-width:1.0;" x1="5" x2="110" y1="112.8125" y2="112.8125"/><line style="stroke:#000000;stroke-width:1.0;" x1="110" x2="192" y1="112.8125" y2="112.8125"/><line style="stroke:#000000;stroke-width:1.0;" x1="192" x2="616" y1="112.8125" y2="112.8125"/><line style="stroke:#000000;stroke-width:1.0;" x1="616" x2="682" y1="112.8125" y2="112.8125"/><line style="stroke:#000000;stroke-width:1.0;" x1="5" x2="110" y1="40.9375" y2="40.9375"/><line style="stroke:#000000;stroke-width:1.0;" x1="682" x2="682" y1="112.8125" y2="112.8125"/><line style="stroke:#000000;stroke-width:1.0;" x1="110" x2="192" y1="40.9375" y2="40.9375"/><line style="stroke:#000000;stroke-width:1.0;" x1="192" x2="616" y1="40.9375" y2="40.9375"/><line style="stroke:#000000;stroke-width:1.0;" x1="616" x2="682" y1="40.9375" y2="40.9375"/><line style="stroke:#000000;stroke-width:1.0;" x1="5" x2="110" y1="160.7188" y2="160.7188"/><line style="stroke:#000000;stroke-width:1.0;" x1="110" x2="192" y1="160.7188" y2="160.7188"/><line style="stroke:#000000;stroke-width:1.0;" x1="192" x2="616" y1="160.7188" y2="160.7188"/><line style="stroke:#000000;stroke-width:1.0;" x1="616" x2="682" y1="160.7188" y2="160.7188"/><line style="stroke:#000000;stroke-width:1.0;" x1="682" x2="682" y1="160.7188" y2="160.7188"/><line style="stroke:#000000;stroke-width:1.0;" x1="5" x2="110" y1="96.8438" y2="96.8438"/><line style="stroke:#000000;stroke-width:1.0;" x1="110" x2="192" y1="96.8438" y2="96.8438"/><line style="stroke:#000000;stroke-width:1.0;" x1="192" x2="616" y1="96.8438" y2="96.8438"/><line style="stroke:#000000;stroke-width:1.0;" x1="616" x2="682" y1="96.8438" y2="96.8438"/><line style="stroke:#000000;stroke-width:1.0;" x1="5" x2="110" y1="20.9688" y2="20.9688"/><line style="stroke:#000000;stroke-width:1.0;" x1="682" x2="682" y1="96.8438" y2="96.8438"/><line style="stroke:#000000;stroke-width:1.0;" x1="110" x2="192" y1="20.9688" y2="20.9688"/><line style="stroke:#000000;stroke-width:1.0;" x1="192" x2="616" y1="20.9688" y2="20.9688"/><line style="stroke:#000000;stroke-width:1.0;" x1="616" x2="682" y1="20.9688" y2="20.9688"/><line style="stroke:#000000;stroke-width:1.0;" x1="682" x2="682" y1="20.9688" y2="20.9688"/><line style="stroke:#000000;stroke-width:1.0;" x1="5" x2="110" y1="144.75" y2="144.75"/><line style="stroke:#000000;stroke-width:1.0;" x1="110" x2="192" y1="144.75" y2="144.75"/><line style="stroke:#000000;stroke-width:1.0;" x1="192" x2="616" y1="144.75" y2="144.75"/><line style="stroke:#000000;stroke-width:1.0;" x1="616" x2="682" y1="144.75" y2="144.75"/><line style="stroke:#000000;stroke-width:1.0;" x1="5" x2="110" y1="76.875" y2="76.875"/><line style="stroke:#000000;stroke-width:1.0;" x1="110" x2="192" y1="76.875" y2="76.875"/><line style="stroke:#000000;stroke-width:1.0;" x1="192" x2="616" y1="76.875" y2="76.875"/><line style="stroke:#000000;stroke-width:1.0;" x1="616" x2="682" y1="76.875" y2="76.875"/><line style="stroke:#000000;stroke-width:1.0;" x1="5" x2="5" y1="5" y2="20.9688"/><line style="stroke:#000000;stroke-width:1.0;" x1="682" x2="682" y1="76.875" y2="96.8438"/><line style="stroke:#000000;stroke-width:1.0;" x1="682" x2="682" y1="76.875" y2="96.8438"/><line style="stroke:#000000;stroke-width:1.0;" x1="682" x2="682" y1="5" y2="20.9688"/><line style="stroke:#000000;stroke-width:1.0;" x1="5" x2="5" y1="128.7813" y2="144.75"/><line style="stroke:#000000;stroke-width:1.0;" x1="5" x2="5" y1="56.9063" y2="76.875"/><line style="stroke:#000000;stroke-width:1.0;" x1="682" x2="682" y1="128.7813" y2="144.75"/><line style="stroke:#000000;stroke-width:1.0;" x1="682" x2="682" y1="128.7813" y2="144.75"/><line style="stroke:#000000;stroke-width:1.0;" x1="110" x2="110" y1="56.9063" y2="76.875"/><line style="stroke:#000000;stroke-width:1.0;" x1="616" x2="616" y1="56.9063" y2="76.875"/><line style="stroke:#000000;stroke-width:1.0;" x1="682" x2="682" y1="56.9063" y2="76.875"/><line style="stroke:#000000;stroke-width:1.0;" x1="682" x2="682" y1="56.9063" y2="76.875"/><line style="stroke:#000000;stroke-width:1.0;" x1="5" x2="5" y1="112.8125" y2="128.7813"/><line style="stroke:#000000;stroke-width:1.0;" x1="5" x2="5" y1="40.9375" y2="56.9063"/><line style="stroke:#000000;stroke-width:1.0;" x1="682" x2="682" y1="112.8125" y2="128.7813"/><line style="stroke:#000000;stroke-width:1.0;" x1="110" x2="110" y1="40.9375" y2="56.9063"/><line style="stroke:#000000;stroke-width:1.0;" x1="616" x2="616" y1="40.9375" y2="56.9063"/><line style="stroke:#000000;stroke-width:1.0;" x1="682" x2="682" y1="40.9375" y2="56.9063"/><line style="stroke:#000000;stroke-width:1.0;" x1="5" x2="5" y1="96.8438" y2="112.8125"/><line style="stroke:#000000;stroke-width:1.0;" x1="5" x2="5" y1="20.9688" y2="40.9375"/><line style="stroke:#000000;stroke-width:1.0;" x1="682" x2="682" y1="96.8438" y2="112.8125"/><line style="stroke:#000000;stroke-width:1.0;" x1="110" x2="110" y1="20.9688" y2="40.9375"/><line style="stroke:#000000;stroke-width:1.0;" x1="616" x2="616" y1="20.9688" y2="40.9375"/><line style="stroke:#000000;stroke-width:1.0;" x1="682" x2="682" y1="20.9688" y2="40.9375"/><line style="stroke:#000000;stroke-width:1.0;" x1="682" x2="682" y1="20.9688" y2="40.9375"/><line style="stroke:#000000;stroke-width:1.0;" x1="5" x2="5" y1="144.75" y2="160.7188"/><line style="stroke:#000000;stroke-width:1.0;" x1="5" x2="5" y1="76.875" y2="96.8438"/><line style="stroke:#000000;stroke-width:1.0;" x1="682" x2="682" y1="144.75" y2="160.7188"/><line style="stroke:#000000;stroke-width:1.0;" x1="682" x2="682" y1="144.75" y2="160.7188"/><line style="stroke:#000000;stroke-width:1.0;" x1="110" x2="110" y1="76.875" y2="96.8438"/><line style="stroke:#000000;stroke-width:1.0;" x1="192" x2="192" y1="76.875" y2="96.8438"/><!--MD5=[9c4d759df9248adff7c471e9bc8630e6]
@startsalt
{#
    Registration | * | * | * | *
    Unique Identifier | ^Select an option^ | * | ^Select^
    Message | E08D706B3E4CE964B632746CF568913CB93F1ED36476FBB0494B80ED17C5975C |*
    Digital Signature  |^Select an option^|*|^Verify^
    Registering as a? |^Employer^|^Employee^ | *
    Company Name | * | * | * | *
    Email | * | * | * | *
    Name | * | * | *
    Phone Number | * | * | *

}
@endsalt

PlantUML version 1.2022.4beta1(Unknown compile time)
(GPL source distribution)
Java Runtime: Java(TM) SE Runtime Environment
JVM: Java HotSpot(TM) 64-Bit Server VM
Default Encoding: UTF-8
Language: en
Country: US
--></g></svg>