<?xml version="1.0" encoding="UTF-8" standalone="no"?><svg xmlns="http://www.w3.org/2000/svg" xmlns:xlink="http://www.w3.org/1999/xlink" contentStyleType="text/css" height="802px" preserveAspectRatio="none" style="width:702px;height:802px;background:#FFFFFF;" version="1.1" viewBox="0 0 702 802" width="702px" zoomAndPan="magnify"><defs/><g><rect height="26.2969" style="stroke:#00000000;stroke-width:1.0;fill:none;" width="180" x="260.25" y="10"/><text fill="#000000" font-family="sans-serif" font-size="14" font-weight="bold" lengthAdjust="spacing" textLength="170" x="265.25" y="27.9951">Registration Process</text><line style="stroke:#181818;stroke-width:0.5;stroke-dasharray:5.0,5.0;" x1="23" x2="23" y1="118.5938" y2="721.25"/><line style="stroke:#181818;stroke-width:0.5;stroke-dasharray:5.0,5.0;" x1="188.5" x2="188.5" y1="118.5938" y2="721.25"/><line style="stroke:#181818;stroke-width:0.5;stroke-dasharray:5.0,5.0;" x1="369" x2="369" y1="118.5938" y2="721.25"/><line style="stroke:#181818;stroke-width:0.5;stroke-dasharray:5.0,5.0;" x1="551.5" x2="551.5" y1="118.5938" y2="721.25"/><line style="stroke:#181818;stroke-width:0.5;stroke-dasharray:5.0,5.0;" x1="650.5" x2="650.5" y1="118.5938" y2="721.25"/><text fill="#000000" font-family="sans-serif" font-size="14" lengthAdjust="spacing" textLength="31" x="5" y="115.292">User</text><ellipse cx="23.5" cy="50.7969" fill="#E2E2F0" rx="8" ry="8" style="stroke:#181818;stroke-width:0.5;"/><path d="M23.5,58.7969 L23.5,85.7969 M10.5,66.7969 L36.5,66.7969 M23.5,85.7969 L10.5,100.7969 M23.5,85.7969 L36.5,100.7969 " fill="none" style="stroke:#181818;stroke-width:0.5;"/><text fill="#000000" font-family="sans-serif" font-size="14" lengthAdjust="spacing" textLength="31" x="5" y="733.2451">User</text><ellipse cx="23.5" cy="745.0469" fill="#E2E2F0" rx="8" ry="8" style="stroke:#181818;stroke-width:0.5;"/><path d="M23.5,753.0469 L23.5,780.0469 M10.5,761.0469 L36.5,761.0469 M23.5,780.0469 L10.5,795.0469 M23.5,780.0469 L36.5,795.0469 " fill="none" style="stroke:#181818;stroke-width:0.5;"/><rect fill="#E2E2F0" height="30.2969" rx="2.5" ry="2.5" style="stroke:#181818;stroke-width:0.5;" width="80" x="148.5" y="87.2969"/><text fill="#000000" font-family="sans-serif" font-size="14" lengthAdjust="spacing" textLength="66" x="155.5" y="107.292">Frontend</text><rect fill="#E2E2F0" height="30.2969" rx="2.5" ry="2.5" style="stroke:#181818;stroke-width:0.5;" width="80" x="148.5" y="720.25"/><text fill="#000000" font-family="sans-serif" font-size="14" lengthAdjust="spacing" textLength="66" x="155.5" y="740.2451">Frontend</text><text fill="#000000" font-family="sans-serif" font-size="14" lengthAdjust="spacing" textLength="57" x="338" y="115.292">Lambda</text><ellipse cx="369.5" cy="86.2969" fill="#E2E2F0" rx="12" ry="12" style="stroke:#181818;stroke-width:0.5;"/><line style="stroke:#181818;stroke-width:0.5;" x1="357.5" x2="381.5" y1="100.2969" y2="100.2969"/><text fill="#000000" font-family="sans-serif" font-size="14" lengthAdjust="spacing" textLength="57" x="338" y="733.2451">Lambda</text><ellipse cx="369.5" cy="752.5469" fill="#E2E2F0" rx="12" ry="12" style="stroke:#181818;stroke-width:0.5;"/><line style="stroke:#181818;stroke-width:0.5;" x1="357.5" x2="381.5" y1="766.5469" y2="766.5469"/><text fill="#000000" font-family="sans-serif" font-size="14" lengthAdjust="spacing" textLength="80" x="508.5" y="115.292">DynamoDB</text><path d="M533.5,66.2969 C533.5,56.2969 551.5,56.2969 551.5,56.2969 C551.5,56.2969 569.5,56.2969 569.5,66.2969 L569.5,92.2969 C569.5,102.2969 551.5,102.2969 551.5,102.2969 C551.5,102.2969 533.5,102.2969 533.5,92.2969 L533.5,66.2969 " fill="#E2E2F0" style="stroke:#181818;stroke-width:1.5;"/><path d="M533.5,66.2969 C533.5,76.2969 551.5,76.2969 551.5,76.2969 C551.5,76.2969 569.5,76.2969 569.5,66.2969 " fill="none" style="stroke:#181818;stroke-width:1.5;"/><text fill="#000000" font-family="sans-serif" font-size="14" lengthAdjust="spacing" textLength="80" x="508.5" y="733.2451">DynamoDB</text><path d="M533.5,746.5469 C533.5,736.5469 551.5,736.5469 551.5,736.5469 C551.5,736.5469 569.5,736.5469 569.5,746.5469 L569.5,772.5469 C569.5,782.5469 551.5,782.5469 551.5,782.5469 C551.5,782.5469 533.5,782.5469 533.5,772.5469 L533.5,746.5469 " fill="#E2E2F0" style="stroke:#181818;stroke-width:1.5;"/><path d="M533.5,746.5469 C533.5,756.5469 551.5,756.5469 551.5,756.5469 C551.5,756.5469 569.5,756.5469 569.5,746.5469 " fill="none" style="stroke:#181818;stroke-width:1.5;"/><rect fill="#E2E2F0" height="30.2969" rx="2.5" ry="2.5" style="stroke:#181818;stroke-width:0.5;" width="92" x="604.5" y="87.2969"/><text fill="#000000" font-family="sans-serif" font-size="14" lengthAdjust="spacing" textLength="78" x="611.5" y="107.292">Blockchain</text><rect fill="#E2E2F0" height="30.2969" rx="2.5" ry="2.5" style="stroke:#181818;stroke-width:0.5;" width="92" x="604.5" y="720.25"/><text fill="#000000" font-family="sans-serif" font-size="14" lengthAdjust="spacing" textLength="78" x="611.5" y="740.2451">Blockchain</text><polygon fill="#181818" points="176.5,145.7266,186.5,149.7266,176.5,153.7266,180.5,149.7266" style="stroke:#181818;stroke-width:1.0;"/><line style="stroke:#181818;stroke-width:1.0;" x1="23.5" x2="182.5" y1="149.7266" y2="149.7266"/><text fill="#000000" font-family="sans-serif" font-size="13" lengthAdjust="spacing" textLength="141" x="30.5" y="144.6606">enter unique identifier</text><polygon fill="#181818" points="357.5,174.8594,367.5,178.8594,357.5,182.8594,361.5,178.8594" style="stroke:#181818;stroke-width:1.0;"/><line style="stroke:#181818;stroke-width:1.0;" x1="188.5" x2="363.5" y1="178.8594" y2="178.8594"/><text fill="#000000" font-family="sans-serif" font-size="13" lengthAdjust="spacing" textLength="138" x="195.5" y="173.7935">send unique identifier</text><polygon fill="#181818" points="539.5,203.9922,549.5,207.9922,539.5,211.9922,543.5,207.9922" style="stroke:#181818;stroke-width:1.0;"/><line style="stroke:#181818;stroke-width:1.0;" x1="369.5" x2="545.5" y1="207.9922" y2="207.9922"/><text fill="#000000" font-family="sans-serif" font-size="13" lengthAdjust="spacing" textLength="158" x="376.5" y="202.9263">validate unique identifier</text><polygon fill="#181818" points="380.5,233.125,370.5,237.125,380.5,241.125,376.5,237.125" style="stroke:#181818;stroke-width:1.0;"/><line style="stroke:#181818;stroke-width:1.0;" x1="374.5" x2="550.5" y1="237.125" y2="237.125"/><text fill="#000000" font-family="sans-serif" font-size="13" lengthAdjust="spacing" textLength="97" x="386.5" y="232.0591">send validation</text><polygon fill="#181818" points="638.5,262.2578,648.5,266.2578,638.5,270.2578,642.5,266.2578" style="stroke:#181818;stroke-width:1.0;"/><line style="stroke:#181818;stroke-width:1.0;" x1="369.5" x2="644.5" y1="266.2578" y2="266.2578"/><text fill="#000000" font-family="sans-serif" font-size="13" lengthAdjust="spacing" textLength="112" x="376.5" y="261.1919">request message</text><polygon fill="#181818" points="380.5,291.3906,370.5,295.3906,380.5,299.3906,376.5,295.3906" style="stroke:#181818;stroke-width:1.0;"/><line style="stroke:#181818;stroke-width:1.0;" x1="374.5" x2="649.5" y1="295.3906" y2="295.3906"/><text fill="#000000" font-family="sans-serif" font-size="13" lengthAdjust="spacing" textLength="121" x="386.5" y="290.3247">generate message</text><polygon fill="#181818" points="199.5,320.5234,189.5,324.5234,199.5,328.5234,195.5,324.5234" style="stroke:#181818;stroke-width:1.0;"/><line style="stroke:#181818;stroke-width:1.0;" x1="193.5" x2="368.5" y1="324.5234" y2="324.5234"/><text fill="#000000" font-family="sans-serif" font-size="13" lengthAdjust="spacing" textLength="108" x="205.5" y="319.4575">display message</text><polygon fill="#181818" points="176.5,349.6563,186.5,353.6563,176.5,357.6563,180.5,353.6563" style="stroke:#181818;stroke-width:1.0;"/><line style="stroke:#181818;stroke-width:1.0;" x1="23.5" x2="182.5" y1="353.6563" y2="353.6563"/><text fill="#000000" font-family="sans-serif" font-size="13" lengthAdjust="spacing" textLength="140" x="30.5" y="348.5903">enter digital signature</text><polygon fill="#181818" points="357.5,378.7891,367.5,382.7891,357.5,386.7891,361.5,382.7891" style="stroke:#181818;stroke-width:1.0;"/><line style="stroke:#181818;stroke-width:1.0;" x1="188.5" x2="363.5" y1="382.7891" y2="382.7891"/><text fill="#000000" font-family="sans-serif" font-size="13" lengthAdjust="spacing" textLength="95" x="195.5" y="377.7231">send signature</text><polygon fill="#181818" points="199.5,407.9219,189.5,411.9219,199.5,415.9219,195.5,411.9219" style="stroke:#181818;stroke-width:1.0;"/><line style="stroke:#181818;stroke-width:1.0;" x1="193.5" x2="368.5" y1="411.9219" y2="411.9219"/><text fill="#000000" font-family="sans-serif" font-size="13" lengthAdjust="spacing" textLength="157" x="205.5" y="406.856">display registration form</text><polygon fill="#181818" points="176.5,437.0547,186.5,441.0547,176.5,445.0547,180.5,441.0547" style="stroke:#181818;stroke-width:1.0;"/><line style="stroke:#181818;stroke-width:1.0;" x1="23.5" x2="182.5" y1="441.0547" y2="441.0547"/><text fill="#000000" font-family="sans-serif" font-size="13" lengthAdjust="spacing" textLength="139" x="30.5" y="435.9888">enter company name</text><polygon fill="#181818" points="357.5,466.1875,367.5,470.1875,357.5,474.1875,361.5,470.1875" style="stroke:#181818;stroke-width:1.0;"/><line style="stroke:#181818;stroke-width:1.0;" x1="188.5" x2="363.5" y1="470.1875" y2="470.1875"/><text fill="#000000" font-family="sans-serif" font-size="13" lengthAdjust="spacing" textLength="136" x="195.5" y="465.1216">send company name</text><polygon fill="#181818" points="539.5,495.3203,549.5,499.3203,539.5,503.3203,543.5,499.3203" style="stroke:#181818;stroke-width:1.0;"/><line style="stroke:#181818;stroke-width:1.0;" x1="369.5" x2="545.5" y1="499.3203" y2="499.3203"/><text fill="#000000" font-family="sans-serif" font-size="13" lengthAdjust="spacing" textLength="136" x="376.5" y="494.2544">send company name</text><polygon fill="#181818" points="380.5,524.4531,370.5,528.4531,380.5,532.4531,376.5,528.4531" style="stroke:#181818;stroke-width:1.0;"/><line style="stroke:#181818;stroke-width:1.0;" x1="374.5" x2="550.5" y1="528.4531" y2="528.4531"/><text fill="#000000" font-family="sans-serif" font-size="13" lengthAdjust="spacing" textLength="82" x="386.5" y="523.3872">company list</text><polygon fill="#181818" points="199.5,553.5859,189.5,557.5859,199.5,561.5859,195.5,557.5859" style="stroke:#181818;stroke-width:1.0;"/><line style="stroke:#181818;stroke-width:1.0;" x1="193.5" x2="368.5" y1="557.5859" y2="557.5859"/><text fill="#000000" font-family="sans-serif" font-size="13" lengthAdjust="spacing" textLength="82" x="205.5" y="552.52">company list</text><polygon fill="#181818" points="176.5,582.7188,186.5,586.7188,176.5,590.7188,180.5,586.7188" style="stroke:#181818;stroke-width:1.0;"/><line style="stroke:#181818;stroke-width:1.0;" x1="23.5" x2="182.5" y1="586.7188" y2="586.7188"/><text fill="#000000" font-family="sans-serif" font-size="13" lengthAdjust="spacing" textLength="122" x="30.5" y="581.6528">submit information</text><polygon fill="#181818" points="357.5,611.8516,367.5,615.8516,357.5,619.8516,361.5,615.8516" style="stroke:#181818;stroke-width:1.0;"/><line style="stroke:#181818;stroke-width:1.0;" x1="188.5" x2="363.5" y1="615.8516" y2="615.8516"/><text fill="#000000" font-family="sans-serif" font-size="13" lengthAdjust="spacing" textLength="109" x="195.5" y="610.7856">send information</text><polygon fill="#181818" points="539.5,640.9844,549.5,644.9844,539.5,648.9844,543.5,644.9844" style="stroke:#181818;stroke-width:1.0;"/><line style="stroke:#181818;stroke-width:1.0;" x1="369.5" x2="545.5" y1="644.9844" y2="644.9844"/><text fill="#000000" font-family="sans-serif" font-size="13" lengthAdjust="spacing" textLength="106" x="376.5" y="639.9185">post information</text><polygon fill="#181818" points="380.5,670.1172,370.5,674.1172,380.5,678.1172,376.5,674.1172" style="stroke:#181818;stroke-width:1.0;"/><line style="stroke:#181818;stroke-width:1.0;" x1="374.5" x2="550.5" y1="674.1172" y2="674.1172"/><text fill="#000000" font-family="sans-serif" font-size="13" lengthAdjust="spacing" textLength="81" x="386.5" y="669.0513">confirmation</text><polygon fill="#181818" points="199.5,699.25,189.5,703.25,199.5,707.25,195.5,703.25" style="stroke:#181818;stroke-width:1.0;"/><line style="stroke:#181818;stroke-width:1.0;" x1="193.5" x2="368.5" y1="703.25" y2="703.25"/><text fill="#000000" font-family="sans-serif" font-size="13" lengthAdjust="spacing" textLength="81" x="205.5" y="698.1841">confirmation</text><!--MD5=[0d0bfe315f109814be2cdb03f287b14f]
@startuml
title "Registration Process"

Actor "User"
participant "Frontend"

entity "Lambda" as lamb
Database "DynamoDB" as db

User -> Frontend : enter unique identifier
Frontend -> lamb : send unique identifier
lamb -> db : validate unique identifier
db-> lamb : send validation
lamb -> Blockchain : request message
Blockchain -> lamb : generate message
lamb -> Frontend : display message
User -> Frontend : enter digital signature
Frontend -> lamb : send signature
lamb -> Frontend : display registration form
User -> Frontend : submit information
Frontend -> lamb : send information
lamb -> db : post information
db -> lamb : confirmation
lamb -> Frontend : confirmation
@enduml

PlantUML version 1.2022.4beta1(Unknown compile time)
(GPL source distribution)
Java Runtime: Java(TM) SE Runtime Environment
JVM: Java HotSpot(TM) 64-Bit Server VM
Default Encoding: UTF-8
Language: en
Country: US
--></g></svg>
